<svg xmlns="http://www.w3.org/2000/svg" xmlns:xlink="http://www.w3.org/1999/xlink" version="1.1" x="0px" y="0px" width="460px" height="107px" viewBox="0 0 460 107" enable-background="new 0 0 460 107" xml:space="preserve" style="display:inline-block; width:123px; height:28px;">
  <path fill="white" d="M0,14.199c0-2.937,1.259-4.196,4.196-4.196h20.768c17.727,0,24.754,7.552,24.754,18.565   c0,7.132-5.035,13.321-11.328,15.943l0.105,0.419c8.391,1.678,14.16,9.125,14.16,17.202c0,13.531-8.496,21.292-26.222,21.292H4.196   C1.259,83.425,0,82.166,0,79.229V14.199z M23.39,39.267c6.293,0,9.755-3.461,9.755-7.867c0-5.14-3.147-7.762-9.545-7.762h-7.447   v15.628H23.39z M26.432,69.685c6.083,0,9.65-3.042,9.65-8.496c0-5.455-4.091-8.182-11.328-8.182h-8.601v16.678H26.432z"></path>
  <path fill="white" d="M60.988,16.191V7.695c0-2.203,1.888-3.356,6.293-3.356h2.937c4.406,0,6.293,1.154,6.293,3.356v8.496   c0,2.203-1.888,3.356-6.293,3.356h-2.937C62.876,19.548,60.988,18.394,60.988,16.191z M60.988,31.715   c0-2.203,1.888-3.356,6.293-3.356h2.937c4.406,0,6.293,1.154,6.293,3.356v48.564c0,2.203-1.888,3.356-6.293,3.356h-2.937   c-4.405,0-6.293-1.154-6.293-3.356V31.715z"></path>
  <path fill="white" d="M92.495,79.02L92.6,78.6c-2.937-1.469-4.51-4.405-4.51-7.867c0-3.566,2.308-6.608,6.293-8.706   c-5.14-2.832-8.496-7.867-8.496-15.628c0-13.531,10.069-18.67,22.551-18.67c2.832,0,5.559,0.314,8.077,0.839h16.887   c2.203,0,3.147,1.573,3.147,5.245v1.783c0,3.461-0.839,4.93-2.518,4.93c-0.734,0-3.566-0.21-4.51-0.42l-0.209,0.42   c0.944,1.258,1.678,3.881,1.678,5.874c0,13.111-9.44,18.565-21.397,18.565c-4.3,0-6.398,0.944-6.398,2.832   c0,7.132,31.781-0.629,31.781,20.034c0,10.804-10.803,17.831-27.061,17.831c-16.887,0-24.963-4.93-24.963-14.475   C82.95,85.733,86.307,81.432,92.495,79.02z M109.067,93.389c7.237,0,10.804-1.993,10.804-5.14c0-3.251-4.196-4.405-16.153-5.244   c-3.671,1.259-5.664,3.566-5.664,5.664C98.054,91.502,101.306,93.389,109.067,93.389z M116.305,46.399   c0-5.244-3.566-7.447-7.867-7.447s-7.867,2.203-7.867,7.447c0,5.245,3.566,7.342,7.867,7.342S116.305,51.644,116.305,46.399z"></path>
  <path fill="white" d="M143.655,13.15c0-2.203,1.888-3.356,6.293-3.356h5.559c3.041,0,5.454,0.734,6.608,2.832l18.46,32.83l18.67-32.83   c1.154-2.098,3.566-2.832,6.608-2.832h5.454c4.405,0,6.293,1.154,6.293,3.356v67.129c0,2.203-1.888,3.356-6.293,3.356h-3.041   c-4.406,0-6.293-1.154-6.293-3.356V36.854l-0.419-0.105l-15.209,27.166c-0.944,1.259-2.203,1.993-4.196,1.993h-3.041   c-1.993,0-3.251-0.734-4.196-1.993l-15.209-27.166l-0.419,0.105v43.424c0,2.203-1.888,3.356-6.293,3.356h-3.041   c-4.405,0-6.293-1.154-6.293-3.356V13.15z"></path>
  <path fill="white" d="M257.515,49.441V45.98c0-3.986-2.412-5.978-8.181-5.978c-7.657,0-12.167,3.356-13.426,3.356   c-2.203,0-5.454-6.188-5.454-8.391c0-3.566,8.391-7.237,20.034-7.237c16.572,0,22.551,7.342,22.551,17.516v19.719   c0,10.804,1.258,13.006,1.258,15.209c0,2.517-9.125,3.356-11.748,3.356c-3.356,0-3.566-4.405-4.195-7.237   c-0.734,1.363-5.769,7.972-15.419,7.972c-11.328,0-15.523-6.713-15.523-15.314S230.874,49.441,257.515,49.441z M248.075,71.992   c3.986,0,7.762-2.832,9.44-6.608v-5.769c-9.964,0-14.684,2.727-14.684,7.762C242.831,69.999,244.614,71.992,248.075,71.992z"></path>
  <path fill="white" d="M284.562,47.029c0-10.489-1.258-12.691-1.258-14.79c0-2.517,9.125-3.356,11.748-3.356c3.356,0,3.566,4.196,4.196,6.818   c2.202-3.986,5.349-7.971,11.433-7.971c5.14,0,5.978,3.566,5.978,5.664c0,1.993-1.153,8.811-3.252,8.811   c-1.468,0-2.832-0.839-4.93-0.839c-4.3,0-7.132,3.147-8.391,5.245v33.669c0,2.203-1.888,3.356-6.293,3.356h-2.937   c-4.405,0-6.293-1.154-6.293-3.356V47.029z"></path>
  <path fill="white" d="M322.561,7.695c0-2.203,1.888-3.356,6.293-3.356h2.938c4.405,0,6.293,1.154,6.293,3.356v41.536l0.42,0.105l12.691-18.985   c1.259-1.783,3.356-1.993,6.398-1.993h3.881c3.985,0,5.873,0.629,5.873,1.574c0,0.524-0.314,1.258-0.943,2.098l-14.58,20.768   l17.097,27.061c0.524,0.944,0.84,1.574,0.84,2.203c0,0.944-1.889,1.574-5.98,1.574h-4.405c-3.041,0-5.349-0.42-6.293-1.993   l-14.579-24.124l-0.42,0.105v22.656c0,2.203-1.888,3.356-6.293,3.356h-2.938c-4.405,0-6.293-1.154-6.293-3.356V7.695z"></path>
  <path fill="white" d="M396.662,27.729c16.468,0,22.656,12.481,22.656,27.061c0,1.783-3.986,6.188-5.35,6.188h-26.747   c0.734,8.391,5.245,11.013,12.062,11.013c6.608,0,11.223-3.251,12.691-3.251c2.308,0,5.454,5.874,5.454,7.972   c0,5.245-13.006,7.552-18.88,7.552c-18.984,0-27.376-11.014-27.376-27.901C371.174,35.7,381.663,27.729,396.662,27.729z    M404.214,50.595c0-6.083-2.308-10.594-7.552-10.594c-4.405,0-8.182,2.517-9.44,10.594H404.214z"></path>
  <path fill="white" d="M427.903,47.029c0-10.489-1.259-12.691-1.259-14.79c0-2.517,9.126-3.356,11.748-3.356c3.356,0,3.566,4.196,4.195,6.818   c2.203-3.986,5.35-7.971,11.433-7.971c5.14,0,5.98,3.566,5.98,5.664c0,1.993-1.154,8.811-3.252,8.811   c-1.469,0-2.832-0.839-4.93-0.839c-4.301,0-7.133,3.147-8.392,5.245v33.669c0,2.203-1.888,3.356-6.293,3.356h-2.936   c-4.406,0-6.294-1.154-6.294-3.356V47.029z"></path>
</svg>