<svg id="Footer_Mockup" data-name="Footer Mockup" xmlns="http://www.w3.org/2000/svg" width="1400.91" height="441.97" viewBox="0 0 1400.91 441.97"><defs><style>.cls-1{fill:#dcf5ff;}.cls-2{fill:#fff;}.cls-3{fill:#6fd1d8;fill-opacity:0.5;}</style></defs><title>blue-background</title><g id="_Group_" data-name="&lt;Group&gt;"><g id="_Group_2" data-name="&lt;Group&gt;"><rect id="_Rectangle_" data-name="&lt;Rectangle&gt;" class="cls-1" width="1400.91" height="441.97"/><path id="_Path_" data-name="&lt;Path&gt;" class="cls-2" d="M3385,2332.88a45.74,45.74,0,0,0-21.65,5.42,84,84,0,1,0-164.57-30.52,54.7,54.7,0,0,0-67.94,66.69c-0.67-.05-1.34-0.1-2-0.1a25.21,25.21,0,0,0,0,50.43H3385A46,46,0,1,0,3385,2332.88Z" transform="translate(-3089.54 -1983.97)"/><path id="_Path_2" data-name="&lt;Path&gt;" class="cls-2" d="M4325.61,2120.78a23.45,23.45,0,0,0-3.87.35,50.14,50.14,0,1,0-93.15-35.47,41.78,41.78,0,1,0-11.61,81.92h108.64A23.4,23.4,0,0,0,4325.61,2120.78Z" transform="translate(-3089.54 -1983.97)"/><path id="_Path_3" data-name="&lt;Path&gt;" class="cls-2" d="M4459,2306.32a15.88,15.88,0,0,0-7.52,1.88,29.15,29.15,0,1,0-57.15-10.6,19,19,0,0,0-23.59,23.16c-0.23,0-.47,0-0.7,0a8.76,8.76,0,1,0,0,17.51h89A16,16,0,1,0,4459,2306.32Z" transform="translate(-3089.54 -1983.97)"/></g><path id="_Path_4" data-name="&lt;Path&gt;" class="cls-3" d="M3366,2107c5.63-9.7,26.92-9.67,26.92-9.67s-11.27-2.85-18.47,0c7.88-7.25,5.85-18.31.06-26.43-3.19-4.47-7.51-8-12-9.6-2.5,22.54-23.48,28.48-28.48,28.08s-6.26-7.95-17.11-7.95-16.28,10.43-17.11,12.73-5.66,3.09-6,3.16c0.23,0,2.09-.15,5.51,4q0.83,1.31,1.76,2.54c10.16,13.56,28.08,19.73,34.87,20.54,7.2,0.86,16.75-.7,27.86-7.12,6.52-3.76,17.84-10.64,29.11-13.15C3387.31,2101.41,3373.85,2103.29,3366,2107Z" transform="translate(-3089.54 -1983.97)"/></g></svg>