<?xml version="1.0" encoding="UTF-8" standalone="no"?>
<svg width="162px" height="204px" viewBox="0 0 162 204" version="1.1" xmlns="http://www.w3.org/2000/svg" xmlns:xlink="http://www.w3.org/1999/xlink">
    <!-- Generator: Sketch 3.7 (28169) - http://www.bohemiancoding.com/sketch -->
    <title>Logo Tight</title>
    <desc>Created with Sketch.</desc>
    <defs></defs>
    <g id="Page-1" stroke="none" stroke-width="1" fill="none" fill-rule="evenodd">
        <g id="Logo-Tight">
            <g id="Group" transform="translate(0.000000, -101.000000)">
                <path d="M134.723544,236.723544 C171.092152,200.354936 171.092152,140.923309 134.723544,104.554701 C132.062426,101.893583 128.07075,101.893583 125.409632,104.554701 L113.878123,116.086211 C112.991083,116.97325 111.660525,116.97325 110.329966,116.086211 C97.0243775,105.88526 79.7271128,100.563025 61.0992893,102.337103 C29.6093971,105.88526 3.8852599,131.609397 0.337103038,163.099289 C-1.43697539,181.727113 3.8852599,199.024377 14.0862109,212.329966 C14.9732501,213.217005 14.9732501,214.991083 14.0862109,215.878123 L2.55470108,227.409632 C1.22414225,228.740191 0.780622646,230.51427 0.780622646,232.288348 C0.780622646,234.062426 1.66766186,235.836505 2.55470108,237.167064 C18.0778873,252.69025 38.0362697,262.004162 59.3252108,264.22176 C60.6557697,264.22176 61.5428089,265.552319 61.5428089,266.882877 L61.5428089,276.196789 C61.5428089,277.527348 60.6557697,278.414387 59.3252108,278.857907 C45.576103,280.188466 35.8186716,285.510701 35.8186716,291.276456 C35.8186716,298.37277 50.4548187,304.138524 68.195603,304.138524 C85.9363873,304.138524 100.572534,298.37277 100.572534,291.276456 C100.572534,285.510701 90.815103,280.631985 77.0659951,278.857907 C75.7354363,278.857907 74.8483971,277.527348 74.8483971,276.196789 L74.8483971,266.882877 C74.8483971,265.552319 75.7354363,264.22176 77.0659951,264.22176 C98.7984559,261.560642 119.200358,252.24673 134.723544,236.723544 L134.723544,236.723544 Z M26.9482795,224.748515 C40.2538677,234.949466 57.5511324,240.271701 76.1789559,238.497623 C107.668848,234.949466 133.392985,209.668848 136.497623,178.178956 C138.271701,159.551132 132.949466,142.253868 122.748515,128.948279 C121.861476,128.06124 121.861476,126.287162 122.748515,125.400123 L127.62723,120.521407 C128.51427,119.634368 130.731868,119.634368 131.618907,120.521407 C160.447681,157.333534 152.907848,214.104044 108.112368,240.271701 C101.903093,243.819858 95.6938187,246.480976 89.0410246,248.255054 C63.3168873,254.464328 38.0362697,248.698574 18.9649266,233.618907 C17.6343677,232.731868 17.6343677,230.957789 18.9649266,229.62723 L23.4001226,224.748515 C24.2871618,223.861476 25.6177207,223.861476 26.9482795,224.748515 L26.9482795,224.748515 Z" id="Shape" fill="#E04A30"></path>
                <text id="e" font-family="Pacifico-Regular, Pacifico" font-size="160" font-weight="normal" fill="#FFFFFF">
                    <tspan x="30" y="208">e</tspan>
                </text>
            </g>
        </g>
    </g>
</svg>