<svg xmlns="http://www.w3.org/2000/svg" viewBox="0 0 128 188"><defs><style>.cls-1,.cls-5{isolation:isolate;}.cls-2{fill:#cdedfd;opacity:0.75;mix-blend-mode:multiply;}.cls-3,.cls-5{fill:#fff;}.cls-4{fill:#e04a30;}.cls-5{font-size:85.85px;font-family:Pacifico;}</style></defs><title>gem-flag</title><g class="cls-1"><g id="Header"><g id="Logo"><g id="_Group_" data-name="&lt;Group&gt;"><g id="_Group_2" data-name="&lt;Group&gt;"><polygon id="_Path_" data-name="&lt;Path&gt;" class="cls-2" points="128 188 63.33 158 0 188 0 4 128 4 128 188"/></g><polygon id="_Path_2" data-name="&lt;Path&gt;" class="cls-3" points="128 178 63.33 148 0 178 0 0 128 0 128 178"/></g><g id="Page-1"><g id="Logo-2" data-name="Logo"><path id="Shape" class="cls-4" d="M1797.67,95.06a50.27,50.27,0,0,0,0-70.92,3.45,3.45,0,0,0-5,0l-6.19,6.19a1.44,1.44,0,0,1-1.9,0,36.83,36.83,0,0,0-59,25.23A37.32,37.32,0,0,0,1732.94,82a1.45,1.45,0,0,1,0,1.9l-6.19,6.19a3.58,3.58,0,0,0-1,2.62,5,5,0,0,0,1,2.62,50.27,50.27,0,0,0,30.46,14.52,1.33,1.33,0,0,1,1.19,1.43v5a1.51,1.51,0,0,1-1.19,1.43c-7.38.71-12.61,3.57-12.61,6.66,0,3.81,7.85,6.9,17.37,6.9s17.37-3.09,17.37-6.9c0-3.09-5.24-5.71-12.61-6.66a1.33,1.33,0,0,1-1.19-1.43v-5a1.33,1.33,0,0,1,1.19-1.43,52.54,52.54,0,0,0,30.94-14.75h0Zm-57.83-6.43A37.32,37.32,0,0,0,1766.26,96c16.9-1.9,30.7-15.47,32.37-32.37a37.32,37.32,0,0,0-7.38-26.42,1.45,1.45,0,0,1,0-1.9l2.62-2.62a1.78,1.78,0,0,1,2.14,0A43.31,43.31,0,0,1,1783.39,97a42.47,42.47,0,0,1-10.23,4.28c-13.8,3.33-27.37.24-37.6-7.85a1.33,1.33,0,0,1,0-2.14l2.38-2.62a1.44,1.44,0,0,1,1.9,0h0Z" transform="translate(-1699.11 -4)"/><g id="e" class="cls-1"><text class="cls-5" transform="translate(42.37 75.65)">e</text></g></g></g></g></g></g></svg>