<?xml version="1.0" encoding="utf-8"?>
<!-- Generator: Adobe Illustrator 19.2.1, SVG Export Plug-In . SVG Version: 6.00 Build 0)  -->
<svg version="1.1" id="Layer_1" xmlns="http://www.w3.org/2000/svg" xmlns:xlink="http://www.w3.org/1999/xlink" x="0px" y="0px"
	 viewBox="0 0 128 188" style="enable-background:new 0 0 128 188;" xml:space="preserve">
<style type="text/css">
	.st0{opacity:0.75;fill:#CDEDFD;enable-background:new    ;}
	.st1{fill:#FFFFFF;}
	.st2{fill:#E04A30;}
	.st3{enable-background:new    ;}
</style>
<title>gem-flag</title>
<g>
	<g id="Header">
		<g id="Logo">
			<g id="_Group_">
				<g id="_Group_2">
					<polygon id="_Path_" class="st0" points="128,188 63.3,158 0,188 0,4 128,4 					"/>
				</g>
				<polygon id="_Path_2" class="st1" points="128,178 63.3,148 0,178 0,0 128,0 				"/>
			</g>
			<g id="Page-1">
				<g id="Logo-2">
					<path id="Shape" class="st2" d="M98.6,91.1c19.5-19.6,19.5-51.3,0-70.9c-1.3-1.4-3.5-1.4-4.9-0.1c0,0-0.1,0.1-0.1,0.1l-6.2,6.2
						c-0.5,0.5-1.4,0.5-1.9,0C69.3,14,46.2,17,33.8,33.2c-4.1,5.3-6.6,11.7-7.4,18.4c-1,9.4,1.6,18.9,7.4,26.4
						c0.5,0.5,0.5,1.4,0,1.9l-6.2,6.2c-0.7,0.7-1,1.6-1,2.6c0.1,1,0.4,1.9,1,2.6c8.2,8.2,18.9,13.3,30.5,14.5
						c0.7,0.1,1.2,0.7,1.2,1.4v5c0,0.7-0.5,1.3-1.2,1.4c-7.4,0.7-12.6,3.6-12.6,6.7c0,3.8,7.8,6.9,17.4,6.9s17.4-3.1,17.4-6.9
						c0-3.1-5.2-5.7-12.6-6.7c-0.7-0.1-1.2-0.7-1.2-1.4v-5c-0.1-0.7,0.5-1.4,1.2-1.4C79.3,104.5,90.2,99.3,98.6,91.1L98.6,91.1
						L98.6,91.1z M40.7,84.6c7.6,5.7,17,8.4,26.4,7.4c16.9-1.9,30.7-15.5,32.4-32.4c1-9.4-1.7-18.9-7.4-26.4c-0.5-0.5-0.5-1.4,0-1.9
						l2.6-2.6c0.6-0.5,1.5-0.5,2.1,0c14.7,18.8,11.4,46.1-7.4,60.8c-1.7,1.3-3.4,2.5-5.2,3.5c-3.2,1.9-6.6,3.3-10.2,4.3
						c-13.8,3.3-27.4,0.2-37.6-7.8c-0.6-0.4-0.7-1.3-0.3-1.9c0.1-0.1,0.2-0.2,0.3-0.3l2.4-2.6C39.4,84.2,40.2,84.2,40.7,84.6
						L40.7,84.6L40.7,84.6z"/>
					<g id="e">
						<g class="st3">
							<path class="st1" d="M61.9,75.6c-2.6,0-4.9-0.5-6.9-1.4s-3.6-2.2-4.9-3.8c-1.3-1.6-2.3-3.5-3-5.6c-0.7-2.1-1-4.3-1-6.6
								c0-1.6,0.2-3.2,0.5-5c0.3-1.7,0.8-3.5,1.4-5.1s1.4-3.3,2.4-4.8c0.9-1.5,2.1-2.9,3.3-4c1.3-1.2,2.7-2.1,4.3-2.8
								c1.6-0.7,3.3-1,5.3-1c1.6,0,3,0.3,4.4,0.8c1.3,0.5,2.5,1.2,3.5,2.1c1,0.9,1.8,2,2.3,3.3c0.6,1.3,0.8,2.7,0.8,4.3
								c0,1.7-0.4,3.5-1.3,5.2c-0.9,1.7-2,3.4-3.5,4.9c-1.5,1.5-3.3,2.9-5.4,4.1c-2.1,1.2-4.3,2.1-6.8,2.8c0.4,0.8,0.8,1.4,1.2,1.9
								c0.4,0.5,0.8,0.9,1.2,1.2c0.4,0.3,0.9,0.5,1.3,0.6c0.5,0.1,1,0.2,1.5,0.2c1.7,0,3.4-0.3,5.3-1c1.9-0.7,3.7-1.5,5.4-2.5
								c1.8-1,3.4-2.1,5-3.3s2.9-2.3,4-3.4l5.4,5.6c-2.5,2.5-5.1,4.8-7.8,6.7c-1.2,0.8-2.5,1.7-3.9,2.5c-1.4,0.8-2.8,1.5-4.4,2.2
								c-1.5,0.6-3.1,1.1-4.7,1.5C65.2,75.5,63.6,75.6,61.9,75.6z M56.3,55.9c1,0,2.1-0.3,3.3-0.8c1.2-0.5,2.3-1.2,3.3-2
								c1-0.8,1.9-1.7,2.6-2.6s1-1.9,1-2.8c0-1.3-0.2-2.3-0.7-3.1c-0.5-0.8-1-1.2-1.7-1.2c-1.2,0-2.2,0.2-3.1,0.7
								c-0.9,0.4-1.6,1-2.1,1.7c-0.6,0.7-1,1.5-1.4,2.4c-0.4,0.9-0.6,1.8-0.8,2.7s-0.3,1.8-0.4,2.7C56.4,54.6,56.3,55.3,56.3,55.9z"
								/>
						</g>
					</g>
				</g>
			</g>
		</g>
	</g>
</g>
</svg>
