<svg xmlns="http://www.w3.org/2000/svg" width="1453.22" height="658" viewBox="0 0 1453.22 658"><defs><style>.a{isolation:isolate;}.b{fill:#dcf5ff;}.c,.t{opacity:0.5;}.c,.d,.g{mix-blend-mode:multiply;}.d{opacity:0.3;}.e{fill:#ef5950;}.f{fill:#e0d2bd;}.g{opacity:0.25;}.h{fill:none;}.i{fill:#d1eda9;}.j{fill:#fff0cf;}.k{fill:#6fd1d8;}.l{fill:#fff;}.m{fill:#eae0d3;}.n{fill:#c1ad8b;}.o{fill:#fffaf0;}.p{fill:#8cb257;}.q{fill:#754c24;}.r{fill:#b0d66e;}.s{fill:#9fc95d;}</style></defs><title>GEMconf-SF-Header</title><g class="a"><rect class="b" width="1453.22" height="658"/><g class="c"><path class="b" d="M5424.59,921.41a773.29,773.29,0,0,0-1187.47,114.28q-7.45,11-14.51,22.31h220.08C4551.74,942.26,4706.43,870,4878,870s326.26,72.26,435.31,188h220.08q-7.07-11.28-14.51-22.31A777.69,777.69,0,0,0,5424.59,921.41Z" transform="translate(-4136.31 -400)"/></g><g class="d"><path class="b" d="M5229.14,947.27a627.65,627.65,0,0,0-795.2,76.67q-16.42,16.42-31.63,34.06h40.38C4551.74,942.26,4706.43,870,4878,870s326.26,72.26,435.31,188h40.38q-15.19-17.61-31.63-34.06A632.38,632.38,0,0,0,5229.14,947.27Z" transform="translate(-4136.31 -400)"/></g><rect class="e" x="5348.43" y="846.48" width="12" height="210" transform="translate(4347.11 4999.46) rotate(-135.2)"/><rect class="e" x="5428.63" y="867.49" width="4.5" height="14" transform="translate(4532.06 4921.71) rotate(-135.2)"/><rect class="e" x="5149.28" y="717.45" width="12" height="210" transform="translate(5262.68 3462.87) rotate(-153.44)"/><rect class="e" x="5201.53" y="718.39" width="4.5" height="14" transform="translate(5397.97 3300.69) rotate(-153.44)"/><path class="e" d="M5339.22,1014.94c-23.83-35-72-77.15-125.63-110.1-83.19-51.1-148.56-62.92-188.75-63.84l0.32-14c75.94,1.74,148.37,36.8,195.75,65.91,55.23,33.92,105,77.66,129.87,114.15Z" transform="translate(-4136.31 -400)"/><path class="e" d="M5404,1031a3,3,0,0,1-2.08-.84c-26.83-25.87-14.26-93.15,14.77-141.46a196.67,196.67,0,0,1-78.11,29.21c-34.62,4.92-67.31-.75-92-16-22.29-13.72-38-34.48-46.56-61.7-8.85-28-9.92-62.24-3.21-101.94-49.09,50.84-105.23,99.55-159.69,99.55a88.12,88.12,0,0,1-12.48-.88,3,3,0,1,1,.85-5.94c58.17,8.31,120.55-48,173.9-104.1a3,3,0,0,1,5.12,2.65c-8.44,42.93-8,79.55,1.24,108.85,8.16,25.81,23,45.46,44,58.4,23.55,14.49,54.82,19.87,88.06,15.14a189.47,189.47,0,0,0,88.43-37.34,3,3,0,0,1,4.27,4.13c-33,45.43-51.21,121.17-24.35,147.08A3,3,0,0,1,5404,1031Z" transform="translate(-4136.31 -400)"/><path class="e" d="M5307,964.5a3,3,0,0,1-2.06-5.18l54-50.83a3,3,0,0,1,4.11,4.37l-54,50.83A3,3,0,0,1,5307,964.5Z" transform="translate(-4136.31 -400)"/><path class="e" d="M5272.33,939.33a3,3,0,0,1-2.33-4.88l17.17-21.33a3,3,0,0,1,4.67,3.76l-17.17,21.33A3,3,0,0,1,5272.33,939.33Z" transform="translate(-4136.31 -400)"/><path class="e" d="M5230,909a3,3,0,0,1-2.46-4.71l9-13a3,3,0,1,1,4.93,3.42l-9,13A3,3,0,0,1,5230,909Z" transform="translate(-4136.31 -400)"/><path class="e" d="M5194.67,885a3,3,0,0,1-2.71-4.29l12.83-27a3,3,0,0,1,5.42,2.58l-12.83,27A3,3,0,0,1,5194.67,885Z" transform="translate(-4136.31 -400)"/><path class="e" d="M5164.67,865a3,3,0,0,1-2.71-4.29l30.33-63.5a3,3,0,1,1,5.41,2.59l-30.33,63.5A3,3,0,0,1,5164.67,865Z" transform="translate(-4136.31 -400)"/><path class="e" d="M5116.5,846.5a3,3,0,0,1-2.66-4.39l33.5-64a3,3,0,0,1,5.32,2.78l-33.5,64A3,3,0,0,1,5116.5,846.5Z" transform="translate(-4136.31 -400)"/><path class="e" d="M5091,838.5a3,3,0,0,1-2.62-4.46l12-21.5a3,3,0,0,1,5.24,2.92l-12,21.5A3,3,0,0,1,5091,838.5Z" transform="translate(-4136.31 -400)"/><path class="e" d="M5343.5,1006a3,3,0,0,1-2.05-5.19l64.5-60.5a3,3,0,1,1,4.11,4.38l-64.5,60.5A3,3,0,0,1,5343.5,1006Z" transform="translate(-4136.31 -400)"/><rect class="f" x="4997.12" y="816.2" width="38.09" height="73.98" transform="translate(5586.54 2386.31) rotate(-167.32)"/><rect class="f" x="4408.58" y="970.11" width="28.67" height="85.36" transform="translate(4608.37 -769.32) rotate(149.37)"/><rect class="f" x="4484.84" y="877.06" width="46.46" height="122.57" transform="translate(4728.87 -951.22) rotate(149.37)"/><rect class="f" x="4472.18" y="928.61" width="28.67" height="85.36" transform="translate(4705.54 -878.95) rotate(149.37)"/><rect class="f" x="4462.51" y="958.28" width="25.7" height="64.02" transform="translate(4694.48 -837.92) rotate(149.37)"/><rect class="f" x="4425.15" y="941.92" width="37.56" height="99.23" transform="translate(4636.65 -819.58) rotate(149.37)"/><rect class="f" x="4572.71" y="845.77" width="32.62" height="96.87" transform="translate(4863.57 -1055.96) rotate(149.61)"/><rect class="f" x="4590.73" y="850.24" width="28.67" height="84.02" transform="translate(4892.45 -1067.72) rotate(149.61)"/><rect class="f" x="4599.64" y="853.94" width="34.6" height="74.13" transform="matrix(-0.86, 0.51, -0.51, -0.86, 4913.96, -1076.04)"/><rect class="f" x="4677.42" y="783.01" width="33.63" height="120.59" transform="translate(5186.44 -707.26) rotate(155.86)"/><rect class="f" x="4661.75" y="820.67" width="35.58" height="90.94" transform="translate(5167.68 -657.58) rotate(155.86)"/><rect class="f" x="4673.5" y="811.05" width="31.67" height="95.92" transform="translate(5183.49 -675.2) rotate(155.86)"/><rect class="f" x="4836.99" y="768.73" width="41.52" height="119.6" transform="translate(5579.19 1257.06) rotate(-180)"/><rect class="f" x="4816.23" y="807.28" width="27.68" height="81.05" transform="translate(5523.84 1295.61) rotate(-180)"/><rect class="f" x="4785.59" y="814.38" width="34.6" height="89.95" transform="translate(5469.47 1318.72) rotate(-180)"/><rect class="f" x="4936.94" y="831.22" width="18.6" height="55.39" transform="translate(5629.9 1862.81) rotate(-173.61)"/><rect class="f" x="4924.7" y="843.63" width="16.68" height="41.54" transform="translate(5602.97 1872.29) rotate(-173.61)"/><rect class="f" x="4904.09" y="820.58" width="24.37" height="64.39" transform="translate(5570.83 1847.24) rotate(-173.61)"/><rect class="f" x="4980.53" y="836.01" width="16.3" height="46.97" transform="translate(5525.44 2405.8) rotate(-167.16)"/><rect class="f" x="4970.97" y="848.54" width="10.87" height="31.83" transform="matrix(-0.98, -0.22, 0.22, -0.98, 5500.09, 2412.88)"/><rect class="f" x="4958.2" y="848.85" width="13.59" height="35.32" transform="translate(5477.09 2414.39) rotate(-167.16)"/><g class="g"><path class="f" d="M4514,903l-27.33,16.33,32,54-12,8s-10-6.33-17.33,0c-18.67-22-55.33,6-39.33,31.33,2,2-6.33,4.33-6.33,4.33-8.33-22.33-29.33-32.33-48.67-24.33l14.33,34,18.67,24.67,131-80.67Z" transform="translate(-4136.31 -400)"/></g><g class="g"><polygon class="f" points="415.69 464 439.36 450.67 446.02 461 450.36 459 465.02 486.33 481.02 478.33 476.69 470.33 480.02 456.67 505.69 504 490.36 535 454.36 532.67 415.69 464"/></g><g class="g"><polygon class="f" points="513.69 442.33 521.69 445.67 542.36 484 537.69 449 524.69 419.67 529.36 416.67 547.69 432.67 549.36 510.67 513.69 442.33"/></g><g class="g"><polygon class="f" points="649.19 443 658.36 435 674.36 441 689.69 430.67 706.36 437.67 720.36 428.33 742.19 435 740.69 456 649.69 469.5 649.19 443"/></g><g class="g"><polygon class="f" points="769.69 445.67 775.69 446 776.69 438.67 793.02 440 789.02 466.67 766.36 464.67 769.69 445.67"/></g><g class="g"><polyline class="f" points="831.21 450.43 838.02 451 835.69 477.33 824.53 476.37 831.21 450.43"/></g><g class="g"><polygon class="f" points="803.02 441.33 821.02 443.33 820.36 457.67 801.02 454.33 803.02 441.33"/></g><path class="h" d="M4166.47,400v658h276.22C4551.74,942.26,4706.43,870,4878,870s326.26,72.26,435.31,188h274.77V400H4166.47Z" transform="translate(-4136.31 -400)"/><path class="i" d="M4878,870c-171.57,0-326.26,72.26-435.31,188h870.62C5204.26,942.26,5049.57,870,4878,870Z" transform="translate(-4136.31 -400)"/><path class="j" d="M4454.5,1056c225-47,306-94.5,368-129,87.65-48.78,163.82-62.05,280.47-13.31C5111,917.19,4544.5,1065,4454.5,1056Z" transform="translate(-4136.31 -400)"/><path class="k" d="M5112.9,917.9c-72.11-30.83-188.8-30.79-286,28.68-99.78,61.06-270.45,93-382.21,111.42h868.61A599.28,599.28,0,0,0,5112.9,917.9Z" transform="translate(-4136.31 -400)"/><g class="g"><path class="k" d="M4563.33,1058c4.72,0,161.17-18.5,258.67-74.5,132.33-76,229.85-78.49,327.13-48.64q-17.78-9.06-36.23-17c-72.11-30.83-188.8-30.79-286,28.68-0.9.58-1.88,1.17-2.93,1.76-100,59.82-268.09,91.28-378.77,109.58l-0.22.08h118.33Z" transform="translate(-4136.31 -400)"/></g><path class="l" d="M5205.4,990.91c-10.35-5.38-13.86-11-15-12.95-3.66,2.89-14.07,4.7-17.1,4.38,7.58,1,11.71.29,16.68-.35C5192.81,984.33,5196.16,987.14,5205.4,990.91Z" transform="translate(-4136.31 -400)"/><path class="l" d="M5255.7,1032.69c-10.8-4.41-14.82-9.69-16.11-11.51-3.38,3.22-13.58,6-16.62,5.94,7.64,0.34,11.68-.79,16.57-1.88C5242.56,1027.29,5246.15,1029.77,5255.7,1032.69Z" transform="translate(-4136.31 -400)"/><path class="l" d="M5154.4,1001.85c-11-3.82-15.31-8.88-16.7-10.64-3.21,3.4-13.24,6.69-16.28,6.81,7.65-.07,11.62-1.41,16.45-2.76C5141,997.17,5144.7,999.46,5154.4,1001.85Z" transform="translate(-4136.31 -400)"/><path class="l" d="M5081.73,958.52c-11-3.82-15.31-8.88-16.7-10.64-3.21,3.4-13.24,6.69-16.28,6.81,7.65-.07,11.62-1.41,16.45-2.76C5068.32,953.83,5072,956.12,5081.73,958.52Z" transform="translate(-4136.31 -400)"/><polygon class="m" points="803.5 476.03 778.71 473.5 781.65 444.7 801.3 446.7 800.87 450.94 806 451.47 803.5 476.03"/><path class="n" d="M4939.81,877.53h-0.15L4914.87,875a1.5,1.5,0,0,1-1.34-1.64l2.94-28.8a1.5,1.5,0,0,1,.54-1,1.53,1.53,0,0,1,1.1-.33l19.65,2a1.5,1.5,0,0,1,1.34,1.64l-0.28,2.75,3.64,0.37a1.5,1.5,0,0,1,1.34,1.64l-2.51,24.56A1.5,1.5,0,0,1,4939.81,877.53Zm-23.14-5.37,21.8,2.22,2.2-21.58-3.64-.37a1.5,1.5,0,0,1-1.34-1.64L4936,848l-16.66-1.7Z" transform="translate(-4136.31 -400)"/><rect class="n" x="4919.9" y="848.02" width="1.01" height="10.66" transform="translate(-4024.27 -895.08) rotate(5.83)"/><rect class="n" x="4923.11" y="848.35" width="1.01" height="10.66" transform="translate(-4024.22 -895.4) rotate(5.83)"/><rect class="n" x="4926.33" y="848.67" width="1.01" height="10.66" transform="translate(-4024.17 -895.73) rotate(5.83)"/><rect class="n" x="4929.54" y="849" width="1.01" height="10.66" transform="translate(-4024.12 -896.05) rotate(5.83)"/><rect class="n" x="4932.76" y="849.33" width="1.01" height="10.66" transform="translate(-4024.07 -896.37) rotate(5.83)"/><rect class="n" x="4935.8" y="853.17" width="1.01" height="7.14" transform="translate(-4023.84 -896.67) rotate(5.83)"/><rect class="m" x="4735.44" y="798.23" width="31.7" height="97.72" transform="translate(-4202.36 739.5) rotate(-13.58)"/><path class="n" d="M4747.36,899.8a1.5,1.5,0,0,1-1.46-1.15l-22.95-95a1.5,1.5,0,0,1,1.11-1.81l30.81-7.45a1.5,1.5,0,0,1,1.81,1.11l22.95,95a1.5,1.5,0,0,1-1.11,1.81l-30.81,7.45A1.49,1.49,0,0,1,4747.36,899.8Zm-21.14-95.38,22.24,92.07,27.9-6.74-22.24-92.07Z" transform="translate(-4136.31 -400)"/><polygon class="f" points="623.31 414.62 603.19 419.48 588.45 403.09 618.75 395.77 623.31 414.62"/><path class="n" d="M4739.5,821a1.5,1.5,0,0,1-1.12-.5l-14.74-16.38a1.5,1.5,0,0,1,.76-2.46l30.3-7.32a1.5,1.5,0,0,1,1.81,1.11l4.55,18.85a1.5,1.5,0,0,1-1.11,1.81l-20.12,4.86A1.49,1.49,0,0,1,4739.5,821Zm-11.94-17L4740,817.81l17.79-4.3L4754,797.58Z" transform="translate(-4136.31 -400)"/><rect class="m" x="4731.4" y="830.31" width="29.34" height="67.33" transform="translate(-4206.48 738.75) rotate(-13.58)"/><path class="n" d="M4739.71,901.65a1.5,1.5,0,0,1-1.46-1.15l-15.81-65.45a1.5,1.5,0,0,1,1.11-1.81l28.52-6.89a1.5,1.5,0,0,1,1.81,1.11l15.81,65.45a1.5,1.5,0,0,1-1.11,1.81l-28.52,6.89A1.52,1.52,0,0,1,4739.71,901.65Zm-14-65.84,15.11,62.53,25.61-6.19-15.11-62.53Z" transform="translate(-4136.31 -400)"/><rect class="n" x="4732.24" y="863.56" width="5.63" height="1.7" transform="translate(-4206.89 736.18) rotate(-13.58)"/><rect class="n" x="4731.5" y="860.51" width="5.63" height="1.7" transform="translate(-4206.19 735.92) rotate(-13.58)"/><rect class="n" x="4730.77" y="857.45" width="5.63" height="1.7" transform="translate(-4205.49 735.66) rotate(-13.58)"/><rect class="n" x="4730.03" y="854.4" width="5.63" height="1.7" transform="translate(-4204.8 735.4) rotate(-13.58)"/><rect class="n" x="4729.29" y="851.34" width="5.63" height="1.7" transform="translate(-4204.1 735.14) rotate(-13.58)"/><rect class="n" x="4728.55" y="848.28" width="5.63" height="1.7" transform="translate(-4203.4 734.88) rotate(-13.58)"/><rect class="n" x="4727.81" y="845.23" width="5.63" height="1.7" transform="translate(-4202.7 734.62) rotate(-13.58)"/><rect class="n" x="4727.07" y="842.17" width="5.63" height="1.7" transform="translate(-4202.01 734.36) rotate(-13.58)"/><rect class="n" x="4726.34" y="839.12" width="5.63" height="1.7" transform="translate(-4201.31 734.11) rotate(-13.58)"/><rect class="n" x="4725.6" y="836.06" width="5.63" height="1.7" transform="translate(-4200.61 733.85) rotate(-13.58)"/><rect class="n" x="4740.14" y="861.66" width="5.63" height="1.7" transform="translate(-4206.22 737.98) rotate(-13.58)"/><rect class="n" x="4739.4" y="858.6" width="5.63" height="1.7" transform="translate(-4205.52 737.72) rotate(-13.58)"/><rect class="n" x="4738.66" y="855.55" width="5.63" height="1.7" transform="translate(-4204.82 737.46) rotate(-13.58)"/><rect class="n" x="4737.92" y="852.49" width="5.63" height="1.7" transform="translate(-4204.13 737.2) rotate(-13.58)"/><rect class="n" x="4737.18" y="849.43" width="5.63" height="1.7" transform="translate(-4203.43 736.94) rotate(-13.58)"/><rect class="n" x="4736.44" y="846.38" width="5.63" height="1.7" transform="translate(-4202.73 736.68) rotate(-13.58)"/><rect class="n" x="4735.71" y="843.32" width="5.63" height="1.7" transform="translate(-4202.04 736.42) rotate(-13.58)"/><rect class="n" x="4734.97" y="840.27" width="5.63" height="1.7" transform="matrix(0.97, -0.23, 0.23, 0.97, -4201.34, 736.17)"/><rect class="n" x="4734.23" y="837.21" width="5.63" height="1.7" transform="translate(-4200.64 735.91) rotate(-13.58)"/><rect class="n" x="4733.49" y="834.15" width="5.63" height="1.7" transform="translate(-4199.94 735.65) rotate(-13.58)"/><rect class="n" x="4755.41" y="890.31" width="5.63" height="1.7" transform="translate(-4212.52 742.37) rotate(-13.58)"/><rect class="n" x="4754.68" y="887.25" width="5.63" height="1.7" transform="translate(-4211.82 742.11) rotate(-13.58)"/><rect class="n" x="4753.94" y="884.2" width="5.63" height="1.7" transform="translate(-4211.13 741.85) rotate(-13.58)"/><rect class="n" x="4753.2" y="881.14" width="5.63" height="1.7" transform="translate(-4210.43 741.59) rotate(-13.58)"/><rect class="n" x="4752.46" y="878.09" width="5.63" height="1.7" transform="translate(-4209.73 741.33) rotate(-13.58)"/><rect class="n" x="4751.72" y="875.03" width="5.63" height="1.7" transform="translate(-4209.03 741.07) rotate(-13.58)"/><rect class="n" x="4750.98" y="871.97" width="5.63" height="1.7" transform="translate(-4208.34 740.81) rotate(-13.58)"/><rect class="n" x="4750.25" y="868.92" width="5.63" height="1.7" transform="translate(-4207.64 740.55) rotate(-13.58)"/><rect class="n" x="4749.51" y="865.86" width="5.63" height="1.7" transform="translate(-4206.94 740.3) rotate(-13.58)"/><rect class="n" x="4748.77" y="862.81" width="5.63" height="1.7" transform="translate(-4206.25 740.04) rotate(-13.58)"/><rect class="n" x="4748.03" y="859.75" width="5.63" height="1.7" transform="translate(-4205.55 739.78) rotate(-13.58)"/><rect class="n" x="4747.29" y="856.69" width="5.63" height="1.7" transform="matrix(0.97, -0.23, 0.23, 0.97, -4204.85, 739.52)"/><rect class="n" x="4746.55" y="853.64" width="5.63" height="1.7" transform="translate(-4204.16 739.26) rotate(-13.58)"/><rect class="n" x="4745.82" y="850.58" width="5.63" height="1.7" transform="translate(-4203.46 739) rotate(-13.58)"/><rect class="n" x="4745.08" y="847.53" width="5.63" height="1.7" transform="translate(-4202.76 738.74) rotate(-13.58)"/><rect class="n" x="4744.34" y="844.47" width="5.63" height="1.7" transform="translate(-4202.06 738.48) rotate(-13.58)"/><rect class="n" x="4743.6" y="841.41" width="5.63" height="1.7" transform="translate(-4201.37 738.22) rotate(-13.58)"/><rect class="n" x="4742.86" y="838.36" width="5.63" height="1.7" transform="translate(-4200.67 737.97) rotate(-13.58)"/><rect class="n" x="4742.12" y="835.3" width="5.63" height="1.7" transform="translate(-4199.97 737.71) rotate(-13.58)"/><rect class="n" x="4741.39" y="832.25" width="5.63" height="1.7" transform="translate(-4199.28 737.45) rotate(-13.58)"/><polygon class="m" points="504.29 442.61 486.91 451.76 484.22 470.54 517.12 533.05 552.52 514.41 519.62 451.91 504.29 442.61"/><path class="n" d="M4653.43,934.55a1.5,1.5,0,0,1-1.33-.8l-32.9-62.5a1.49,1.49,0,0,1-.16-0.91l2.69-18.78a1.5,1.5,0,0,1,.79-1.12l17.39-9.15a1.5,1.5,0,0,1,1.48,0l15.32,9.3a1.49,1.49,0,0,1,.55.58l32.9,62.5a1.5,1.5,0,0,1-.63,2l-35.4,18.63A1.5,1.5,0,0,1,4653.43,934.55Zm-31.35-64.27,32,60.75,32.74-17.24-32-60.81-14.24-8.64-16,8.4Z" transform="translate(-4136.31 -400)"/><polygon class="f" points="503.76 441.61 486.38 450.76 485.75 459.97 511.25 446.55 503.76 441.61"/><path class="n" d="M4622.06,861.47a1.5,1.5,0,0,1-1.5-1.6l0.63-9.21a1.5,1.5,0,0,1,.8-1.23l17.39-9.15a1.5,1.5,0,0,1,1.52.08l7.49,4.94a1.5,1.5,0,0,1-.13,2.58l-25.5,13.42A1.5,1.5,0,0,1,4622.06,861.47Zm2.07-9.77-0.39,5.7,20.88-11-4.63-3.06Z" transform="translate(-4136.31 -400)"/><rect class="f" x="4650.59" y="848.71" width="5.37" height="77.29" transform="translate(-4013.99 1869.69) rotate(-27.76)"/><path class="n" d="M4668.9,924.3a1.5,1.5,0,0,1-1.33-.8l-36-68.39a1.5,1.5,0,0,1,.63-2l4.75-2.5a1.5,1.5,0,0,1,2,.63l36,68.39a1.5,1.5,0,0,1-.63,2l-4.75,2.5A1.5,1.5,0,0,1,4668.9,924.3Zm-34-69.26,34.6,65.73,2.1-1.1L4637,853.94Z" transform="translate(-4136.31 -400)"/><rect class="f" x="4660.33" y="843.59" width="5.37" height="77.29" transform="translate(-4010.48 1873.63) rotate(-27.76)"/><path class="n" d="M4678.64,919.18a1.5,1.5,0,0,1-1.33-.8l-36-68.39a1.5,1.5,0,0,1,.63-2l4.75-2.5a1.5,1.5,0,0,1,2,.63l36,68.39a1.5,1.5,0,0,1-.63,2l-4.75,2.5A1.5,1.5,0,0,1,4678.64,919.18Zm-34-69.26,34.6,65.73,2.1-1.1-34.6-65.73Z" transform="translate(-4136.31 -400)"/><rect class="f" x="4640.85" y="853.84" width="5.37" height="77.29" transform="translate(-4017.49 1865.74) rotate(-27.76)"/><path class="n" d="M4659.16,929.43a1.5,1.5,0,0,1-1.33-.8l-36-68.39a1.5,1.5,0,0,1,.63-2l4.75-2.5a1.5,1.5,0,0,1,2,.63l36,68.39a1.5,1.5,0,0,1-.63,2l-4.75,2.5A1.5,1.5,0,0,1,4659.16,929.43Zm-34-69.26,34.6,65.73,2.1-1.1-34.6-65.73Z" transform="translate(-4136.31 -400)"/><rect class="m" x="4622.4" y="839.81" width="15.06" height="6.42" transform="translate(-3996.02 1853.71) rotate(-27.76)"/><path class="n" d="M4624.77,850.87a1.5,1.5,0,0,1-1.33-.8l-3-5.68a1.5,1.5,0,0,1,.63-2l13.33-7a1.5,1.5,0,0,1,2,.63l3,5.68a1.5,1.5,0,0,1-.63,2l-13.33,7A1.5,1.5,0,0,1,4624.77,850.87Zm-1-6.55,1.59,3,10.68-5.62-1.59-3Z" transform="translate(-4136.31 -400)"/><polygon class="m" points="523.36 527.81 494.15 543.18 468.95 495.31 466.48 495.13 465.93 494.09 498.85 476.76 499.4 477.8 498.16 479.94 523.36 527.81"/><path class="n" d="M4630.46,944.69a1.5,1.5,0,0,1-1.33-.8l-24.81-47.14-1.64-.12a1.5,1.5,0,0,1-1.22-.8l-0.55-1a1.5,1.5,0,0,1,.63-2l32.92-17.33a1.5,1.5,0,0,1,2,.63l0.55,1a1.5,1.5,0,0,1,0,1.45l-0.83,1.42L4661,927.11a1.5,1.5,0,0,1-.63,2l-29.21,15.38A1.5,1.5,0,0,1,4630.46,944.69Zm-24.66-50.77a1.49,1.49,0,0,1,.79.7l24.5,46.54,26.56-14-24.5-46.55a1.5,1.5,0,0,1-.13-1Z" transform="translate(-4136.31 -400)"/><line class="o" x1="481.12" y1="490.41" x2="505.81" y2="537.31"/><path class="n" d="M4642.12,938.81a1.5,1.5,0,0,1-1.33-.8l-24.69-46.9a1.5,1.5,0,1,1,2.65-1.4l24.69,46.9A1.5,1.5,0,0,1,4642.12,938.81Z" transform="translate(-4136.31 -400)"/><line class="o" x1="486.43" y1="487.62" x2="511.11" y2="534.51"/><path class="n" d="M4647.43,936a1.5,1.5,0,0,1-1.33-.8l-24.69-46.9a1.5,1.5,0,1,1,2.65-1.4l24.69,46.9A1.5,1.5,0,0,1,4647.43,936Z" transform="translate(-4136.31 -400)"/><line class="o" x1="492.62" y1="484.35" x2="517.31" y2="531.25"/><path class="n" d="M4653.62,932.75a1.5,1.5,0,0,1-1.33-.8l-24.69-46.9a1.5,1.5,0,1,1,2.65-1.4l24.69,46.9A1.5,1.5,0,0,1,4653.62,932.75Z" transform="translate(-4136.31 -400)"/><line class="o" x1="474.04" y1="494.14" x2="498.73" y2="541.04"/><path class="n" d="M4635,942.54a1.5,1.5,0,0,1-1.33-.8L4609,894.83a1.5,1.5,0,1,1,2.65-1.4l24.69,46.9A1.5,1.5,0,0,1,4635,942.54Z" transform="translate(-4136.31 -400)"/><line class="o" x1="468.94" y1="496.26" x2="499.02" y2="480.42"/><path class="n" d="M4605.25,897.76a1.5,1.5,0,0,1-.7-2.83l30.09-15.84a1.5,1.5,0,0,1,1.4,2.65l-30.09,15.84A1.5,1.5,0,0,1,4605.25,897.76Z" transform="translate(-4136.31 -400)"/><line class="o" x1="477.23" y1="507.71" x2="505.55" y2="492.81"/><path class="n" d="M4613.54,909.21a1.5,1.5,0,0,1-.7-2.83l28.32-14.91a1.5,1.5,0,1,1,1.4,2.65L4614.24,909A1.5,1.5,0,0,1,4613.54,909.21Z" transform="translate(-4136.31 -400)"/><line class="o" x1="483.8" y1="522.34" x2="513" y2="506.97"/><path class="n" d="M4620.11,923.84a1.5,1.5,0,0,1-.7-2.83l29.2-15.37a1.5,1.5,0,0,1,1.4,2.65l-29.2,15.37A1.5,1.5,0,0,1,4620.11,923.84Z" transform="translate(-4136.31 -400)"/><rect class="m" x="4755.57" y="821.08" width="28.82" height="70.74" transform="translate(-4204.04 744.16) rotate(-13.58)"/><path class="n" d="M4764.28,895.71a1.5,1.5,0,0,1-1.46-1.15l-16.61-68.76a1.5,1.5,0,0,1,1.11-1.81l28-6.77a1.5,1.5,0,0,1,1.81,1.11l16.61,68.76a1.5,1.5,0,0,1-1.11,1.81l-28,6.77A1.52,1.52,0,0,1,4764.28,895.71Zm-14.8-69.15,15.91,65.84,25.1-6.06-15.91-65.84Z" transform="translate(-4136.31 -400)"/><rect class="n" x="4779.87" y="826.12" width="2.31" height="62.85" transform="translate(-4203.99 746.78) rotate(-13.58)"/><rect class="n" x="4774.78" y="827.35" width="2.31" height="62.85" transform="translate(-4204.42 745.62) rotate(-13.58)"/><rect class="n" x="4769.69" y="828.58" width="2.31" height="62.85" transform="translate(-4204.85 744.46) rotate(-13.58)"/><rect class="n" x="4764.59" y="829.81" width="2.31" height="62.85" transform="translate(-4205.28 743.29) rotate(-13.58)"/><rect class="n" x="4759.5" y="831.04" width="2.31" height="62.85" transform="translate(-4205.71 742.13) rotate(-13.58)"/><rect class="m" x="4901.51" y="858.53" width="37.9" height="15.49" transform="translate(-4022.95 -895.01) rotate(5.83)"/><path class="n" d="M4938.53,877.4h-0.15l-37.7-3.85a1.5,1.5,0,0,1-1.34-1.64l1.57-15.41a1.5,1.5,0,0,1,1.64-1.34l37.7,3.85a1.5,1.5,0,0,1,1.34,1.64L4940,876A1.5,1.5,0,0,1,4938.53,877.4Zm-36.06-6.69,34.72,3.54,1.27-12.42-34.72-3.54Z" transform="translate(-4136.31 -400)"/><rect class="n" x="4929.35" y="867.08" width="9.87" height="5.95" transform="matrix(0.1, -0.99, 0.99, 0.1, -568.47, 5290.53)"/><rect class="n" x="4919.97" y="866.12" width="9.87" height="5.95" transform="translate(-575.94 5280.34) rotate(-84.17)"/><rect class="n" x="4910.59" y="865.16" width="9.87" height="5.95" transform="translate(-583.42 5270.15) rotate(-84.17)"/><rect class="n" x="4901.22" y="864.2" width="9.87" height="5.95" transform="translate(-590.89 5259.96) rotate(-84.17)"/><rect class="m" x="4940.05" y="849.03" width="26.1" height="28.28" transform="translate(-4023.1 -898.34) rotate(5.83)"/><path class="n" d="M4964.65,880.06h-0.15l-26-2.65a1.5,1.5,0,0,1-1.34-1.64l2.87-28.13a1.51,1.51,0,0,1,1.64-1.34l26,2.65a1.5,1.5,0,0,1,1.34,1.64l-2.87,28.13A1.5,1.5,0,0,1,4964.65,880.06Zm-24.32-5.49,23,2.34,2.57-25.15-23-2.34Z" transform="translate(-4136.31 -400)"/><rect class="n" x="4944.78" y="854.44" width="4.6" height="2.81" transform="translate(-4023.87 -897.77) rotate(5.83)"/><rect class="n" x="4958.18" y="855.81" width="4.6" height="2.81" transform="translate(-4023.67 -899.12) rotate(5.83)"/><rect class="n" x="4951.19" y="865.69" width="1.46" height="18.07" transform="translate(-557.28 5312.27) rotate(-84.17)"/><rect class="n" x="4951.56" y="862.12" width="1.46" height="18.07" transform="translate(-553.39 5309.43) rotate(-84.17)"/><rect class="n" x="4951.92" y="858.55" width="1.46" height="18.07" transform="translate(-549.51 5306.58) rotate(-84.17)"/><rect class="n" x="4952.29" y="854.97" width="1.46" height="18.07" transform="translate(-545.63 5303.73) rotate(-84.17)"/><rect class="n" x="4952.65" y="851.4" width="1.46" height="18.07" transform="translate(-541.75 5300.88) rotate(-84.17)"/><rect class="m" x="4534.38" y="868.66" width="45.62" height="14.99" transform="translate(-3985.06 1933.31) rotate(-29.18)"/><path class="n" d="M4540.93,895.32a1.5,1.5,0,0,1-1.31-.77l-7.31-13.08a1.5,1.5,0,0,1,.58-2l39.83-22.25a1.5,1.5,0,0,1,2,.58l7.31,13.08a1.5,1.5,0,0,1-.58,2l-39.83,22.25A1.5,1.5,0,0,1,4540.93,895.32Zm-5.27-14,5.84,10.47L4578.72,871l-5.84-10.47Z" transform="translate(-4136.31 -400)"/><rect class="m" x="4559.61" y="872.91" width="52.23" height="108.66" transform="translate(-4006.35 1953.71) rotate(-29.18)"/><path class="n" d="M4589.41,988.91a1.5,1.5,0,0,1-1.31-.77l-53-94.87a1.5,1.5,0,0,1,.58-2l45.6-25.47a1.5,1.5,0,0,1,2,.58l53,94.87a1.5,1.5,0,0,1-.58,2l-45.6,25.47A1.5,1.5,0,0,1,4589.41,988.91Zm-50.94-95.79L4590,985.37l43-24-51.52-92.25Z" transform="translate(-4136.31 -400)"/><rect class="n" x="4550.62" y="899.7" width="9.48" height="4.19" transform="translate(-3997.79 1935.67) rotate(-29.18)"/><rect class="n" x="4585.76" y="962.62" width="9.48" height="4.19" transform="translate(-4024.01 1960.79) rotate(-29.18)"/><rect class="n" x="4581.37" y="954.75" width="9.48" height="4.19" transform="translate(-4020.74 1957.65) rotate(-29.18)"/><rect class="n" x="4576.97" y="946.89" width="9.48" height="4.19" transform="translate(-4017.46 1954.51) rotate(-29.18)"/><rect class="n" x="4572.58" y="939.02" width="9.48" height="4.19" transform="translate(-4014.18 1951.37) rotate(-29.18)"/><rect class="n" x="4568.19" y="931.16" width="9.48" height="4.19" transform="translate(-4010.9 1948.23) rotate(-29.18)"/><rect class="n" x="4563.8" y="923.29" width="9.48" height="4.19" transform="translate(-4007.63 1945.09) rotate(-29.18)"/><rect class="n" x="4559.4" y="915.43" width="9.48" height="4.19" transform="translate(-4004.35 1941.95) rotate(-29.18)"/><rect class="n" x="4555.01" y="907.56" width="9.48" height="4.19" transform="translate(-4001.07 1938.81) rotate(-29.18)"/><rect class="n" x="4575.25" y="885.94" width="9.48" height="4.19" transform="translate(-3987.96 1945.93) rotate(-29.18)"/><rect class="n" x="4610.39" y="948.86" width="9.48" height="4.19" transform="translate(-4014.18 1971.06) rotate(-29.18)"/><rect class="n" x="4606" y="941" width="9.48" height="4.19" transform="translate(-4010.9 1967.92) rotate(-29.18)"/><rect class="n" x="4601.6" y="933.13" width="9.48" height="4.19" transform="translate(-4007.63 1964.77) rotate(-29.18)"/><rect class="n" x="4597.21" y="925.27" width="9.48" height="4.19" transform="translate(-4004.35 1961.63) rotate(-29.18)"/><rect class="n" x="4592.82" y="917.4" width="9.48" height="4.19" transform="translate(-4001.07 1958.49) rotate(-29.18)"/><rect class="n" x="4588.43" y="909.54" width="9.48" height="4.19" transform="translate(-3997.79 1955.35) rotate(-29.18)"/><rect class="n" x="4584.03" y="901.67" width="9.48" height="4.19" transform="translate(-3994.52 1952.21) rotate(-29.18)"/><rect class="n" x="4579.64" y="893.81" width="9.48" height="4.19" transform="translate(-3991.24 1949.07) rotate(-29.18)"/><rect class="m" x="4517.6" y="908.39" width="39.76" height="89.6" transform="translate(-4012.74 1972.57) rotate(-29.69)"/><path class="n" d="M4542.4,1003.45a1.48,1.48,0,0,1-.4-0.05,1.5,1.5,0,0,1-.91-0.7l-44.38-77.84a1.5,1.5,0,0,1,.56-2l34.54-19.69a1.5,1.5,0,0,1,2,.56l44.38,77.84a1.5,1.5,0,0,1-.56,2l-34.54,19.69A1.49,1.49,0,0,1,4542.4,1003.45Zm-42.33-78.78L4543,999.91l31.94-18.21L4532,906.46Z" transform="translate(-4136.31 -400)"/><rect class="n" x="4508.71" y="920.69" width="1.67" height="6.19" transform="translate(-4001.84 1954.88) rotate(-29.69)"/><rect class="n" x="4512.75" y="918.38" width="1.67" height="6.19" transform="translate(-4000.17 1956.58) rotate(-29.69)"/><rect class="n" x="4524.88" y="911.47" width="1.67" height="6.19" transform="translate(-3995.16 1961.68) rotate(-29.69)"/><rect class="n" x="4520.84" y="913.77" width="1.67" height="6.19" transform="translate(-3996.83 1959.98) rotate(-29.69)"/><rect class="n" x="4516.79" y="916.08" width="1.67" height="6.19" transform="translate(-3998.5 1958.28) rotate(-29.69)"/><rect class="n" x="4548.5" y="992.56" width="1.67" height="2.01" transform="translate(-4031.18 1983.74) rotate(-29.69)"/><rect class="n" x="4552.54" y="990.25" width="1.67" height="2.01" transform="translate(-4029.51 1985.44) rotate(-29.69)"/><rect class="n" x="4564.66" y="983.34" width="1.67" height="2.01" transform="translate(-4024.5 1990.54) rotate(-29.69)"/><rect class="n" x="4560.62" y="985.64" width="1.67" height="2.01" transform="translate(-4026.17 1988.84) rotate(-29.69)"/><rect class="n" x="4556.58" y="987.95" width="1.67" height="2.01" transform="translate(-4027.84 1987.14) rotate(-29.69)"/><rect class="n" x="4543.49" y="983.78" width="1.67" height="2.01" transform="translate(-4027.49 1980.11) rotate(-29.69)"/><rect class="n" x="4547.53" y="981.48" width="1.67" height="2.01" transform="translate(-4025.82 1981.81) rotate(-29.69)"/><rect class="n" x="4559.66" y="974.56" width="1.67" height="2.01" transform="translate(-4020.81 1986.91) rotate(-29.69)"/><rect class="n" x="4555.62" y="976.87" width="1.67" height="2.01" transform="translate(-4022.48 1985.21) rotate(-29.69)"/><rect class="n" x="4551.58" y="979.17" width="1.67" height="2.01" transform="translate(-4024.15 1983.51) rotate(-29.69)"/><rect class="n" x="4538.49" y="975" width="1.67" height="2.01" transform="translate(-4023.8 1976.48) rotate(-29.69)"/><rect class="n" x="4542.53" y="972.7" width="1.67" height="2.01" transform="translate(-4022.13 1978.18) rotate(-29.69)"/><rect class="n" x="4554.66" y="965.79" width="1.67" height="2.01" transform="translate(-4017.12 1983.28) rotate(-29.69)"/><rect class="n" x="4550.61" y="968.09" width="1.67" height="2.01" transform="translate(-4018.79 1981.58) rotate(-29.69)"/><rect class="n" x="4546.57" y="970.4" width="1.67" height="2.01" transform="translate(-4020.46 1979.88) rotate(-29.69)"/><rect class="n" x="4533.48" y="966.23" width="1.67" height="2.01" transform="translate(-4020.11 1972.85) rotate(-29.69)"/><rect class="n" x="4537.53" y="963.92" width="1.67" height="2.01" transform="translate(-4018.44 1974.55) rotate(-29.69)"/><rect class="n" x="4549.65" y="957.01" width="1.67" height="2.01" transform="translate(-4013.43 1979.65) rotate(-29.69)"/><rect class="n" x="4545.61" y="959.31" width="1.67" height="2.01" transform="translate(-4015.1 1977.95) rotate(-29.69)"/><rect class="n" x="4541.57" y="961.62" width="1.67" height="2.01" transform="translate(-4016.77 1976.25) rotate(-29.69)"/><rect class="n" x="4528.48" y="957.45" width="1.67" height="2.01" transform="translate(-4016.42 1969.22) rotate(-29.69)"/><rect class="n" x="4532.52" y="955.15" width="1.67" height="2.01" transform="translate(-4014.75 1970.92) rotate(-29.69)"/><rect class="n" x="4544.65" y="948.23" width="1.67" height="2.01" transform="translate(-4009.74 1976.02) rotate(-29.69)"/><rect class="n" x="4540.61" y="950.54" width="1.67" height="2.01" transform="translate(-4011.41 1974.32) rotate(-29.69)"/><rect class="n" x="4536.56" y="952.84" width="1.67" height="2.01" transform="translate(-4013.08 1972.62) rotate(-29.69)"/><rect class="n" x="4523.48" y="948.68" width="1.67" height="2.01" transform="translate(-4012.73 1965.59) rotate(-29.69)"/><rect class="n" x="4527.52" y="946.37" width="1.67" height="2.01" transform="translate(-4011.06 1967.29) rotate(-29.69)"/><rect class="n" x="4539.64" y="939.46" width="1.67" height="2.01" transform="translate(-4006.05 1972.39) rotate(-29.69)"/><rect class="n" x="4535.6" y="941.76" width="1.67" height="2.01" transform="translate(-4007.72 1970.69) rotate(-29.69)"/><rect class="n" x="4531.56" y="944.07" width="1.67" height="2.01" transform="translate(-4009.39 1968.99) rotate(-29.69)"/><rect class="n" x="4518.47" y="939.9" width="1.67" height="2.01" transform="translate(-4009.04 1961.96) rotate(-29.69)"/><rect class="n" x="4522.51" y="937.59" width="1.67" height="2.01" transform="translate(-4007.37 1963.66) rotate(-29.69)"/><rect class="n" x="4534.64" y="930.68" width="1.67" height="2.01" transform="translate(-4002.36 1968.76) rotate(-29.69)"/><rect class="n" x="4530.6" y="932.99" width="1.67" height="2.01" transform="translate(-4004.03 1967.06) rotate(-29.69)"/><rect class="n" x="4526.56" y="935.29" width="1.67" height="2.01" transform="translate(-4005.7 1965.36) rotate(-29.69)"/><rect class="n" x="4513.47" y="931.12" width="1.67" height="2.01" transform="translate(-4005.35 1958.33) rotate(-29.69)"/><rect class="n" x="4517.51" y="928.82" width="1.67" height="2.01" transform="translate(-4003.68 1960.03) rotate(-29.69)"/><rect class="n" x="4529.64" y="921.91" width="1.67" height="2.01" transform="translate(-3998.67 1965.13) rotate(-29.69)"/><rect class="n" x="4525.59" y="924.21" width="1.67" height="2.01" transform="translate(-4000.34 1963.43) rotate(-29.69)"/><rect class="n" x="4521.55" y="926.51" width="1.67" height="2.01" transform="translate(-4002.01 1961.73) rotate(-29.69)"/><rect class="m" x="4519.59" y="916.21" width="8.25" height="89.28" transform="translate(-4018.35 1966.76) rotate(-29.69)"/><path class="n" d="M4542.24,1003.17a1.5,1.5,0,0,1-1.3-.76l-44.22-77.56a1.5,1.5,0,0,1,.56-2l7.16-4.08a1.5,1.5,0,0,1,2,.56l44.22,77.56a1.5,1.5,0,0,1-.56,2L4543,1003A1.49,1.49,0,0,1,4542.24,1003.17Zm-42.18-78.5,42.74,75,4.56-2.6-42.74-75Z" transform="translate(-4136.31 -400)"/><rect class="m" x="4546.82" y="901" width="8.25" height="89.28" transform="translate(-4007.24 1978.25) rotate(-29.69)"/><path class="n" d="M4569.48,988a1.5,1.5,0,0,1-1.3-.76l-44.22-77.56a1.5,1.5,0,0,1,.56-2l7.16-4.08a1.5,1.5,0,0,1,2,.56l44.22,77.56a1.5,1.5,0,0,1-.56,2l-7.16,4.08A1.49,1.49,0,0,1,4569.48,988Zm-42.18-78.5,42.74,75,4.56-2.6-42.74-75Z" transform="translate(-4136.31 -400)"/><rect class="m" x="4978.92" y="852.67" width="20.48" height="5.71" transform="translate(-3991.45 -1012.94) rotate(7.13)"/><path class="n" d="M4999,861.12h-0.19l-20.32-2.54a1.5,1.5,0,0,1-1.3-1.67l0.71-5.66a1.5,1.5,0,0,1,1.67-1.3l20.32,2.54a1.5,1.5,0,0,1,1.3,1.67l-0.71,5.66A1.5,1.5,0,0,1,4999,861.12Zm-18.65-5.34,17.35,2.17,0.34-2.68-17.35-2.17Z" transform="translate(-4136.31 -400)"/><rect class="m" x="4971.18" y="855.64" width="32.62" height="26.33" transform="translate(-3989.81 -1012.63) rotate(7.13)"/><path class="n" d="M5002,885.39h-0.19l-32.37-4.05a1.5,1.5,0,0,1-1.3-1.67l3.27-26.13a1.5,1.5,0,0,1,1.67-1.3l32.37,4.05a1.5,1.5,0,0,1,1.3,1.67l-3.27,26.13A1.5,1.5,0,0,1,5002,885.39Zm-30.7-6.85,29.4,3.68,2.9-23.15-29.4-3.68Z" transform="translate(-4136.31 -400)"/><rect class="m" x="4967.38" y="861.61" width="39.5" height="20.19" transform="translate(-3989.46 -1012.56) rotate(7.13)"/><path class="n" d="M5005.47,885.67h-0.19l-39.19-4.91a1.5,1.5,0,0,1-1.3-1.67l2.51-20a1.5,1.5,0,0,1,1.67-1.3l39.19,4.91a1.5,1.5,0,0,1,1.3,1.67l-2.51,20A1.5,1.5,0,0,1,5005.47,885.67ZM4968,878l36.22,4.53,2.13-17.06-36.22-4.53Z" transform="translate(-4136.31 -400)"/><polygon class="m" points="848.44 452 853.81 447.81 857.99 453.19 848.44 452"/><path class="n" d="M4994.3,854.69h-0.19l-9.55-1.2a1.5,1.5,0,0,1-.74-2.67l5.38-4.19a1.5,1.5,0,0,1,2.11.26l4.18,5.39A1.5,1.5,0,0,1,4994.3,854.69Zm-5.78-3.74,2.38,0.3-1-1.34Z" transform="translate(-4136.31 -400)"/><rect class="n" x="4992.93" y="863.57" width="2.19" height="17.41" transform="translate(-3989.33 -1013.41) rotate(7.13)"/><rect class="n" x="4997.36" y="864.12" width="2.19" height="17.41" transform="translate(-3989.23 -1013.96) rotate(7.13)"/><rect class="n" x="4974.78" y="861.3" width="2.19" height="17.41" transform="translate(-3989.76 -1011.18) rotate(7.13)"/><rect class="n" x="4979.21" y="861.85" width="2.19" height="17.41" transform="translate(-3989.65 -1011.72) rotate(7.13)"/><circle class="p" cx="4913.07" cy="865.3" r="8.83" transform="matrix(0.14, -0.99, 0.99, 0.14, -774.45, 5206.68)"/><path class="q" d="M4912.94,880.58a1,1,0,0,1-1-1v-17a1,1,0,1,1,2,0v17A1,1,0,0,1,4912.94,880.58Z" transform="translate(-4136.31 -400)"/><path class="q" d="M4912.94,872.8a1,1,0,0,1-.71-1.71l4.24-4.24a1,1,0,0,1,1.41,1.41l-4.24,4.24A1,1,0,0,1,4912.94,872.8Z" transform="translate(-4136.31 -400)"/><path class="q" d="M4912.94,869.8a1,1,0,0,1-.6-0.2l-3.27-2.47a1,1,0,1,1,1.21-1.6l3.27,2.47A1,1,0,0,1,4912.94,869.8Z" transform="translate(-4136.31 -400)"/><circle class="r" cx="4499.81" cy="1003.01" r="16.67" transform="translate(-1265.62 4915.82) rotate(-81.87)"/><circle class="r" cx="4480.4" cy="1012.72" r="10.98" transform="translate(-1291.89 4904.94) rotate(-81.87)"/><circle class="r" cx="4683.81" cy="917.68" r="16.67" transform="translate(-1023.15 5024.71) rotate(-81.87)"/><circle class="r" cx="4664.4" cy="927.39" r="10.98" transform="translate(-1049.43 5013.82) rotate(-81.87)"/><circle class="r" cx="4773.81" cy="888.68" r="16.67" transform="translate(-917.17 5088.9) rotate(-81.87)"/><circle class="r" cx="4754.4" cy="898.39" r="10.98" transform="translate(-943.44 5078.02) rotate(-81.87)"/><g class="g"><path class="s" d="M4682.67,901.67s-5.33,3.67-2.33,16.67c-7-2-16.67,5.33-16.67,5.33l-5.33-5.33,6,13,23.67-6-1.83-24.15-4.17,1.15" transform="translate(-4136.31 -400)"/></g><circle class="s" cx="4464.23" cy="1032.56" r="16.67" transform="translate(-1325.41 4905.97) rotate(-81.87)"/><circle class="s" cx="4447.81" cy="1048.25" r="8.78" transform="translate(-1355.05 4903.19) rotate(-81.87)"/><g class="g"><ellipse class="k" cx="4962" cy="973.83" rx="6.83" ry="28.67" transform="translate(-607.85 5423.03) rotate(-84.63)"/></g><rect class="l" x="4963.98" y="945.5" width="4.67" height="22.67" transform="translate(5660.37 2055.92) rotate(-173.66)"/><path class="l" d="M4936.9,955.91l29.51,3.28,4.24-38.18C4955.24,930.64,4942.75,941.67,4936.9,955.91Z" transform="translate(-4136.31 -400)"/><path class="l" d="M4984.94,961.25l-19.09-2.12,2.74-24.71C4970.71,945.58,4976.09,954.57,4984.94,961.25Z" transform="translate(-4136.31 -400)"/><polygon class="l" points="803.43 561.93 848.31 566.91 843.22 576.52 812.25 573.08 803.43 561.93"/><polygon class="o" points="511.4 382 573.1 511.61 590.83 506.72 568.51 364.34 546.68 371.09 533.22 375.25 511.4 382"/><path class="n" d="M4709.41,913.11a1.5,1.5,0,0,1-1.35-.86l-61.7-129.61a1.5,1.5,0,0,1,.91-2.08l57.11-17.66a1.5,1.5,0,0,1,1.93,1.2l22.32,142.38a1.5,1.5,0,0,1-1.08,1.68l-17.73,4.89A1.52,1.52,0,0,1,4709.41,913.11Zm-59.6-130.19,60.41,126.91,15.23-4.2L4703.6,766.29Z" transform="translate(-4136.31 -400)"/><polygon class="o" points="620.31 512.76 525.64 326.87 552.42 533.75 620.31 512.76"/><path class="n" d="M4688.73,935.25a1.5,1.5,0,0,1-1.49-1.31l-26.78-206.88a1.5,1.5,0,0,1,2.82-.87L4758,912.08a1.5,1.5,0,0,1-.89,2.11l-67.89,21A1.5,1.5,0,0,1,4688.73,935.25Zm-24.18-200L4690,931.79l64.48-19.94Z" transform="translate(-4136.31 -400)"/><polygon class="n" points="532.58 373.08 527.43 333.33 545.62 369.05 532.58 373.08"/><polygon class="n" points="553.27 513.62 609.05 496.37 609.86 497.95 553.5 515.38 553.27 513.62"/><polygon class="n" points="552.66 516.68 552.17 512.91 552.98 512.66 609.56 495.17 611.29 498.55 552.66 516.68"/><polygon class="n" points="551 496.06 601.02 480.59 601.82 482.17 551.23 497.81 551 496.06"/><polygon class="n" points="550.39 499.12 549.9 495.35 601.52 479.39 603.25 482.77 550.39 499.12"/><polygon class="n" points="548.72 478.49 592.98 464.81 593.78 466.39 548.95 480.25 548.72 478.49"/><polygon class="n" points="548.11 481.56 547.62 477.79 593.49 463.6 595.21 466.99 548.11 481.56"/><polygon class="n" points="546.45 460.93 584.94 449.03 585.75 450.61 546.68 462.69 546.45 460.93"/><polygon class="n" points="545.84 463.99 545.35 460.22 585.45 447.82 587.17 451.21 545.84 463.99"/><polygon class="n" points="544.18 443.37 576.9 433.25 577.71 434.82 544.4 445.12 544.18 443.37"/><polygon class="n" points="543.56 446.43 543.08 442.66 577.41 432.04 579.14 435.43 543.56 446.43"/><polygon class="n" points="541.9 425.8 568.87 417.46 569.67 419.04 542.13 427.56 541.9 425.8"/><polygon class="n" points="541.29 428.87 540.8 425.1 569.38 416.26 571.1 419.65 541.29 428.87"/><polygon class="n" points="539.63 408.24 560.83 401.68 561.63 403.26 539.86 410 539.63 408.24"/><polygon class="n" points="539.02 411.3 538.53 407.53 561.34 400.48 563.06 403.87 539.02 411.3"/><polygon class="n" points="537.35 390.68 552.79 385.9 553.6 387.48 537.58 392.43 537.35 390.68"/><polygon class="n" points="536.74 393.74 536.25 389.97 553.3 384.7 555.03 388.08 536.74 393.74"/><rect class="n" x="4510.12" y="828.94" width="2" height="9.76" transform="translate(-3973.45 1896.04) rotate(-29.06)"/><rect class="o" x="4492.7" y="941.17" width="179.07" height="41.27" transform="translate(-4024.42 1953.93) rotate(-29.15)"/><path class="n" d="M4514.09,1024.94a1.5,1.5,0,0,1-1.31-.77l-20.1-36a1.5,1.5,0,0,1,.58-2l156.38-87.23a1.5,1.5,0,0,1,2,.58l20.1,36a1.5,1.5,0,0,1-.58,2l-156.38,87.23A1.48,1.48,0,0,1,4514.09,1024.94ZM4496,988l18.64,33.42,153.76-85.76-18.64-33.42Z" transform="translate(-4136.31 -400)"/><rect class="o" x="4522.43" y="860.95" width="13.05" height="10.7" transform="translate(-3984.64 1915.88) rotate(-29.15)"/><path class="n" d="M4525.86,875.64a1.5,1.5,0,0,1-1.31-.77l-5.21-9.34a1.5,1.5,0,0,1,.58-2l11.4-6.36a1.5,1.5,0,0,1,2,.58l5.21,9.34a1.5,1.5,0,0,1-.58,2l-11.4,6.36A1.5,1.5,0,0,1,4525.86,875.64Zm-3.17-10.26,3.75,6.72,8.78-4.89-3.75-6.72Z" transform="translate(-4136.31 -400)"/><rect class="o" x="4544.58" y="870.25" width="24.37" height="91.8" transform="translate(-4005.4 1935.74) rotate(-29.15)"/><path class="n" d="M4568.49,963.67a1.5,1.5,0,0,1-1.31-.77l-44.72-80.17a1.5,1.5,0,0,1,.58-2l21.28-11.87a1.5,1.5,0,0,1,2,.58l44.72,80.17a1.5,1.5,0,0,1-.58,2l-21.28,11.87A1.48,1.48,0,0,1,4568.49,963.67Zm-42.68-81.1,43.26,77.55,18.66-10.41-43.26-77.55Z" transform="translate(-4136.31 -400)"/><rect class="o" x="4523.56" y="868.2" width="17.58" height="8.35" transform="translate(-3987.17 1918.3) rotate(-29.15)"/><path class="n" d="M4526.7,881.8a1.5,1.5,0,0,1-1.31-.77l-4.06-7.29a1.5,1.5,0,0,1,.58-2l15.35-8.56a1.5,1.5,0,0,1,2,.58l4.06,7.29a1.5,1.5,0,0,1-.58,2l-15.35,8.56A1.5,1.5,0,0,1,4526.7,881.8Zm-2-8.21,2.6,4.67,12.73-7.1-2.6-4.67Z" transform="translate(-4136.31 -400)"/><rect class="o" x="4518.49" y="850.14" width="9.12" height="11.13" transform="translate(-3980.23 1911.66) rotate(-29.15)"/><path class="n" d="M4521.78,864.29a1.5,1.5,0,0,1-1.31-.77L4515,853.8a1.5,1.5,0,0,1,.58-2l8-4.45a1.5,1.5,0,0,1,2,.58l5.42,9.72a1.5,1.5,0,0,1-.58,2l-8,4.45A1.5,1.5,0,0,1,4521.78,864.29Zm-3.38-10.64,4,7.1,5.35-3-4-7.1Z" transform="translate(-4136.31 -400)"/><rect class="o" x="4515.1" y="841.84" width="5.34" height="8.79" transform="translate(-3976.28 1907.88) rotate(-29.15)"/><path class="n" d="M4517.58,852.87a1.5,1.5,0,0,1-1.31-.77l-4.28-7.68a1.5,1.5,0,0,1,.58-2l4.66-2.6a1.5,1.5,0,0,1,2,.58l4.28,7.68a1.5,1.5,0,0,1-.58,2l-4.66,2.6A1.48,1.48,0,0,1,4517.58,852.87Zm-2.24-8.6,2.82,5.06,2-1.14-2.82-5.06Z" transform="translate(-4136.31 -400)"/><path class="o" d="M4514.19,837.84h1.09a1.62,1.62,0,0,1,1.62,1.62v4.27a0,0,0,0,1,0,0h-4.34a0,0,0,0,1,0,0v-4.27a1.62,1.62,0,0,1,1.62-1.62Z" transform="translate(-3974.02 1905.72) rotate(-29.15)"/><path class="n" d="M4514.27,845.92a1.5,1.5,0,0,1-1.31-.77l-2.08-3.73a3.13,3.13,0,0,1,1.21-4.25l1-.53a3.13,3.13,0,0,1,4.25,1.21l2.08,3.73a1.5,1.5,0,0,1-.58,2l-3.79,2.11A1.5,1.5,0,0,1,4514.27,845.92Zm0.29-6.68-0.06,0-1,.53a0.13,0.13,0,0,0,0,.17l1.35,2.42,1.17-.65-1.35-2.42A0.13,0.13,0,0,0,4514.56,839.25Z" transform="translate(-4136.31 -400)"/><path class="n" d="M4556.49,901.78L4581,945.66l-11.81,6.59-24.48-43.88,11.81-6.59m1.16-4.08-17.05,9.51,27.4,49.12,17.05-9.51-27.4-49.12h0Z" transform="translate(-4136.31 -400)"/><rect class="n" x="4518.63" y="860.32" width="15.36" height="2.45" transform="translate(-3982.66 1913.98) rotate(-29.15)"/><rect class="n" x="4514.57" y="848.43" width="10.46" height="2.89" transform="translate(-3977.8 1909.34) rotate(-29.15)"/><polygon class="n" points="423.45 493.08 399.25 506.57 397.43 503.11 421.63 489.61 423.45 493.08"/><polygon class="n" points="420.85 488.41 396.65 501.91 394.83 498.44 419.03 484.95 420.85 488.41"/><rect class="o" x="4532.74" y="948.56" width="106.06" height="39.2" transform="translate(-4027.06 1956.45) rotate(-29.15)"/><path class="n" d="M4549,1012.6a1.5,1.5,0,0,1-1.31-.77L4528.6,977.6a1.5,1.5,0,0,1,.58-2l92.62-51.66a1.5,1.5,0,0,1,2,.58l19.09,34.23a1.5,1.5,0,0,1-.58,2l-92.62,51.66A1.48,1.48,0,0,1,4549,1012.6ZM4532,977.45l17.63,31.61,90-50.2L4622,927.25Z" transform="translate(-4136.31 -400)"/><circle class="n" cx="4554.16" cy="911.49" r="6" transform="translate(-4003.46 1933.88) rotate(-29.15)"/><path class="n" d="M4560,973.64h0a12,12,0,0,1,12,12v17.3a0,0,0,0,1,0,0h-23.95a0,0,0,0,1,0,0v-17.3A12,12,0,0,1,4560,973.64Z" transform="translate(-4042.3 1939.3) rotate(-29.06)"/><path class="n" d="M4588.24,958h0a12,12,0,0,1,12,12v17.3a0,0,0,0,1,0,0h-23.95a0,0,0,0,1,0,0v-17.3a12,12,0,0,1,12-12Z" transform="translate(-4031.13 1951.03) rotate(-29.06)"/><path class="n" d="M4616.44,942.3h0a12,12,0,0,1,12,12v17.3a0,0,0,0,1,0,0h-23.95a0,0,0,0,1,0,0v-17.3A12,12,0,0,1,4616.44,942.3Z" transform="translate(-4019.97 1962.75) rotate(-29.06)"/><rect class="e" x="4509.73" y="827.12" width="8.43" height="6.21" transform="translate(-3971.33 1897.02) rotate(-29.06)"/><rect class="o" x="4801.96" y="841.22" width="4" height="6.87" transform="translate(-4203.59 194.64) rotate(-7.03)"/><path class="n" d="M4802.4,849.31a1,1,0,0,1-1-.88l-0.84-6.82a1,1,0,0,1,.87-1.11l4-.49a1,1,0,0,1,1.12.87l0.84,6.82a1,1,0,0,1-.87,1.11l-4,.49h-0.12Zm0.27-7,0.6,4.84,2-.25-0.6-4.84Z" transform="translate(-4136.31 -400)"/><rect class="o" x="4782.39" y="854.74" width="30.13" height="36.6" transform="translate(-4207.11 194.06) rotate(-7.03)"/><path class="n" d="M4784.74,894a1,1,0,0,1-1-.88l-4.48-36.33a1,1,0,0,1,.87-1.11L4810,852a1,1,0,0,1,1.12.87l4.48,36.33a1,1,0,0,1-.87,1.11l-29.9,3.69h-0.12Zm-3.37-36.46,4.24,34.34,27.91-3.44-4.24-34.34Z" transform="translate(-4136.31 -400)"/><rect class="o" x="4782.17" y="869.25" width="30.13" height="4" transform="translate(-4206.9 194.02) rotate(-7.03)"/><path class="n" d="M4782.52,876.08a1,1,0,0,1-1-.88l-0.49-4a1,1,0,0,1,.87-1.11l29.9-3.69a1,1,0,0,1,1.12.87l0.49,4a1,1,0,0,1-.87,1.11l-29.9,3.69h-0.12Zm0.62-4.1,0.25,2,27.91-3.44-0.25-2Z" transform="translate(-4136.31 -400)"/><rect class="n" x="4786.02" y="860.66" width="6.5" height="7.25" transform="translate(-4206.1 192.99) rotate(-7.03)"/><rect class="n" x="4797.04" y="859.01" width="11.25" height="7.25" transform="translate(-4205.8 194.62) rotate(-7.03)"/><polygon class="o" points="661.24 494.12 652.18 495.24 652.21 487.3 659.28 486.43 661.24 494.12"/><path class="n" d="M4788.49,896.24a1,1,0,0,1-1-1l0-7.94a1,1,0,0,1,.88-1l7.07-.87a1,1,0,0,1,1.09.75l2,7.69a1,1,0,0,1-.85,1.24l-9.06,1.12h-0.12Zm1-8.05,0,5.92,6.8-.84-1.46-5.74Z" transform="translate(-4136.31 -400)"/><rect class="n" x="4788.17" y="876.49" width="6.5" height="10.41" transform="translate(-4208.22 193.39) rotate(-7.03)"/><rect class="n" x="4799" y="874.85" width="11.25" height="7.25" transform="translate(-4207.72 194.98) rotate(-7.03)"/><rect class="n" x="4798.9" y="883.93" width="13.87" height="6" transform="translate(-4208.75 195.19) rotate(-7.03)"/><rect class="o" x="4794.54" y="880.86" width="19.22" height="4" transform="translate(-4208.27 194.96) rotate(-7.03)"/><path class="n" d="M4794.86,887a1,1,0,0,1-1-.88l-0.49-4a1,1,0,0,1,.87-1.11l19.08-2.35a1,1,0,0,1,1.12.87l0.49,4a1,1,0,0,1-.87,1.11L4795,887h-0.12Zm0.63-4.1,0.25,2,17.09-2.11-0.25-2Z" transform="translate(-4136.31 -400)"/><rect class="o" x="4780.21" y="853.37" width="30.13" height="4" transform="translate(-4204.97 193.66) rotate(-7.03)"/><path class="n" d="M4780.57,860.21a1,1,0,0,1-1-.88l-0.49-4a1,1,0,0,1,.87-1.11l29.9-3.69a1,1,0,0,1,1.12.87l0.49,4a1,1,0,0,1-.87,1.11l-29.9,3.69h-0.12Zm0.62-4.1,0.25,2,27.91-3.44-0.25-2Z" transform="translate(-4136.31 -400)"/><polygon class="o" points="643.73 454.91 657.2 441.12 673.63 451.22 643.73 454.91"/><path class="n" d="M4780,855.91a1,1,0,0,1-.71-1.7l13.48-13.79a1,1,0,0,1,1.24-.15l16.42,10.1a1,1,0,0,1-.4,1.84l-29.9,3.69H4780Zm13.63-13.52-10.92,11.17,24.23-3Z" transform="translate(-4136.31 -400)"/><polygon class="o" points="649.73 454.17 657.66 446.04 667.34 451.99 649.73 454.17"/><path class="n" d="M4786,855.17a1,1,0,0,1-.71-1.7l7.94-8.12a1,1,0,0,1,1.24-.15l9.67,5.95a1,1,0,0,1-.4,1.84l-17.61,2.17H4786Zm8.1-7.85-5.39,5.51,11.95-1.47Z" transform="translate(-4136.31 -400)"/><rect class="n" x="4793.02" y="850.55" width="3.63" height="2.88" transform="translate(-4204.55 193.58) rotate(-7.03)"/><rect class="n" x="4788.41" y="890.2" width="8.25" height="1.25" transform="translate(-4209.33 193.59) rotate(-7.03)"/><rect class="o" x="4833.16" y="837.37" width="4" height="6.87" transform="translate(-4195.08 73.15) rotate(-5.57)"/><path class="n" d="M4833.51,845.42a1,1,0,0,1-1-.9l-0.67-6.84a1,1,0,0,1,.9-1.09l4-.39a1,1,0,0,1,1.09.9l0.67,6.84a1,1,0,0,1-.9,1.09l-4,.39h-0.1Zm0.43-6.94,0.47,4.85,2-.19-0.47-4.85Z" transform="translate(-4136.31 -400)"/><rect class="o" x="4812.86" y="850.72" width="30.13" height="36.6" transform="translate(-4197.85 72.58) rotate(-5.57)"/><path class="n" d="M4814.71,889.7a1,1,0,0,1-1-.9l-3.55-36.43a1,1,0,0,1,.9-1.09l30-2.92a1,1,0,0,1,1.09.9l3.55,36.43a1,1,0,0,1-.9,1.09l-30,2.92h-0.1Zm-2.46-36.53,3.36,34.44,28-2.73-3.36-34.44Z" transform="translate(-4136.31 -400)"/><rect class="o" x="4812.69" y="865.23" width="30.13" height="4" transform="translate(-4197.68 72.56) rotate(-5.57)"/><path class="n" d="M4813,871.68a1,1,0,0,1-1-.9l-0.39-4a1,1,0,0,1,.9-1.09l30-2.92a1,1,0,0,1,1.09.9l0.39,4a1,1,0,0,1-.9,1.09l-30,2.92H4813Zm0.7-4.09,0.19,2,28-2.73-0.19-2Z" transform="translate(-4136.31 -400)"/><rect class="n" x="4816.73" y="856.44" width="6.5" height="7.25" transform="translate(-4197.02 71.77) rotate(-5.57)"/><rect class="n" x="4827.79" y="855.13" width="11.25" height="7.25" transform="translate(-4196.83 73.07) rotate(-5.57)"/><polygon class="o" points="691.18 490.1 682.1 490.99 682.33 483.05 689.42 482.36 691.18 490.1"/><path class="n" d="M4818.41,892a1,1,0,0,1-1-1l0.23-7.94a1,1,0,0,1,.9-1l7.09-.69a1,1,0,0,1,1.07.77l1.76,7.74a1,1,0,0,1-.88,1.22l-9.08.89h-0.1Zm1.21-8-0.17,5.92,6.82-.67-1.31-5.78Z" transform="translate(-4136.31 -400)"/><rect class="n" x="4818.43" y="872.32" width="6.5" height="10.41" transform="translate(-4198.71 72.02) rotate(-5.57)"/><rect class="n" x="4829.33" y="871.01" width="11.25" height="7.25" transform="translate(-4198.36 73.29) rotate(-5.57)"/><rect class="n" x="4829.02" y="880.12" width="13.87" height="6" transform="translate(-4199.18 73.43) rotate(-5.57)"/><rect class="o" x="4824.77" y="877.01" width="19.22" height="4" transform="translate(-4198.79 73.26) rotate(-5.57)"/><path class="n" d="M4825,882.94a1,1,0,0,1-1-.9l-0.39-4a1,1,0,0,1,.9-1.09l19.13-1.87a1,1,0,0,1,1.09.9l0.39,4a1,1,0,0,1-.9,1.09l-19.13,1.87H4825Zm0.7-4.09,0.19,2,17.14-1.67-0.19-2Z" transform="translate(-4136.31 -400)"/><rect class="o" x="4811.14" y="849.3" width="30.13" height="4" transform="translate(-4196.14 72.33) rotate(-5.57)"/><path class="n" d="M4811.4,855.76a1,1,0,0,1-1-.9l-0.39-4a1,1,0,0,1,.9-1.09l30-2.92a1,1,0,0,1,1.09.9l0.39,4a1,1,0,0,1-.9,1.09l-30,2.92h-0.1Zm0.7-4.09,0.19,2,28-2.73-0.19-2Z" transform="translate(-4136.31 -400)"/><polygon class="o" points="674.67 450.45 688.5 437.01 704.66 447.52 674.67 450.45"/><path class="n" d="M4811,851.45a1,1,0,0,1-.7-1.72l13.82-13.44a1,1,0,0,1,1.24-.12l16.16,10.51a1,1,0,0,1-.45,1.83l-30,2.92H4811Zm13.95-13.16-11.2,10.89,24.3-2.37Z" transform="translate(-4136.31 -400)"/><polygon class="o" points="680.69 449.86 688.83 441.94 698.35 448.14 680.69 449.86"/><path class="n" d="M4817,850.86a1,1,0,0,1-.7-1.72l8.14-7.92a1,1,0,0,1,1.24-.12l9.52,6.19a1,1,0,0,1-.45,1.83l-17.66,1.72H4817Zm8.27-7.64-5.52,5.37,12-1.17Z" transform="translate(-4136.31 -400)"/><rect class="n" x="4824.04" y="846.47" width="3.63" height="2.87" transform="translate(-4195.81 72.28) rotate(-5.57)"/><rect class="n" x="4818.43" y="886.05" width="8.25" height="1.25" transform="translate(-4199.59 72.15) rotate(-5.57)"/><rect class="o" x="4864.61" y="834.74" width="4" height="6.87" transform="matrix(1, -0.07, 0.07, 1, -4182.19, -65.64)"/><path class="n" d="M4864.85,842.74a1,1,0,0,1-1-.93l-0.47-6.86a1,1,0,0,1,.93-1.07l4-.27a1,1,0,0,1,.73.24,1,1,0,0,1,.34.69l0.47,6.86a1,1,0,0,1-.93,1.07l-4,.27h-0.07Zm0.6-6.93,0.33,4.86,2-.14-0.33-4.86Z" transform="translate(-4136.31 -400)"/><rect class="o" x="4843.5" y="847.86" width="30.13" height="36.6" transform="matrix(1, -0.07, 0.07, 1, -4184.12, -66.12)"/><path class="n" d="M4844.79,886.45a1,1,0,0,1-1-.93l-2.5-36.52a1,1,0,0,1,.93-1.07l30.05-2.06a1,1,0,0,1,.73.24,1,1,0,0,1,.34.69l2.5,36.52a1,1,0,0,1-.93,1.07l-30.05,2.06h-0.07Zm-1.43-36.59,2.36,34.52,28.06-1.92-2.36-34.52Z" transform="translate(-4136.31 -400)"/><rect class="o" x="4843.38" y="862.36" width="30.13" height="4" transform="translate(-4184 -66.14) rotate(-3.92)"/><path class="n" d="M4843.55,868.39a1,1,0,0,1-1-.93l-0.27-4a1,1,0,0,1,.93-1.07l30.05-2.06a1,1,0,0,1,.73.24,1,1,0,0,1,.34.69l0.27,4a1,1,0,0,1-.93,1.07l-30.05,2.06h-0.07Zm0.79-4.07,0.14,2,28.06-1.92-0.14-2Z" transform="translate(-4136.31 -400)"/><rect class="n" x="4847.63" y="853.35" width="6.5" height="7.25" transform="translate(-4183.51 -66.67) rotate(-3.92)"/><rect class="n" x="4858.72" y="852.43" width="11.25" height="7.25" transform="translate(-4183.42 -65.75) rotate(-3.92)"/><polygon class="o" points="721.21 487.22 712.11 487.84 712.57 479.92 719.68 479.43 721.21 487.22"/><path class="n" d="M4848.42,888.84a1,1,0,0,1-1-1.06l0.46-7.92a1,1,0,0,1,.93-0.94l7.11-.49a1,1,0,0,1,1,.8l1.54,7.79a1,1,0,0,1-.91,1.19l-9.1.62h-0.07Zm1.41-8-0.34,5.91,6.84-.47-1.15-5.81Z" transform="translate(-4136.31 -400)"/><rect class="n" x="4848.83" y="869.28" width="6.5" height="10.41" transform="translate(-4184.71 -66.55) rotate(-3.92)"/><rect class="n" x="4859.81" y="868.36" width="11.25" height="7.25" transform="translate(-4184.51 -65.64) rotate(-3.92)"/><rect class="n" x="4859.25" y="877.49" width="13.88" height="6" transform="translate(-4185.08 -65.57) rotate(-3.92)"/><rect class="o" x="4855.11" y="874.34" width="19.22" height="4" transform="translate(-4184.8 -65.68) rotate(-3.92)"/><path class="n" d="M4855.27,880a1,1,0,0,1-1-.93l-0.27-4a1,1,0,0,1,.93-1.07l19.18-1.31a1,1,0,0,1,.73.24,1,1,0,0,1,.34.69l0.27,4a1,1,0,0,1-.93,1.07L4855.34,880h-0.07Zm0.79-4.07,0.14,2,17.18-1.18-0.14-2Z" transform="translate(-4136.31 -400)"/><rect class="o" x="4842.29" y="846.4" width="30.13" height="4" transform="translate(-4182.91 -66.25) rotate(-3.92)"/><path class="n" d="M4842.46,852.43a1,1,0,0,1-1-.93l-0.27-4a1,1,0,0,1,.93-1.07l30.05-2.06a1,1,0,0,1,.73.24,1,1,0,0,1,.34.69l0.27,4a1,1,0,0,1-.93,1.07l-30.05,2.06h-0.07Zm0.79-4.07,0.14,2,28.06-1.92-0.14-2Z" transform="translate(-4136.31 -400)"/><polygon class="o" points="705.86 447.11 720.06 434.08 735.91 445.05 705.86 447.11"/><path class="n" d="M4842.16,848.11a1,1,0,0,1-.68-1.74l14.21-13a1,1,0,0,1,1.25-.08l15.85,11a1,1,0,0,1-.5,1.82l-30.06,2.06h-0.07Zm14.29-12.76-11.51,10.56,24.36-1.67Z" transform="translate(-4136.31 -400)"/><polygon class="o" points="711.89 446.7 720.25 439.02 729.59 445.49 711.89 446.7"/><path class="n" d="M4848.19,847.7a1,1,0,0,1-.68-1.74l8.37-7.68a1,1,0,0,1,1.25-.08l9.34,6.47a1,1,0,0,1-.5,1.82l-17.71,1.21h-0.07Zm8.46-7.4L4851,845.5l12-.82Z" transform="translate(-4136.31 -400)"/><rect class="n" x="4855.29" y="843.56" width="3.62" height="2.87" transform="translate(-4182.68 -66.27) rotate(-3.92)"/><rect class="n" x="4848.56" y="883.03" width="8.25" height="1.25" transform="translate(-4185.33 -66.48) rotate(-3.92)"/><rect class="o" x="4895.09" y="832.82" width="4" height="6.87" transform="translate(-4174.17 -135.61) rotate(-3.08)"/><path class="n" d="M4895.27,840.8a1,1,0,0,1-1-.95L4893.9,833a1,1,0,0,1,.95-1.05l4-.21a1,1,0,0,1,1.05.95l0.37,6.87a1,1,0,0,1-.95,1.05l-4,.21h-0.05Zm0.68-6.92,0.26,4.87,2-.11-0.26-4.87Z" transform="translate(-4136.31 -400)"/><rect class="o" x="4873.57" y="845.83" width="30.13" height="36.6" transform="translate(-4175.69 -136.02) rotate(-3.08)"/><path class="n" d="M4874.57,884.22a1,1,0,0,1-1-.95l-2-36.55a1,1,0,0,1,.94-1.05l30.08-1.62a1,1,0,0,1,.72.25,1,1,0,0,1,.33.69l2,36.55a1,1,0,0,1-.95,1.05l-30.08,1.62h-0.05Zm-0.92-36.61,1.86,34.55,28.08-1.51-1.86-34.55Z" transform="translate(-4136.31 -400)"/><rect class="o" x="4873.47" y="860.33" width="30.13" height="4" transform="translate(-4175.59 -136.03) rotate(-3.08)"/><path class="n" d="M4873.6,866.14a1,1,0,0,1-1-.95l-0.21-4a1,1,0,0,1,.94-1.05l30.08-1.62a1,1,0,0,1,.72.25,1,1,0,0,1,.33.69l0.21,4a1,1,0,0,1-.95,1.05l-30.08,1.62h-0.05Zm0.84-4.05,0.11,2,28.08-1.51-0.11-2Z" transform="translate(-4136.31 -400)"/><rect class="n" x="4877.83" y="851.21" width="6.5" height="7.25" transform="translate(-4175.2 -136.44) rotate(-3.08)"/><rect class="n" x="4888.93" y="850.49" width="11.25" height="7.25" transform="translate(-4175.14 -135.72) rotate(-3.08)"/><polygon class="o" points="750.97 485.17 741.86 485.66 742.43 477.75 749.55 477.36 750.97 485.17"/><path class="n" d="M4878.17,886.66a1,1,0,0,1-1-1.07l0.58-7.92a1,1,0,0,1,.94-0.93l7.12-.38a1,1,0,0,1,1,.82l1.42,7.81a1,1,0,0,1-.93,1.18l-9.11.49h-0.05Zm1.51-8-0.43,5.91,6.84-.37-1.06-5.83Z" transform="translate(-4136.31 -400)"/><rect class="n" x="4878.77" y="867.15" width="6.5" height="10.41" transform="translate(-4176.14 -136.36) rotate(-3.08)"/><rect class="n" x="4889.79" y="866.43" width="11.25" height="7.25" transform="translate(-4175.99 -135.65) rotate(-3.08)"/><rect class="n" x="4889.11" y="875.57" width="13.88" height="6" transform="translate(-4176.45 -135.6) rotate(-3.08)"/><rect class="o" x="4885.03" y="872.4" width="19.22" height="4" transform="translate(-4176.23 -135.68) rotate(-3.08)"/><path class="n" d="M4885.15,877.91a1,1,0,0,1-1-.95l-0.22-4a1,1,0,0,1,.95-1.05l19.2-1a1,1,0,0,1,.72.25,1,1,0,0,1,.33.69l0.21,4a1,1,0,0,1-.95,1.05l-19.2,1h-0.05Zm0.84-4.05,0.11,2,17.2-.92-0.11-2Z" transform="translate(-4136.31 -400)"/><rect class="o" x="4872.61" y="844.35" width="30.13" height="4" transform="translate(-4174.73 -136.1) rotate(-3.08)"/><path class="n" d="M4872.74,850.17a1,1,0,0,1-1-.95l-0.21-4a1,1,0,0,1,.94-1.05l30.08-1.62a1,1,0,0,1,1.05.95l0.22,4a1,1,0,0,1-.95,1.05l-30.08,1.62h-0.05Zm0.84-4.05,0.11,2,28.08-1.51-0.11-2Z" transform="translate(-4136.31 -400)"/><polygon class="o" points="736.2 444.84 750.59 432.02 766.28 443.22 736.2 444.84"/><path class="n" d="M4872.51,845.84a1,1,0,0,1-.66-1.75l14.39-12.83a1,1,0,0,1,1.25-.07l15.69,11.21a1,1,0,0,1-.53,1.81l-30.08,1.62h-0.05ZM4887,833.29l-11.67,10.39,24.38-1.31Z" transform="translate(-4136.31 -400)"/><polygon class="o" points="742.24 444.52 750.72 436.96 759.96 443.56 742.24 444.52"/><path class="n" d="M4878.54,845.52a1,1,0,0,1-.67-1.75l8.48-7.56a1,1,0,0,1,1.25-.07l9.24,6.6a1,1,0,0,1-.53,1.81l-17.72,1h-0.05Zm8.55-7.28-5.75,5.13,12-.65Z" transform="translate(-4136.31 -400)"/><rect class="n" x="4885.66" y="841.51" width="3.62" height="2.87" transform="translate(-4174.55 -136.11) rotate(-3.08)"/><rect class="n" x="4878.37" y="880.91" width="8.25" height="1.25" transform="translate(-4176.63 -136.33) rotate(-3.08)"/><circle class="p" cx="4767.63" cy="869.95" r="16.67" transform="matrix(0.99, -0.16, 0.16, 0.99, -4214.12, 376.09)"/><path class="q" d="M4778.83,907.55a1,1,0,0,1-1-.7l-12.93-41.36a1,1,0,0,1,1.91-.6l12.93,41.36A1,1,0,0,1,4778.83,907.55Z" transform="translate(-4136.31 -400)"/><path class="q" d="M4771.07,882.74a1,1,0,0,1-.46-0.11,1,1,0,0,1-.42-1.35l5.25-10a1,1,0,1,1,1.77.93l-5.25,10A1,1,0,0,1,4771.07,882.74Z" transform="translate(-4136.31 -400)"/><path class="q" d="M4769.38,877.33a1,1,0,0,1-.34-0.06l-7.28-2.61a1,1,0,0,1,.68-1.88l7.28,2.61A1,1,0,0,1,4769.38,877.33Z" transform="translate(-4136.31 -400)"/><circle class="s" cx="4757.37" cy="917.9" r="10.98" transform="translate(-1257.39 4984.06) rotate(-78.11)"/><g class="g"><path class="s" d="M4760.67,907.33c-7.33-.33,6.33,20.33-8.33,19.33C4768.33,934.33,4773,911.67,4760.67,907.33Z" transform="translate(-4136.31 -400)"/></g><circle class="s" cx="4777.38" cy="909.49" r="16.67" transform="translate(-1233.28 4996.96) rotate(-78.11)"/><circle class="s" cx="4677.23" cy="937.39" r="16.67" transform="translate(-1048.32 5035.12) rotate(-81.87)"/><circle class="s" cx="4509.54" cy="1029.29" r="10.98" transform="translate(-1283.28 4948.02) rotate(-81.87)"/><circle class="p" cx="4472.1" cy="999.72" r="16.67" transform="translate(-4164.12 1465.71) rotate(-23.49)"/><path class="q" d="M4496.67,1040.33a1,1,0,0,1-.85-0.47l-27.42-43.8a1,1,0,1,1,1.7-1.06l27.42,43.8A1,1,0,0,1,4496.67,1040.33Z" transform="translate(-4136.31 -400)"/><path class="q" d="M4478.34,1011.29l-0.23,0a1,1,0,0,1-.74-1.2l2.62-11a1,1,0,0,1,1.95.46l-2.62,11A1,1,0,0,1,4478.34,1011.29Z" transform="translate(-4136.31 -400)"/><path class="q" d="M4475.37,1006.47h-0.1l-7.7-.74a1,1,0,0,1-.9-1.09,1,1,0,0,1,1.09-.9l7.7,0.74A1,1,0,0,1,4475.37,1006.47Z" transform="translate(-4136.31 -400)"/><circle class="s" cx="4916" cy="885.33" r="6.27" transform="translate(-791.77 5226.79) rotate(-81.87)"/><circle class="s" cx="4646" cy="961.33" r="5.37" transform="translate(-1098.84 5024.75) rotate(-81.87)"/><circle class="s" cx="4543.33" cy="1019.33" r="5.37" transform="translate(-1244.41 4972.92) rotate(-81.87)"/><g class="g"><path class="s" d="M4687,924c18,15-3.67,37.67-16.33,27.67C4684.33,955.33,4696,938.67,4687,924Z" transform="translate(-4136.31 -400)"/></g><g class="g"><path class="s" d="M4786.67,897c17.33,11.67.67,38.33-17.67,26C4774,926.67,4796.33,919.33,4786.67,897Z" transform="translate(-4136.31 -400)"/></g><g class="g"><path class="s" d="M4649.41,957.25c6.05,5-1.23,12.67-5.49,9.3C4648.51,967.79,4652.44,962.18,4649.41,957.25Z" transform="translate(-4136.31 -400)"/></g><g class="g"><path class="s" d="M4546.41,1014.5c6.05,5-1.23,12.67-5.49,9.3C4545.51,1025,4549.44,1019.43,4546.41,1014.5Z" transform="translate(-4136.31 -400)"/></g><g class="g"><path class="s" d="M4516,1019.5c12.71,10.59-2.59,26.6-11.54,19.54C4514.07,1041.63,4522.31,1029.86,4516,1019.5Z" transform="translate(-4136.31 -400)"/></g><g class="g"><path class="s" d="M4474.2,1019c17.94,14.95-3.65,37.54-16.28,27.57C4471.54,1050.23,4483.17,1033.62,4474.2,1019Z" transform="translate(-4136.31 -400)"/></g><g class="g"><path class="s" d="M4452.52,1039.07c10.58,8.82-2.16,22.14-9.6,16.26C4450.95,1057.49,4457.81,1047.69,4452.52,1039.07Z" transform="translate(-4136.31 -400)"/></g><path class="k" d="M5335.33,649.33H5330V644a2,2,0,1,0-4,0v5.33h-5.33a2,2,0,1,0,0,4H5326v5.33a2,2,0,1,0,4,0v-5.33h5.33A2,2,0,0,0,5335.33,649.33Z" transform="translate(-4136.31 -400)"/><path class="k" d="M5011.12,706.78a2,2,0,0,1-2-2v-7.47a2,2,0,0,1,4,0v7.47A2,2,0,0,1,5011.12,706.78Z" transform="translate(-4136.31 -400)"/><path class="k" d="M5011.12,682.07a2,2,0,0,1-2-2V672.6a2,2,0,0,1,4,0v7.47A2,2,0,0,1,5011.12,682.07Z" transform="translate(-4136.31 -400)"/><path class="k" d="M5019.08,686.1a2,2,0,0,1-1-3.73l6.47-3.74a2,2,0,1,1,2,3.46l-6.47,3.74A2,2,0,0,1,5019.08,686.1Z" transform="translate(-4136.31 -400)"/><path class="k" d="M5025.55,699a2,2,0,0,1-1-.27l-6.47-3.74a2,2,0,1,1,2-3.46l6.47,3.74A2,2,0,0,1,5025.55,699Z" transform="translate(-4136.31 -400)"/><path class="k" d="M4996.69,699a2,2,0,0,1-1-3.73l6.47-3.74a2,2,0,1,1,2,3.46l-6.47,3.74A2,2,0,0,1,4996.69,699Z" transform="translate(-4136.31 -400)"/><path class="k" d="M5003.16,686.1a2,2,0,0,1-1-.27l-6.47-3.74a2,2,0,1,1,2-3.46l6.47,3.74A2,2,0,0,1,5003.16,686.1Z" transform="translate(-4136.31 -400)"/><path class="l" d="M4340.4,771.25a12.8,12.8,0,0,0-9.17-5.84c14-16.16,8.75-28.44,1.22-35.6-7.1-6.76-18.51-10-29.12-3-5.56-20.14-25.7-29.63-43.44-27.63a43.8,43.8,0,0,0-26.29,12.46c-7.53,7.63-11.86,18.16-12.58,30.48l-0.64.64c-7.55,1.07-13.44,6.58-15.38,14.69a21.36,21.36,0,0,0,8.87,23,8.79,8.79,0,0,0-2,4.34l0,0.09,0,0.08a8.16,8.16,0,0,0,.63,4.37c1.47,3.32,5,5.29,9.35,5.29h106.63c5.68,0,10.16-2.5,12.63-7A16.45,16.45,0,0,0,4340.4,771.25ZM4296,713a32.81,32.81,0,0,1,5.35,8.4Zm-85.53,63.38,0,0Z" transform="translate(-4136.31 -400)"/><path class="l" d="M4562.35,590.32a12.68,12.68,0,0,0-2.09.19,27.12,27.12,0,1,0-50.37-19.18,22.6,22.6,0,1,0-6.28,44.3h58.75A12.65,12.65,0,0,0,4562.35,590.32Z" transform="translate(-4136.31 -400)"/><path class="l" d="M5257.05,557.52a15.88,15.88,0,0,0-7.52,1.88,29.15,29.15,0,1,0-57.15-10.6A19,19,0,0,0,5168.79,572c-0.23,0-.47,0-0.7,0a8.76,8.76,0,0,0,0,17.51h89A16,16,0,1,0,5257.05,557.52Z" transform="translate(-4136.31 -400)"/><path class="l" d="M5519.59,800.18a18.31,18.31,0,0,0-11.35,3.94,31.85,31.85,0,0,0-55.72-20.06A46,46,0,1,0,5407,837h112.57A18.41,18.41,0,1,0,5519.59,800.18Z" transform="translate(-4136.31 -400)"/><path class="k" d="M4436.65,637.59a2,2,0,0,1-2-2v-7.47a2,2,0,1,1,4,0v7.47A2,2,0,0,1,4436.65,637.59Z" transform="translate(-4136.31 -400)"/><path class="k" d="M4436.65,612.88a2,2,0,0,1-2-2v-7.47a2,2,0,1,1,4,0v7.47A2,2,0,0,1,4436.65,612.88Z" transform="translate(-4136.31 -400)"/><path class="k" d="M4428.68,616.9a2,2,0,0,1-1-.27l-6.47-3.74a2,2,0,1,1,2-3.46l6.47,3.74A2,2,0,0,1,4428.68,616.9Z" transform="translate(-4136.31 -400)"/><path class="k" d="M4422.22,629.83a2,2,0,0,1-1-3.73l6.47-3.74a2,2,0,1,1,2,3.46l-6.47,3.74A2,2,0,0,1,4422.22,629.83Z" transform="translate(-4136.31 -400)"/><path class="k" d="M4451.08,629.83a2,2,0,0,1-1-.27l-6.47-3.74a2,2,0,0,1,2-3.46l6.47,3.74A2,2,0,0,1,4451.08,629.83Z" transform="translate(-4136.31 -400)"/><path class="k" d="M4444.61,616.9a2,2,0,0,1-1-3.73l6.47-3.74a2,2,0,1,1,2,3.46l-6.47,3.74A2,2,0,0,1,4444.61,616.9Z" transform="translate(-4136.31 -400)"/><path class="k" d="M4391.79,820.59h5.33v-5.33a2,2,0,0,1,4,0v5.33h5.33a2,2,0,0,1,0,4h-5.33v5.33a2,2,0,0,1-4,0v-5.33h-5.33A2,2,0,1,1,4391.79,820.59Z" transform="translate(-4136.31 -400)"/><g class="t"><path class="k" d="M4551.62,723.1c2-3.37,9.35-3.36,9.35-3.36s-3.92-1-6.42,0c2.74-2.52,2-6.36,0-9.18a9.09,9.09,0,0,0-4.15-3.33,10.84,10.84,0,0,1-9.9,9.76c-1.74-.14-2.18-2.76-5.95-2.76s-5.66,3.63-5.95,4.42-2,1.07-2.09,1.1c0.08,0,.73-0.05,1.91,1.4q0.29,0.46.61,0.88c3.53,4.71,9.76,6.86,12.11,7.14s5.82-.24,9.68-2.47c2.26-1.31,6.2-3.7,10.11-4.57C4559,721.14,4554.34,721.8,4551.62,723.1Z" transform="translate(-4136.31 -400)"/></g><g class="t"><path class="k" d="M5384.37,477.79c-3.11-2.35-9.92.53-9.92,0.53s3.23-2.43,5.91-2.49c-3.5-1.26-4.34-5.08-3.58-8.46a9.09,9.09,0,0,1,2.54-4.68,10.84,10.84,0,0,0,12.91,5.16c1.55-.8.93-3.39,4.41-4.85s6.62,1.15,7.2,1.77,2.23,0.23,2.36.2c-0.08,0-.69.23-1.22,2-0.06.36-.13,0.71-0.22,1.05-1.43,5.71-6.33,10.1-8.4,11.28s-5.46,2-9.88,1.47c-2.59-.33-7.15-1-11.09-0.29C5376.79,478.85,5381.36,477.64,5384.37,477.79Z" transform="translate(-4136.31 -400)"/></g><path class="l" d="M4446.7,1041.42a43.57,43.57,0,0,0-64.1-38.44,79.6,79.6,0,1,0-156-28.93,51.86,51.86,0,0,0-64.42,63.23c-0.64-.05-1.27-0.1-1.92-0.1a23.91,23.91,0,0,0-23.7,20.81h306.91A43.44,43.44,0,0,0,4446.7,1041.42Z" transform="translate(-4136.31 -400)"/><path class="l" d="M5525.38,1029a34.46,34.46,0,0,0-5.69.51,73.69,73.69,0,1,0-136.9-52.13,61.42,61.42,0,0,0-74.55,80.61h251.1A34.39,34.39,0,0,0,5525.38,1029Z" transform="translate(-4136.31 -400)"/><path class="l" d="M4628.84,1015.15a1.38,1.38,0,0,1,.26-0.83,0.82,0.82,0,0,1,.7-0.36h13a0.82,0.82,0,0,1,.71.36,1.39,1.39,0,0,1,.26.83,1.51,1.51,0,0,1-.26.87,0.81,0.81,0,0,1-.71.37h-5.15v20a0.8,0.8,0,0,1-.4.71,1.86,1.86,0,0,1-1.89,0,0.8,0.8,0,0,1-.4-0.71v-20h-5.18a0.82,0.82,0,0,1-.7-0.36A1.49,1.49,0,0,1,4628.84,1015.15Z" transform="translate(-4136.31 -400)"/><path class="l" d="M4642.63,1031.4V1028a5.7,5.7,0,0,1,1.87-4.26,6.27,6.27,0,0,1,4.5-1.79,6.18,6.18,0,0,1,4.32,1.67,5.44,5.44,0,0,1,1.82,4.19,4.18,4.18,0,0,1-.22,1.51,1.48,1.48,0,0,1-.69.81,2.87,2.87,0,0,1-.86.31,7.07,7.07,0,0,1-1.07.06h-7v1a3.48,3.48,0,0,0,1.26,2.82,4.94,4.94,0,0,0,3.28,1.06,4.86,4.86,0,0,0,1.84-.32,8.15,8.15,0,0,0,1.26-.62,1.58,1.58,0,0,1,.77-0.3,1,1,0,0,1,.77.4,1.3,1.3,0,0,1,.32.82q0,0.74-1.46,1.5a7.66,7.66,0,0,1-3.6.77,7.55,7.55,0,0,1-5.12-1.71A5.65,5.65,0,0,1,4642.63,1031.4Zm2.66-2.69h5.92a2.07,2.07,0,0,0,1.12-.21,1,1,0,0,0,.29-0.82,3.52,3.52,0,0,0-1.06-2.53,3.47,3.47,0,0,0-2.59-1.09,3.68,3.68,0,0,0-2.59,1,3.25,3.25,0,0,0-1.09,2.48v1.15Z" transform="translate(-4136.31 -400)"/><path class="l" d="M4657.54,1031.4v-3.2a6.29,6.29,0,0,1,1.62-4.48,6.2,6.2,0,0,1,4.75-1.73,7.22,7.22,0,0,1,3.34.7,2,2,0,0,1,1.36,1.5,1.42,1.42,0,0,1-.34.88,1,1,0,0,1-.79.43,5.64,5.64,0,0,1-1.1-.54,4.63,4.63,0,0,0-2.29-.54,4,4,0,0,0-2.91,1,3.77,3.77,0,0,0-1,2.8v3.18q0,3.79,3.94,3.79a4.67,4.67,0,0,0,2.34-.56,5,5,0,0,1,1.15-.56,1,1,0,0,1,.85.42,1.36,1.36,0,0,1,.34.86q0,0.8-1.41,1.54a7.38,7.38,0,0,1-3.46.74A5.77,5.77,0,0,1,4657.54,1031.4Z" transform="translate(-4136.31 -400)"/><path class="l" d="M4671.46,1036.39V1014a0.78,0.78,0,0,1,.37-0.67,1.63,1.63,0,0,1,.94-0.26,1.7,1.7,0,0,1,1,.26,0.78,0.78,0,0,1,.38.67v10.46a4.73,4.73,0,0,1,1.62-1.75,4.49,4.49,0,0,1,2.54-.71,5.23,5.23,0,0,1,4,1.81,6.15,6.15,0,0,1,1.68,4.34v8.26a0.79,0.79,0,0,1-.4.7,1.71,1.71,0,0,1-.94.26,1.66,1.66,0,0,1-.91-0.25,0.79,0.79,0,0,1-.4-0.7v-8.24a3.67,3.67,0,0,0-1.09-2.58,3.41,3.41,0,0,0-2.56-1.15,3.37,3.37,0,0,0-2.43,1,3.62,3.62,0,0,0-1.05,2.7v8.24a0.84,0.84,0,0,1-.4.65,1.52,1.52,0,0,1-.94.3,1.51,1.51,0,0,1-.93-0.29A0.83,0.83,0,0,1,4671.46,1036.39Z" transform="translate(-4136.31 -400)"/><path class="l" d="M4692.49,1015.15a1.38,1.38,0,0,1,.26-0.83,0.82,0.82,0,0,1,.7-0.36h13a0.82,0.82,0,0,1,.7.36,1.38,1.38,0,0,1,.26.83,1.51,1.51,0,0,1-.26.87,0.81,0.81,0,0,1-.7.37h-5.15v20a0.8,0.8,0,0,1-.4.71,1.86,1.86,0,0,1-1.89,0,0.8,0.8,0,0,1-.4-0.71v-20h-5.18a0.82,0.82,0,0,1-.7-0.36A1.49,1.49,0,0,1,4692.49,1015.15Z" transform="translate(-4136.31 -400)"/><path class="l" d="M4706.06,1033.39a3.59,3.59,0,0,1,1.92-3.5,12.52,12.52,0,0,1,5.57-1h1.54v-0.68a4.59,4.59,0,0,0-.88-2.8,3.07,3.07,0,0,0-2.64-1.19,5.52,5.52,0,0,0-2.37.48,8.06,8.06,0,0,1-1.12.48,0.82,0.82,0,0,1-.72-0.43,1.69,1.69,0,0,1-.27-0.91q0-.74,1.46-1.3a8.53,8.53,0,0,1,3.09-.56,5.7,5.7,0,0,1,4.62,1.78,6.66,6.66,0,0,1,1.49,4.43v8.19a0.82,0.82,0,0,1-.37.69,1.54,1.54,0,0,1-.94.27,1.39,1.39,0,0,1-.86-0.26,0.81,0.81,0,0,1-.35-0.67v-1.25a6.4,6.4,0,0,1-4.83,2.44,4.49,4.49,0,0,1-3.12-1.08A4,4,0,0,1,4706.06,1033.39Zm2.69-.29a2.34,2.34,0,0,0,.67,1.81,2.55,2.55,0,0,0,1.79.62,4,4,0,0,0,2.61-1.09,3,3,0,0,0,1.26-2.22v-1.69H4714q-0.93,0-1.6,0a11.06,11.06,0,0,0-1.39.19,3.81,3.81,0,0,0-1.18.42A2.09,2.09,0,0,0,4708.74,1033.1Z" transform="translate(-4136.31 -400)"/><path class="l" d="M4721.67,1036.39V1014a0.79,0.79,0,0,1,.37-0.67,1.62,1.62,0,0,1,.94-0.26,1.7,1.7,0,0,1,1,.26,0.78,0.78,0,0,1,.38.67v22.43a0.84,0.84,0,0,1-.4.66,1.63,1.63,0,0,1-1.87,0A0.83,0.83,0,0,1,4721.67,1036.39Z" transform="translate(-4136.31 -400)"/><path class="l" d="M4728.42,1036.39V1014a0.79,0.79,0,0,1,.37-0.67,1.62,1.62,0,0,1,.94-0.26,1.7,1.7,0,0,1,1,.26,0.78,0.78,0,0,1,.38.67v15l7.3-6.59a0.94,0.94,0,0,1,.58-0.22,1.36,1.36,0,0,1,.91.38,1.13,1.13,0,0,1,.43.86,0.82,0.82,0,0,1-.29.64l-4.45,3.94,5.31,7.71a0.92,0.92,0,0,1,.16.48,1.23,1.23,0,0,1-.48.91,1.48,1.48,0,0,1-1,.43,0.86,0.86,0,0,1-.74-0.42l-5.09-7.46-2.66,2.37v4.42a0.84,0.84,0,0,1-.4.66,1.63,1.63,0,0,1-1.87,0A0.83,0.83,0,0,1,4728.42,1036.39Z" transform="translate(-4136.31 -400)"/><path class="l" d="M4742.41,1035.18a1.44,1.44,0,0,1,.27-0.82,0.79,0.79,0,0,1,.66-0.4,1.39,1.39,0,0,1,.74.4,5.66,5.66,0,0,0,1.38.78,5.34,5.34,0,0,0,2.11.38,3.69,3.69,0,0,0,2.32-.58,1.8,1.8,0,0,0,.72-1.46,2.05,2.05,0,0,0-.8-1.7,5.53,5.53,0,0,0-2-1q-1.15-.32-2.3-0.71a4.47,4.47,0,0,1-2-1.29,3.49,3.49,0,0,1-.8-2.4,4.3,4.3,0,0,1,1.3-3.12,5.32,5.32,0,0,1,4-1.32,9,9,0,0,1,3.1.51q1.41,0.51,1.41,1.16a1.66,1.66,0,0,1-.3.86,0.88,0.88,0,0,1-.75.48,7.83,7.83,0,0,1-1.23-.47,5.58,5.58,0,0,0-2.19-.47,3,3,0,0,0-2.19.7,2.14,2.14,0,0,0-.72,1.57,1.61,1.61,0,0,0,.8,1.42,6.47,6.47,0,0,0,2,.81,22.78,22.78,0,0,1,2.32.71,4.35,4.35,0,0,1,2,1.44,4.15,4.15,0,0,1,.8,2.64,3.79,3.79,0,0,1-1.41,3.11,6.09,6.09,0,0,1-3.94,1.14,8.08,8.08,0,0,1-3.71-.78Q4742.41,1036,4742.41,1035.18Z" transform="translate(-4136.31 -400)"/><path class="l" d="M4761.9,1029.69a1.28,1.28,0,0,1,.26-0.8,0.81,0.81,0,0,1,.67-0.33h8.32a0.87,0.87,0,0,1,.67.33,1.18,1.18,0,0,1,.29.8,1.12,1.12,0,0,1-.29.79,0.88,0.88,0,0,1-.67.32h-8.32A0.91,0.91,0,0,1,4761.9,1029.69Z" transform="translate(-4136.31 -400)"/><path class="l" d="M4782.28,1036.43v-21.5a0.81,0.81,0,0,1,.37-0.7,1.45,1.45,0,0,1,.85-0.26h11.26a0.78,0.78,0,0,1,.69.35,1.44,1.44,0,0,1,.24.83,1.56,1.56,0,0,1-.24.9,0.78,0.78,0,0,1-.69.35H4785v8.13h5a0.8,0.8,0,0,1,.69.34,1.37,1.37,0,0,1,.24.82,1.27,1.27,0,0,1-.24.75,0.8,0.8,0,0,1-.69.34h-5v9.66a0.76,0.76,0,0,1-.4.69,2,2,0,0,1-1.89,0A0.76,0.76,0,0,1,4782.28,1036.43Z" transform="translate(-4136.31 -400)"/><path class="l" d="M4794.7,1036.39v-13.28a0.79,0.79,0,0,1,.37-0.67,1.62,1.62,0,0,1,.94-0.26,1.42,1.42,0,0,1,.86.26,0.81,0.81,0,0,1,.35.68v1.52a5.22,5.22,0,0,1,1.7-1.88,4.27,4.27,0,0,1,2.5-.78h1.09a0.91,0.91,0,0,1,.72.37,1.33,1.33,0,0,1,.3.86,1.26,1.26,0,0,1-.3.84,0.92,0.92,0,0,1-.72.36h-1.09a3.77,3.77,0,0,0-2.85,1.31,4.78,4.78,0,0,0-1.22,3.38v7.28a0.84,0.84,0,0,1-.4.65,1.52,1.52,0,0,1-.94.3,1.5,1.5,0,0,1-.93-0.29A0.83,0.83,0,0,1,4794.7,1036.39Z" transform="translate(-4136.31 -400)"/><path class="l" d="M4805.85,1017.56a1.43,1.43,0,0,1-.5-1.07,1.4,1.4,0,0,1,.48-1.06,1.67,1.67,0,0,1,1.18-.45,1.63,1.63,0,0,1,1.15.45,1.4,1.4,0,0,1,.48,1.06,1.45,1.45,0,0,1-.48,1.07,1.6,1.6,0,0,1-1.15.46A1.65,1.65,0,0,1,4805.85,1017.56Zm-0.14,18.83v-13.28a0.78,0.78,0,0,1,.38-0.67,1.64,1.64,0,0,1,.93-0.26,1.7,1.7,0,0,1,1,.26,0.78,0.78,0,0,1,.38.67v13.28a0.84,0.84,0,0,1-.4.66,1.63,1.63,0,0,1-1.87,0A0.83,0.83,0,0,1,4805.7,1036.39Z" transform="translate(-4136.31 -400)"/><path class="l" d="M4811.56,1031.4V1028a5.7,5.7,0,0,1,1.87-4.26,6.27,6.27,0,0,1,4.5-1.79,6.18,6.18,0,0,1,4.32,1.67,5.44,5.44,0,0,1,1.82,4.19,4.2,4.2,0,0,1-.22,1.51,1.49,1.49,0,0,1-.69.81,2.87,2.87,0,0,1-.86.31,7.06,7.06,0,0,1-1.07.06h-7v1a3.49,3.49,0,0,0,1.26,2.82,5,5,0,0,0,3.28,1.06,4.86,4.86,0,0,0,1.84-.32,8.18,8.18,0,0,0,1.26-.62,1.59,1.59,0,0,1,.77-0.3,1,1,0,0,1,.77.4,1.3,1.3,0,0,1,.32.82q0,0.74-1.46,1.5a7.66,7.66,0,0,1-3.6.77,7.56,7.56,0,0,1-5.12-1.71A5.65,5.65,0,0,1,4811.56,1031.4Zm2.66-2.69h5.92a2.08,2.08,0,0,0,1.12-.21,1,1,0,0,0,.29-0.82,3.52,3.52,0,0,0-1.06-2.53,3.48,3.48,0,0,0-2.59-1.09,3.68,3.68,0,0,0-2.59,1,3.25,3.25,0,0,0-1.09,2.48v1.15Z" transform="translate(-4136.31 -400)"/><path class="l" d="M4827,1036.39v-13.28a0.78,0.78,0,0,1,.37-0.67,1.62,1.62,0,0,1,.94-0.26,1.37,1.37,0,0,1,.85.28,0.81,0.81,0,0,1,.37.67v1.33a4.35,4.35,0,0,1,1.65-1.75,4.85,4.85,0,0,1,2.64-.71,5.23,5.23,0,0,1,4,1.81,6.15,6.15,0,0,1,1.68,4.34v8.26a0.79,0.79,0,0,1-.4.7,1.71,1.71,0,0,1-.94.26,1.66,1.66,0,0,1-.91-0.25,0.79,0.79,0,0,1-.4-0.7v-8.24a3.67,3.67,0,0,0-1.09-2.58,3.41,3.41,0,0,0-2.56-1.15,3.37,3.37,0,0,0-2.43,1,3.62,3.62,0,0,0-1.06,2.7v8.24a0.84,0.84,0,0,1-.42.65,1.54,1.54,0,0,1-.93.3,1.5,1.5,0,0,1-.93-0.29A0.83,0.83,0,0,1,4827,1036.39Z" transform="translate(-4136.31 -400)"/><path class="l" d="M4842.54,1031.4v-3.26a6.11,6.11,0,0,1,1.7-4.34,5.35,5.35,0,0,1,4-1.81,4.51,4.51,0,0,1,2.53.71,5,5,0,0,1,1.66,1.75V1014a0.78,0.78,0,0,1,.38-0.67,1.7,1.7,0,0,1,1-.26,1.62,1.62,0,0,1,.94.26,0.79,0.79,0,0,1,.37.67v22.4a0.83,0.83,0,0,1-.38.67,1.51,1.51,0,0,1-.93.29,1.33,1.33,0,0,1-.85-0.29,0.86,0.86,0,0,1-.37-0.68v-1.3a4.67,4.67,0,0,1-1.76,1.78,5,5,0,0,1-2.66.75,5.15,5.15,0,0,1-3.94-1.89A6.28,6.28,0,0,1,4842.54,1031.4Zm2.66,0a3.73,3.73,0,0,0,1.09,2.63,3.37,3.37,0,0,0,2.53,1.16,3.58,3.58,0,0,0,2.53-1.07,2.89,2.89,0,0,0,1.12-1.86v-4.1a3.63,3.63,0,0,0-3.62-3.72,3.42,3.42,0,0,0-2.56,1.15,3.64,3.64,0,0,0-1.09,2.58v3.24Z" transform="translate(-4136.31 -400)"/><path class="l" d="M4859.21,1036.39V1014a0.79,0.79,0,0,1,.37-0.67,1.62,1.62,0,0,1,.94-0.26,1.7,1.7,0,0,1,1,.26,0.78,0.78,0,0,1,.38.67v22.43a0.84,0.84,0,0,1-.4.66,1.63,1.63,0,0,1-1.87,0A0.83,0.83,0,0,1,4859.21,1036.39Z" transform="translate(-4136.31 -400)"/><path class="l" d="M4864.42,1023.27a1.08,1.08,0,0,1,.58-0.89,2.07,2.07,0,0,1,1.15-.38,0.82,0.82,0,0,1,.86.54l4.22,11.08,3.81-11.08a0.83,0.83,0,0,1,.83-0.54,2.1,2.1,0,0,1,1.14.38,1.1,1.1,0,0,1,.59.92,0.61,0.61,0,0,1-.1.32l-4.86,13-0.61,1.6q-0.16.45-.64,1.54a11.33,11.33,0,0,1-.8,1.57q-0.32.48-.9,1.26a4.56,4.56,0,0,1-1.12,1.14,7,7,0,0,1-1.3.64,4.38,4.38,0,0,1-1.58.29,1.1,1.1,0,0,1-1.25-1.23q0-1.2.77-1.2a3.77,3.77,0,0,0,2.8-1.61,8.82,8.82,0,0,0,1.84-4.12l-5.31-12.9A0.66,0.66,0,0,1,4864.42,1023.27Z" transform="translate(-4136.31 -400)"/><path class="l" d="M4886.47,1030.57v-9.63q0-3.58,1.9-5.28a7.2,7.2,0,0,1,5-1.7,7.56,7.56,0,0,1,5,1.58,5,5,0,0,1,1.89,4,1.6,1.6,0,0,1-.32,1.17,1.45,1.45,0,0,1-1,.3q-1.28,0-1.34-.93-0.19-3.68-4.16-3.68-4.26,0-4.26,4.54v9.63q0,4.54,4.35,4.54a5.36,5.36,0,0,0,2.08-.35,2.52,2.52,0,0,0,1.23-1,4.75,4.75,0,0,0,.53-1.15,9.59,9.59,0,0,0,.22-1.28,1.11,1.11,0,0,1,1.34-.93,1.4,1.4,0,0,1,1,.32,1.67,1.67,0,0,1,.32,1.18,5.09,5.09,0,0,1-1.9,4,7.53,7.53,0,0,1-5,1.62,7.15,7.15,0,0,1-4.94-1.7Q4886.47,1034.15,4886.47,1030.57Z" transform="translate(-4136.31 -400)"/><path class="l" d="M4902.73,1031.4v-3.26a5.85,5.85,0,0,1,1.87-4.3A6.11,6.11,0,0,1,4909,1022a6.19,6.19,0,0,1,4.45,1.82,5.81,5.81,0,0,1,1.89,4.32v3.26a5.92,5.92,0,0,1-1.9,4.32,6.15,6.15,0,0,1-8.85,0A5.92,5.92,0,0,1,4902.73,1031.4Zm2.66,0a3.72,3.72,0,0,0,1.09,2.64,3.45,3.45,0,0,0,5.15,0,3.74,3.74,0,0,0,1.09-2.62v-3.24a3.65,3.65,0,0,0-1.09-2.58,3.46,3.46,0,0,0-2.59-1.15,3.4,3.4,0,0,0-2.58,1.15,3.68,3.68,0,0,0-1.07,2.58v3.24Z" transform="translate(-4136.31 -400)"/><path class="l" d="M4918.57,1036.39v-13.28a0.79,0.79,0,0,1,.37-0.67,1.63,1.63,0,0,1,.95-0.26,1.42,1.42,0,0,1,.86.26,0.81,0.81,0,0,1,.35.68v1.33a4.73,4.73,0,0,1,4.26-2.46,4.25,4.25,0,0,1,2.64.89,5.35,5.35,0,0,1,1.74,2.34,5.89,5.89,0,0,1,2.11-2.41,5.1,5.1,0,0,1,2.75-.82,5.2,5.2,0,0,1,3.86,1.66,6.16,6.16,0,0,1,1.62,4.48v8.26a0.84,0.84,0,0,1-.4.66,1.52,1.52,0,0,1-.94.3,1.47,1.47,0,0,1-.91-0.3,0.84,0.84,0,0,1-.4-0.65v-8.24a3.69,3.69,0,0,0-1-2.73,3.23,3.23,0,0,0-2.35-1,3.31,3.31,0,0,0-2.38,1,3.51,3.51,0,0,0-1,2.62v8.36a0.76,0.76,0,0,1-.4.69,1.8,1.8,0,0,1-.94.24,1.73,1.73,0,0,1-.91-0.24,0.76,0.76,0,0,1-.4-0.69v-8.33a3.69,3.69,0,0,0-1-2.63,3.11,3.11,0,0,0-2.35-1,3.29,3.29,0,0,0-2.4,1,3.66,3.66,0,0,0-1,2.71v8.24a0.84,0.84,0,0,1-.4.65,1.52,1.52,0,0,1-.94.3,1.5,1.5,0,0,1-.93-0.29A0.83,0.83,0,0,1,4918.57,1036.39Z" transform="translate(-4136.31 -400)"/><path class="l" d="M4943.75,1043.72v-20.61a0.78,0.78,0,0,1,.37-0.67,1.56,1.56,0,0,1,.91-0.26,1.47,1.47,0,0,1,.89.26,0.81,0.81,0,0,1,.35.68v1.33a4.89,4.89,0,0,1,1.7-1.75,4.72,4.72,0,0,1,2.59-.71,5.36,5.36,0,0,1,4.08,1.81,6.15,6.15,0,0,1,1.68,4.34v3.26a6.28,6.28,0,0,1-1.7,4.32,5.15,5.15,0,0,1-3.94,1.89,4.77,4.77,0,0,1-2.58-.73,4.57,4.57,0,0,1-1.71-1.8v8.64a0.85,0.85,0,0,1-.4.66,1.51,1.51,0,0,1-.94.3,1.5,1.5,0,0,1-.93-0.29A0.83,0.83,0,0,1,4943.75,1043.72Zm2.66-11.47a2.9,2.9,0,0,0,1.1,1.86,3.53,3.53,0,0,0,2.51,1.07,3.42,3.42,0,0,0,2.54-1.16,3.71,3.71,0,0,0,1.1-2.62v-3.24a3.62,3.62,0,0,0-1.1-2.58,3.5,3.5,0,0,0-2.61-1.15,3.47,3.47,0,0,0-2.48,1,3.56,3.56,0,0,0-1.07,2.69v4.1Z" transform="translate(-4136.31 -400)"/><path class="l" d="M4958.95,1031.4V1028a5.7,5.7,0,0,1,1.87-4.26,6.27,6.27,0,0,1,4.5-1.79,6.18,6.18,0,0,1,4.32,1.67,5.44,5.44,0,0,1,1.82,4.19,4.15,4.15,0,0,1-.22,1.51,1.48,1.48,0,0,1-.69.81,2.87,2.87,0,0,1-.86.31,7.07,7.07,0,0,1-1.07.06h-7v1a3.48,3.48,0,0,0,1.26,2.82,4.94,4.94,0,0,0,3.28,1.06,4.85,4.85,0,0,0,1.84-.32,8.12,8.12,0,0,0,1.27-.62,1.58,1.58,0,0,1,.77-0.3,1,1,0,0,1,.77.4,1.3,1.3,0,0,1,.32.82q0,0.74-1.46,1.5a7.65,7.65,0,0,1-3.6.77,7.55,7.55,0,0,1-5.12-1.71A5.65,5.65,0,0,1,4958.95,1031.4Zm2.66-2.69h5.92a2.07,2.07,0,0,0,1.12-.21,1,1,0,0,0,.29-0.82,3.52,3.52,0,0,0-1.06-2.53,3.47,3.47,0,0,0-2.59-1.09,3.68,3.68,0,0,0-2.59,1,3.25,3.25,0,0,0-1.09,2.48v1.15Z" transform="translate(-4136.31 -400)"/><path class="l" d="M4974.34,1032.52V1016a0.78,0.78,0,0,1,.42-0.66,1.61,1.61,0,0,1,.9-0.27,1.66,1.66,0,0,1,.93.27,0.78,0.78,0,0,1,.42.66v6.14h4a0.68,0.68,0,0,1,.58.32,1.24,1.24,0,0,1,.22.74,1.18,1.18,0,0,1-.22.72,0.69,0.69,0,0,1-.58.3h-4v8.18a2.56,2.56,0,0,0,.59,1.92,3,3,0,0,0,2.06.56h1a1.06,1.06,0,0,1,.85.35,1.25,1.25,0,0,1,.3.85,1.28,1.28,0,0,1-.32.87,1.06,1.06,0,0,1-.83.37h-1Q4974.34,1037.35,4974.34,1032.52Z" transform="translate(-4136.31 -400)"/><path class="l" d="M4984.47,1017.56a1.42,1.42,0,0,1-.5-1.07,1.4,1.4,0,0,1,.48-1.06,1.67,1.67,0,0,1,1.19-.45,1.62,1.62,0,0,1,1.15.45,1.4,1.4,0,0,1,.48,1.06,1.45,1.45,0,0,1-.48,1.07,1.59,1.59,0,0,1-1.15.46A1.65,1.65,0,0,1,4984.47,1017.56Zm-0.14,18.83v-13.28a0.77,0.77,0,0,1,.38-0.67,1.64,1.64,0,0,1,.93-0.26,1.7,1.7,0,0,1,1,.26,0.78,0.78,0,0,1,.38.67v13.28a0.85,0.85,0,0,1-.4.66,1.52,1.52,0,0,1-.94.3,1.5,1.5,0,0,1-.93-0.29A0.83,0.83,0,0,1,4984.33,1036.39Z" transform="translate(-4136.31 -400)"/><path class="l" d="M4990.69,1032.52V1016a0.78,0.78,0,0,1,.42-0.66,1.61,1.61,0,0,1,.9-0.27,1.66,1.66,0,0,1,.93.27,0.78,0.78,0,0,1,.42.66v6.14h4a0.68,0.68,0,0,1,.58.32,1.24,1.24,0,0,1,.22.74,1.18,1.18,0,0,1-.22.72,0.69,0.69,0,0,1-.58.3h-4v8.18a2.56,2.56,0,0,0,.59,1.92,3,3,0,0,0,2.06.56h1a1.06,1.06,0,0,1,.85.35,1.25,1.25,0,0,1,.3.85,1.28,1.28,0,0,1-.32.87,1.06,1.06,0,0,1-.83.37h-1Q4990.69,1037.35,4990.69,1032.52Z" transform="translate(-4136.31 -400)"/><path class="l" d="M5000.82,1017.56a1.42,1.42,0,0,1-.5-1.07,1.4,1.4,0,0,1,.48-1.06,1.67,1.67,0,0,1,1.19-.45,1.62,1.62,0,0,1,1.15.45,1.4,1.4,0,0,1,.48,1.06,1.45,1.45,0,0,1-.48,1.07,1.59,1.59,0,0,1-1.15.46A1.65,1.65,0,0,1,5000.82,1017.56Zm-0.14,18.83v-13.28a0.77,0.77,0,0,1,.38-0.67,1.64,1.64,0,0,1,.93-0.26,1.7,1.7,0,0,1,1,.26,0.78,0.78,0,0,1,.38.67v13.28a0.85,0.85,0,0,1-.4.66,1.52,1.52,0,0,1-.94.3,1.5,1.5,0,0,1-.93-0.29A0.83,0.83,0,0,1,5000.68,1036.39Z" transform="translate(-4136.31 -400)"/><path class="l" d="M5006.53,1031.4v-3.26a5.85,5.85,0,0,1,1.87-4.3,6.11,6.11,0,0,1,4.43-1.84,6.19,6.19,0,0,1,4.45,1.82,5.81,5.81,0,0,1,1.89,4.32v3.26a5.92,5.92,0,0,1-1.9,4.32,6.15,6.15,0,0,1-8.85,0A5.92,5.92,0,0,1,5006.53,1031.4Zm2.66,0a3.72,3.72,0,0,0,1.09,2.64,3.45,3.45,0,0,0,5.15,0,3.74,3.74,0,0,0,1.09-2.62v-3.24a3.65,3.65,0,0,0-1.09-2.58,3.46,3.46,0,0,0-2.59-1.15,3.4,3.4,0,0,0-2.58,1.15,3.68,3.68,0,0,0-1.07,2.58v3.24Z" transform="translate(-4136.31 -400)"/><path class="l" d="M5022.37,1036.39v-13.28a0.79,0.79,0,0,1,.37-0.67,1.63,1.63,0,0,1,.95-0.26,1.38,1.38,0,0,1,.85.28,0.81,0.81,0,0,1,.37.67v1.33a4.35,4.35,0,0,1,1.65-1.75,4.86,4.86,0,0,1,2.64-.71,5.23,5.23,0,0,1,4,1.81,6.14,6.14,0,0,1,1.68,4.34v8.26a0.79,0.79,0,0,1-.4.7,1.71,1.71,0,0,1-.94.26,1.66,1.66,0,0,1-.91-0.25,0.8,0.8,0,0,1-.4-0.7v-8.24a3.66,3.66,0,0,0-1.09-2.58,3.41,3.41,0,0,0-2.56-1.15,3.38,3.38,0,0,0-2.43,1,3.62,3.62,0,0,0-1.05,2.7v8.24a0.84,0.84,0,0,1-.42.65,1.54,1.54,0,0,1-.93.3,1.5,1.5,0,0,1-.93-0.29A0.83,0.83,0,0,1,5022.37,1036.39Z" transform="translate(-4136.31 -400)"/><path class="l" d="M5037.54,1035.18a1.44,1.44,0,0,1,.27-0.82,0.79,0.79,0,0,1,.66-0.4,1.39,1.39,0,0,1,.74.4,5.68,5.68,0,0,0,1.38.78,5.34,5.34,0,0,0,2.11.38,3.68,3.68,0,0,0,2.32-.58,1.8,1.8,0,0,0,.72-1.46,2.05,2.05,0,0,0-.8-1.7,5.52,5.52,0,0,0-2-1q-1.15-.32-2.3-0.71a4.47,4.47,0,0,1-2-1.29,3.49,3.49,0,0,1-.8-2.4,4.31,4.31,0,0,1,1.3-3.12,5.32,5.32,0,0,1,4-1.32,9,9,0,0,1,3.11.51q1.41,0.51,1.41,1.16a1.65,1.65,0,0,1-.3.86,0.88,0.88,0,0,1-.75.48,7.83,7.83,0,0,1-1.23-.47,5.58,5.58,0,0,0-2.19-.47,3,3,0,0,0-2.19.7,2.14,2.14,0,0,0-.72,1.57,1.61,1.61,0,0,0,.8,1.42,6.49,6.49,0,0,0,2,.81,22.71,22.71,0,0,1,2.32.71,4.35,4.35,0,0,1,2,1.44,4.15,4.15,0,0,1,.8,2.64,3.79,3.79,0,0,1-1.41,3.11,6.1,6.1,0,0,1-3.94,1.14,8.08,8.08,0,0,1-3.71-.78Q5037.54,1036,5037.54,1035.18Z" transform="translate(-4136.31 -400)"/><path class="l" d="M5057,1029.69a1.28,1.28,0,0,1,.26-0.8,0.81,0.81,0,0,1,.67-0.33h8.32a0.87,0.87,0,0,1,.67.33,1.18,1.18,0,0,1,.29.8,1.12,1.12,0,0,1-.29.79,0.88,0.88,0,0,1-.67.32H5058A0.91,0.91,0,0,1,5057,1029.69Z" transform="translate(-4136.31 -400)"/><path class="l" d="M5077.41,1036.43v-21.5a0.81,0.81,0,0,1,.37-0.7,1.44,1.44,0,0,1,.85-0.26h11.26a0.79,0.79,0,0,1,.69.35,1.45,1.45,0,0,1,.24.83,1.57,1.57,0,0,1-.24.9,0.79,0.79,0,0,1-.69.35h-9.79v8.13h5a0.79,0.79,0,0,1,.69.34,1.37,1.37,0,0,1,.24.82,1.26,1.26,0,0,1-.24.75,0.79,0.79,0,0,1-.69.34h-5v9.66a0.76,0.76,0,0,1-.4.69,2,2,0,0,1-1.89,0A0.76,0.76,0,0,1,5077.41,1036.43Z" transform="translate(-4136.31 -400)"/><path class="l" d="M5089.57,1031.47v-8.32a0.82,0.82,0,0,1,.4-0.67,1.57,1.57,0,0,1,.94-0.29,1.47,1.47,0,0,1,.91.3,0.84,0.84,0,0,1,.4.65v8.3a3.67,3.67,0,0,0,1.09,2.59,3.48,3.48,0,0,0,5.15,0,3.65,3.65,0,0,0,1.09-2.6v-8.33a0.8,0.8,0,0,1,.4-0.64,1.74,1.74,0,0,1,1.89,0,0.8,0.8,0,0,1,.37.66v8.35a5.85,5.85,0,0,1-1.87,4.3,6.3,6.3,0,0,1-8.9,0A5.85,5.85,0,0,1,5089.57,1031.47Z" transform="translate(-4136.31 -400)"/><path class="l" d="M5105.86,1036.39v-13.28a0.79,0.79,0,0,1,.37-0.67,1.63,1.63,0,0,1,.95-0.26,1.38,1.38,0,0,1,.85.28,0.81,0.81,0,0,1,.37.67v1.33a4.35,4.35,0,0,1,1.65-1.75,4.86,4.86,0,0,1,2.64-.71,5.23,5.23,0,0,1,4,1.81,6.14,6.14,0,0,1,1.68,4.34v8.26a0.79,0.79,0,0,1-.4.7,1.71,1.71,0,0,1-.94.26,1.66,1.66,0,0,1-.91-0.25,0.8,0.8,0,0,1-.4-0.7v-8.24a3.66,3.66,0,0,0-1.09-2.58,3.41,3.41,0,0,0-2.56-1.15,3.38,3.38,0,0,0-2.43,1,3.62,3.62,0,0,0-1.05,2.7v8.24a0.84,0.84,0,0,1-.42.65,1.54,1.54,0,0,1-.93.3,1.5,1.5,0,0,1-.93-0.29A0.83,0.83,0,0,1,5105.86,1036.39Z" transform="translate(-4136.31 -400)"/><path class="l" d="M5121.73,1036a1.38,1.38,0,0,1,.52-1.09,1.88,1.88,0,0,1,1.27-.45,1.45,1.45,0,0,1,1.06.45,1.49,1.49,0,0,1,.44,1.09,1.52,1.52,0,0,1-1.51,1.51,1.88,1.88,0,0,1-1.27-.45A1.35,1.35,0,0,1,5121.73,1036Zm0.38-21a1.34,1.34,0,0,1,.38-1,1.38,1.38,0,0,1,1-.37,1.29,1.29,0,0,1,.93.37,1.34,1.34,0,0,1,.38,1q0,2.46-.18,7.92t-0.18,8a0.75,0.75,0,0,1-.32.62,1.06,1.06,0,0,1-.64.24,1,1,0,0,1-.68-0.22,0.78,0.78,0,0,1-.28-0.64q0-2.5-.21-8T5122.12,1015Z" transform="translate(-4136.31 -400)"/><text x="-4136.31" y="-400"/></g></svg>