<svg id="Layer_1" data-name="Layer 1" xmlns="http://www.w3.org/2000/svg" xmlns:xlink="http://www.w3.org/1999/xlink" width="1422.02" height="449.94" viewBox="0 0 1422.02 449.94"><defs><style>.cls-1,.cls-5{fill:#fff;}.cls-2{fill:#dcf5ff;}.cls-3{fill:#1d1737;}.cls-4{mask:url(#mask);}.cls-5{stroke:#1d1737;stroke-linecap:round;stroke-linejoin:round;stroke-width:3px;}</style><mask id="mask" x="0.06" y="0" width="1421.96" height="449.94" maskUnits="userSpaceOnUse"><rect id="_Rectangle_" data-name="&lt;Rectangle&gt;" class="cls-1" x="0.06" y="0.02" width="1421.61" height="441.97"/></mask></defs><title>RARE-lightning-background</title><g id="Footer"><polygon class="cls-2" points="1421.61 0 1337.82 0 36.65 0 18.06 0 8.75 0 0 0 0 441.97 0.07 441.97 0.14 258.83 0.07 441.97 1421.61 441.97 1421.61 0"/><polygon class="cls-3" points="0.06 440.59 0.06 449.94 0.07 440.59 0.06 440.59"/><rect class="cls-3" x="0.06" y="440.59" width="1421.61" height="9.35"/><g class="cls-4"><g id="BG"><polygon class="cls-3" points="1216.78 449.94 1258.97 449.94 1422.02 336.72 1421.86 226.37 1216.78 449.94"/><polygon class="cls-3" points="1300.57 185.51 1421.85 216.82 1421.69 110.5 1300.57 185.51"/><polygon class="cls-3" points="1063.95 449.94 1149.91 449.94 1337.88 217.51 1103.28 421.03 1084.64 347.56 987.01 449.94 1063.83 449.94 1063.93 449.86 1063.95 449.94"/><polygon class="cls-3" points="39.11 284.57 20.47 358.04 0.11 340.37 0.08 419.38 24.78 449.94 42.74 449.94 59.81 386.87 152.22 449.94 196.81 449.94 39.11 284.57"/><polygon class="cls-3" points="444.51 420.99 34.2 0 18.93 0 330.14 417.72 125.49 318.72 306.85 449.92 461.29 449.92 479.37 358.9 444.51 420.99"/></g></g><g id="Foreground_Icons" data-name="Foreground Icons"><polygon class="cls-5" points="300.19 93.42 309.74 105.17 323.89 99.79 315.67 112.5 325.16 124.3 310.53 120.4 302.24 133.08 301.42 117.96 286.81 113.99 300.94 108.54 300.19 93.42"/><polygon class="cls-5" points="1323.92 48.47 1246.5 95.08 1272.41 102.11 1213.66 164.57 1311.95 98.13 1284.25 90.85 1323.92 48.47"/><polygon class="cls-5" points="53.46 179.63 67.07 201.12 91.75 194.93 75.52 214.52 89.03 236.07 65.39 226.69 49.06 246.2 50.68 220.81 27.07 211.32 51.72 205.01 53.46 179.63"/><polygon class="cls-5" points="345.74 382.75 316.14 372.86 362.3 329.63 274.81 374.75 302.47 384.25 234.25 447.83 234.31 447.83 345.74 382.75"/><polygon class="cls-5" points="234.31 447.83 234.25 447.83 234.15 447.93 234.31 447.83"/><path class="cls-5" d="M1291.41,323.18a8.64,8.64,0,0,0-10.77,5.76l-7.56,25-50.71-15.37-7.84,25.88a23.43,23.43,0,0,0,15.63,29.22l22.39,6.78a23.43,23.43,0,0,0,29.22-15.63l5.81-19.16,2-6.71,7.56-25A8.64,8.64,0,0,0,1291.41,323.18Z"/><rect class="cls-5" x="1237.23" y="331.83" width="17.27" height="38.61" rx="8.64" ry="8.64" transform="translate(155.36 -346.19) rotate(16.86)"/><rect class="cls-5" x="1254.89" y="337.19" width="17.27" height="38.61" rx="8.64" ry="8.64" transform="translate(157.67 -351.09) rotate(16.86)"/><rect class="cls-5" x="1225.84" y="298.75" width="17.27" height="58.5" rx="8.64" ry="8.64" transform="translate(148.16 -343.89) rotate(16.86)"/><path class="cls-5" d="M1227.58,333.2h0a8.64,8.64,0,0,1,8.64,8.64v24a6,6,0,0,1-6,6h0a11.31,11.31,0,0,1-11.31-11.31V341.83a8.64,8.64,0,0,1,8.64-8.64Z" transform="translate(534.24 1425.11) rotate(-73.14)"/></g></g></svg>