<svg xmlns="http://www.w3.org/2000/svg" viewBox="0 0 1422 660.13"><defs><style>.a{isolation:isolate;}.b,.d{fill:#dcf5ff;}.c,.e{fill:#fff;}.c{opacity:0.75;}.d{opacity:0.25;mix-blend-mode:multiply;}.f{fill:#fceede;}.g{fill:#efcdad;}</style></defs><title>The-Ember-Show-Header-Background</title><g class="a"><rect class="b" width="1422" height="528"/><rect class="c" y="466.53" width="1422" height="52.59"/><rect class="d" y="461.53" width="1422" height="5"/><rect class="e" y="509.45" width="1422" height="9.67"/><rect class="f" y="519.13" width="1422" height="141"/><path class="g" d="M2641,520.5H1621a1.5,1.5,0,0,1,0-3H2641A1.5,1.5,0,0,1,2641,520.5Z" transform="translate(-1590 0.13)"/><path class="g" d="M2669,520.5h-10a1.5,1.5,0,0,1,0-3h10A1.5,1.5,0,0,1,2669,520.5Z" transform="translate(-1590 0.13)"/><path class="g" d="M1972,557H1746a1.5,1.5,0,0,1,0-3h226A1.5,1.5,0,0,1,1972,557Z" transform="translate(-1590 0.13)"/><path class="g" d="M2130.5,591.5h-226a1.5,1.5,0,0,1,0-3h226A1.5,1.5,0,0,1,2130.5,591.5Z" transform="translate(-1590 0.13)"/><path class="g" d="M1822.5,626.5h-226a1.5,1.5,0,0,1,0-3h226A1.5,1.5,0,0,1,1822.5,626.5Z" transform="translate(-1590 0.13)"/><path class="g" d="M1850,573.5a1.5,1.5,0,0,1-1.5-1.5V561a1.5,1.5,0,0,1,3,0v11A1.5,1.5,0,0,1,1850,573.5Z" transform="translate(-1590 0.13)"/><path class="g" d="M2058,585.5a1.5,1.5,0,0,1-1.5-1.5V573a1.5,1.5,0,0,1,3,0v11A1.5,1.5,0,0,1,2058,585.5Z" transform="translate(-1590 0.13)"/><path class="g" d="M1762.5,644.5a1.5,1.5,0,0,1-1.5-1.5V632a1.5,1.5,0,0,1,3,0v11A1.5,1.5,0,0,1,1762.5,644.5Z" transform="translate(-1590 0.13)"/><path class="g" d="M1720.5,591.5h-86a1.5,1.5,0,0,1,0-3h86A1.5,1.5,0,0,1,1720.5,591.5Z" transform="translate(-1590 0.13)"/><path class="g" d="M2940.5,591.5h-226a1.5,1.5,0,0,1,0-3h226A1.5,1.5,0,0,1,2940.5,591.5Z" transform="translate(-1590 0.13)"/><path class="g" d="M2767.83,556.83h-226a1.5,1.5,0,0,1,0-3h226A1.5,1.5,0,0,1,2767.83,556.83Z" transform="translate(-1590 0.13)"/><path class="g" d="M2758.83,626.5h-226a1.5,1.5,0,0,1,0-3h226A1.5,1.5,0,0,1,2758.83,626.5Z" transform="translate(-1590 0.13)"/><path class="g" d="M2999.5,626.5h-46a1.5,1.5,0,0,1,0-3h46A1.5,1.5,0,0,1,2999.5,626.5Z" transform="translate(-1590 0.13)"/><path class="g" d="M2577.33,550.5a1.5,1.5,0,0,1-1.5-1.5V538a1.5,1.5,0,0,1,3,0v11A1.5,1.5,0,0,1,2577.33,550.5Z" transform="translate(-1590 0.13)"/><path class="g" d="M2772,609.83a1.5,1.5,0,0,1-1.5-1.5v-11a1.5,1.5,0,1,1,3,0v11A1.5,1.5,0,0,1,2772,609.83Z" transform="translate(-1590 0.13)"/><path class="g" d="M2644.67,645.17a1.5,1.5,0,0,1-1.5-1.5v-11a1.5,1.5,0,0,1,3,0v11A1.5,1.5,0,0,1,2644.67,645.17Z" transform="translate(-1590 0.13)"/><path class="g" d="M2122.5,626.5h-86a1.5,1.5,0,0,1,0-3h86A1.5,1.5,0,0,1,2122.5,626.5Z" transform="translate(-1590 0.13)"/><path class="g" d="M2566.5,591.5h-86a1.5,1.5,0,0,1,0-3h86A1.5,1.5,0,0,1,2566.5,591.5Z" transform="translate(-1590 0.13)"/><path class="g" d="M2951,520.5h-80a1.5,1.5,0,0,1,0-3h80A1.5,1.5,0,0,1,2951,520.5Z" transform="translate(-1590 0.13)"/></g></svg>