<svg xmlns="http://www.w3.org/2000/svg" width="1422" height="660.13" viewBox="0 0 1422 660.13"><defs><style>.a{isolation:isolate;}.b,.n,.o,.p,.r,.t{fill:none;}.c{fill:#dcf5ff;}.d{opacity:0.75;}.e{fill:#fff;}.f{opacity:0.25;mix-blend-mode:multiply;}.g{fill:#a67c52;}.h{fill:#875b32;}.i{fill:#e04a30;}.j{fill:#a83324;}.k,.l{fill:#af8052;}.k,.t{stroke:#7d4921;}.k,.n,.o{stroke-miterlimit:10;}.k,.o,.p,.q,.r,.t{stroke-width:2px;}.m{fill:#ffbfb6;}.n,.o,.p{stroke:#e08379;}.n,.o,.p,.q,.r,.t{stroke-linecap:round;}.n{stroke-width:3px;}.p,.q,.r,.t{stroke-linejoin:round;}.q,.u{fill:#332924;}.q,.r{stroke:#191311;}.s{fill:#d85c72;mix-blend-mode:screen;}.af,.s{opacity:0.5;}.v{fill:#191311;}.w{fill:#fceede;}.x{fill:#efcdad;}.y{fill:#435363;}.z{fill:#263644;}.aa{fill:#e6e7e8;}.ab{fill:#a3a5a8;}.ac{fill:#e24c32;}.ad{fill:#4d4d4d;}.ae{fill:#333;}.ag{fill:#ccc;}.ah{fill:gray;}.ai{mix-blend-mode:color;}.aj{fill:#57c9e8;}.ak{fill:#f65097;}.al{fill:#c4e86b;}.am{fill:#ff6b00;}.an{fill:#242b2d;}.ao{fill:#151819;}.ap{fill:#a9a4df;}.aq{fill:#c4c6c8;}.ar{fill:#afebf9;}.as{fill:#61b8c6;}.at{fill:#666;}.au{fill:#d12c7b;}.av{fill:#988794;}.aw{fill:#60505d;}.ax{fill:#73984a;}.ay{fill:#98c163;}.az{fill:#d7f9aa;}</style></defs><title>Global-Meetup-Header-2</title><g class="a"><rect class="b" width="1422" height="660.13"/><path class="c" d="M2938.63,47V430h-254V47h254m8-8h-270V438h270V39h0Z" transform="translate(-1590 0.13)"/><g class="d"><path class="e" d="M2938.63,47V430h-254V47h254m8-8h-270V438h270V39h0Z" transform="translate(-1590 0.13)"/></g><path class="c" d="M2930.63,55V422h-238V55h238m8-8h-254V430h254V47h0Z" transform="translate(-1590 0.13)"/><g class="f"><path class="c" d="M2930.63,55V422h-238V55h238m8-8h-254V430h254V47h0Z" transform="translate(-1590 0.13)"/></g><path class="c" d="M2588.63,47V430h-254V47h254m8-8h-270V438h270V39h0Z" transform="translate(-1590 0.13)"/><g class="d"><path class="e" d="M2588.63,47V430h-254V47h254m8-8h-270V438h270V39h0Z" transform="translate(-1590 0.13)"/></g><path class="c" d="M2580.63,55V422h-238V55h238m8-8h-254V430h254V47h0Z" transform="translate(-1590 0.13)"/><g class="f"><path class="c" d="M2580.63,55V422h-238V55h238m8-8h-254V430h254V47h0Z" transform="translate(-1590 0.13)"/></g><path class="c" d="M2238.63,47V430h-254V47h254m8-8h-270V438h270V39h0Z" transform="translate(-1590 0.13)"/><g class="d"><path class="e" d="M2238.63,47V430h-254V47h254m8-8h-270V438h270V39h0Z" transform="translate(-1590 0.13)"/></g><path class="c" d="M2230.63,55V422h-238V55h238m8-8h-254V430h254V47h0Z" transform="translate(-1590 0.13)"/><g class="f"><path class="c" d="M2230.63,55V422h-238V55h238m8-8h-254V430h254V47h0Z" transform="translate(-1590 0.13)"/></g><path class="c" d="M1888.63,47V430h-254V47h254m8-8h-270V438h270V39h0Z" transform="translate(-1590 0.13)"/><g class="d"><path class="e" d="M1888.63,47V430h-254V47h254m8-8h-270V438h270V39h0Z" transform="translate(-1590 0.13)"/></g><path class="c" d="M1880.63,55V422h-238V55h238m8-8h-254V430h254V47h0Z" transform="translate(-1590 0.13)"/><g class="f"><path class="c" d="M1880.63,55V422h-238V55h238m8-8h-254V430h254V47h0Z" transform="translate(-1590 0.13)"/></g><polygon class="g" points="961.5 529.13 920.5 529.13 910.5 485.63 961.5 485.63 961.5 529.13"/><path class="h" d="M2551.5,531.5h-41a2.5,2.5,0,0,1-2.44-1.94l-10-43.5a2.5,2.5,0,0,1,2.44-3.06h51a2.5,2.5,0,0,1,2.5,2.5V529A2.5,2.5,0,0,1,2551.5,531.5Zm-39-5H2549V488h-45.36Z" transform="translate(-1590 0.13)"/><polygon class="g" points="460.5 529.13 501.5 529.13 511.5 485.63 460.5 485.63 460.5 529.13"/><path class="h" d="M2091.5,531.5h-41a2.5,2.5,0,0,1-2.5-2.5V485.5a2.5,2.5,0,0,1,2.5-2.5h51a2.5,2.5,0,0,1,2.44,3.06l-10,43.5A2.5,2.5,0,0,1,2091.5,531.5Zm-38.5-5h36.51l8.85-38.5H2053v38.5Z" transform="translate(-1590 0.13)"/><rect class="i" x="466.08" y="400.13" width="490" height="105.69"/><path class="j" d="M2548.58,508.19h-495V397.5h495V508.19Zm-490-5h485V402.5h-485V503.19Z" transform="translate(-1590 0.13)"/><path class="i" d="M537.9,296.13H884.26a76.32,76.32,0,0,1,76.32,76.32v62.68a0,0,0,0,1,0,0h-499a0,0,0,0,1,0,0V372.44A76.32,76.32,0,0,1,537.9,296.13Z"/><path class="j" d="M2553.08,437.5h-504V372.32a78.91,78.91,0,0,1,78.82-78.82h346.36a78.91,78.91,0,0,1,78.82,78.82V437.5Zm-499-5h494V372.32a73.9,73.9,0,0,0-73.82-73.82H2127.9a73.9,73.9,0,0,0-73.82,73.82V432.5Z" transform="translate(-1590 0.13)"/><path class="i" d="M450.5,369.81h1.17a35.41,35.41,0,0,1,35.41,35.41v79.94a21.65,21.65,0,0,1-21.65,21.65H436.73a21.65,21.65,0,0,1-21.65-21.65V405.23A35.41,35.41,0,0,1,450.5,369.81Z"/><path class="j" d="M2055.44,509.19h-28.71A24.17,24.17,0,0,1,2002.58,485V405.1a38,38,0,0,1,37.92-37.92h1.17a38,38,0,0,1,37.91,37.92V485A24.17,24.17,0,0,1,2055.44,509.19Zm-14.94-137a33,33,0,0,0-32.92,32.92V485a19.17,19.17,0,0,0,19.15,19.15h28.71A19.17,19.17,0,0,0,2074.58,485V405.1a33,33,0,0,0-32.91-32.92h-1.17Z" transform="translate(-1590 0.13)"/><path class="i" d="M970.49,369.81h1.18a35.41,35.41,0,0,1,35.41,35.41v79.94a21.65,21.65,0,0,1-21.65,21.65H956.73a21.65,21.65,0,0,1-21.65-21.65V405.22a35.41,35.41,0,0,1,35.41-35.41Z"/><path class="j" d="M2575.44,509.19h-28.71A24.17,24.17,0,0,1,2522.58,485V405.1a38,38,0,0,1,37.91-37.91h1.18a38,38,0,0,1,37.91,37.91V485A24.17,24.17,0,0,1,2575.44,509.19Zm-14.94-137a33,33,0,0,0-32.91,32.91V485a19.17,19.17,0,0,0,19.15,19.15h28.71A19.17,19.17,0,0,0,2594.58,485V405.1a33,33,0,0,0-32.91-32.91h-1.18Z" transform="translate(-1590 0.13)"/><rect class="k" x="697.17" y="287.43" width="28.74" height="24.45"/><rect class="l" x="671.39" y="305.14" width="80.3" height="26.36"/><rect class="k" x="749.47" y="333.36" width="17.25" height="65.42"/><rect class="k" x="655.31" y="333.36" width="17.25" height="30.35"/><path class="m" d="M2331.8,411.4h-61.22l-10.95-106.5h27.56c0.65,9.59,4.9,18.09,13.82,25.18,8.62-5.85,13.17-14.54,14.92-25.18h26.82Z" transform="translate(-1590 0.13)"/><path class="m" d="M665.24,304.31h2.41A12.68,12.68,0,0,1,680.33,317v25.23a0,0,0,0,1,0,0H652.56a0,0,0,0,1,0,0V317A12.68,12.68,0,0,1,665.24,304.31Z"/><path class="m" d="M754.37,304.31h2.41A12.68,12.68,0,0,1,769.45,317v25.23a0,0,0,0,1,0,0H741.69a0,0,0,0,1,0,0V317A12.68,12.68,0,0,1,754.37,304.31Z"/><path class="n" d="M2287.19,304.9c0,15.16,13,24.94,13.82,25.18s11.74-7.21,15.33-25.08" transform="translate(-1590 0.13)"/><line class="o" x1="671.59" y1="305.14" x2="696.37" y2="305.14"/><line class="o" x1="726.34" y1="305.14" x2="751.11" y2="305.14"/><path class="p" d="M2339.79,342.1h19.44v-24a13.88,13.88,0,0,0-13.88-13.88h0a13.89,13.89,0,0,0-13,9" transform="translate(-1590 0.13)"/><path class="p" d="M2263.1,342.1h-20.54v-24a13.88,13.88,0,0,1,13.88-13.88h0a13.89,13.89,0,0,1,13,9" transform="translate(-1590 0.13)"/><path class="p" d="M2334.23,389.32c0.18-.55,5.57-53.79,5.57-53.79" transform="translate(-1590 0.13)"/><path class="q" d="M2347.28,239.59c-4.38,14.23-1,26.86-1.23,30-0.76,10.12-12.93,20.35-39,19.85-7.71-.15-26.14-8.35-26.42-7.39S2347.7,238.24,2347.28,239.59Z" transform="translate(-1590 0.13)"/><path class="o" d="M2275.64,319.8" transform="translate(-1590 0.13)"/><path class="q" d="M2287.93,283.67c-0.27-1.92-4.76-5.69-5.06-4.24-0.17.81-.46,2.48-0.86,4.57a58.75,58.75,0,0,0-5.82-4.15c-3.53-4.5-12.66-14.77-13.13-12.79-1.44,6.12-1.1,22.19,2,29.28-9.16,14.18-3.55,25.44-2,28-5.1,11.24-1.72,19.83,1.68,22.53,0.16-.44.38-1,0.63-1.51,1.46,4.36,5.49,10.53,6.58,9.72,1.37-1,12-9.76,2.83-25.37-0.2-.34-1.34.56-2.78,2,0.5-1,1-2,1.39-2.94,9.62-9.53,7.44-17.88,4.94-22.84,1.19-.46,5.35-2.7,7.06-5.38C2287.24,297.63,2288.2,285.58,2287.93,283.67Z" transform="translate(-1590 0.13)"/><path class="r" d="M2277.19,282.12c-0.82,2-10.95,12.59-12,14.51" transform="translate(-1590 0.13)"/><path class="r" d="M2260.4,316.79c0,1.19,2.37,7.3,2.83,7.94,1.76-7.76,8.67-12.07,9.83-17.2" transform="translate(-1590 0.13)"/><path class="r" d="M2260.22,336.41c0.55,3.38,2,8.67,4.47,10.49,1.46-4.65,9.95-17.61,10.49-21.08" transform="translate(-1590 0.13)"/><path class="r" d="M2271.9,355.11c3.19-1.64,8.12-10.31,6-17.88" transform="translate(-1590 0.13)"/><path class="r" d="M2270.62,313.59c1.73,2.37,4.74,9.58,4.47,12.59" transform="translate(-1590 0.13)"/><path class="r" d="M2272.36,292.43c0.64,8.49,11.13,16.79,6.93,27.19" transform="translate(-1590 0.13)"/><path class="k" d="M2300.74,293.24c-10.57,0-35-15.67-35-35V230.38a35,35,0,0,1,35-35h0a35,35,0,0,1,35,35v27.86C2335.74,277.57,2311.31,293.24,2300.74,293.24Z" transform="translate(-1590 0.13)"/><circle class="s" cx="685.96" cy="262.57" r="6.37"/><circle class="s" cx="736.33" cy="262.57" r="6.37"/><path class="t" d="M2294.53,263.18c0.35,2.75,3.12,4.88,6.5,4.88s6.15-2.14,6.5-4.88" transform="translate(-1590 0.13)"/><path class="e" d="M2312.25,245.88c0-2.7,14.13-10.12,19.58,2.31,0.25,1.38-2.45,1.81-3.2,2.19S2315.5,254,2312.25,245.88Z" transform="translate(-1590 0.13)"/><path class="e" d="M2290.43,245.86c0-2.7-14.12-10.12-19.58,2.31-0.25,1.38,2.45,1.81,3.2,2.19S2287.18,254,2290.43,245.86Z" transform="translate(-1590 0.13)"/><path class="u" d="M2309,230.68l1.21-.52c0.81-.33,2-0.8,3.33-1.29s3-1,4.77-1.52a45.29,45.29,0,0,1,5.65-1.25,12.66,12.66,0,0,1,1.58-.13l0.49,0,0.15,0,0.09,0,0.17,0c0.23,0,.46.09,0.73,0.17a14,14,0,0,1,2.78,1.08,17.49,17.49,0,0,1,4.14,3,15.93,15.93,0,0,1,2.28,2.78c0.25,0.36.4,0.66,0.52,0.86l0.18,0.31a0.5,0.5,0,0,1-.85.53l0,0-0.19-.27c-0.12-.18-0.29-0.45-0.55-0.76a14.7,14.7,0,0,0-2.31-2.39,15.93,15.93,0,0,0-4-2.43,12.26,12.26,0,0,0-2.43-.74,6.47,6.47,0,0,0-.66-0.1l-0.18,0h-0.09s0,0,0,0h-0.22a11,11,0,0,0-1.25.22,43.12,43.12,0,0,0-5.19,1.65c-1.64.62-3.15,1.27-4.43,1.85s-2.31,1.11-3,1.48l-1.16.62a1.79,1.79,0,1,1-1.7-3.15Z" transform="translate(-1590 0.13)"/><path class="u" d="M2311.12,245.35l0.76-.75a8.13,8.13,0,0,1,.94-0.84,12.59,12.59,0,0,1,1.34-1,13,13,0,0,1,1.69-1,14.35,14.35,0,0,1,2-.87,9.72,9.72,0,0,1,1.12-.32,7.26,7.26,0,0,1,1.18-.25c0.4-.05.81-0.13,1.22-0.15l1.25,0a11.37,11.37,0,0,1,2.47.36,11.25,11.25,0,0,1,2.29.85,10.94,10.94,0,0,1,1.89,1.29,9.43,9.43,0,0,1,1.44,1.45,9.83,9.83,0,0,1,1,1.4,6.83,6.83,0,0,1,.63,1.15l0.49,1a1,1,0,1,1-1.81.85h0l-0.05-.12-0.4-.9a5.41,5.41,0,0,0-.51-1,8,8,0,0,0-.81-1.2,7.6,7.6,0,0,0-1.17-1.23,9.09,9.09,0,0,0-1.54-1.1,9.46,9.46,0,0,0-1.89-.74,9.63,9.63,0,0,0-2.09-.35h-1.08c-0.36,0-.71.08-1.07,0.11a6,6,0,0,0-1,.2,8.28,8.28,0,0,0-1,.26,12.77,12.77,0,0,0-1.83.74,11.49,11.49,0,0,0-1.55.87,11.1,11.1,0,0,0-1.21.86,7,7,0,0,0-.9.77l-0.77.73A0.72,0.72,0,0,1,2311.12,245.35Z" transform="translate(-1590 0.13)"/><path class="u" d="M2333.88,242.52l-2.65,3a1,1,0,1,1-1.52-1.32,1.06,1.06,0,0,1,.17-0.16l3.28-2.34A0.53,0.53,0,0,1,2333.88,242.52Z" transform="translate(-1590 0.13)"/><path class="u" d="M2327.93,249.87l3.38-2.56a1,1,0,0,1,1.24,1.64,1.07,1.07,0,0,1-.22.13l-3.9,1.67A0.5,0.5,0,0,1,2327.93,249.87Z" transform="translate(-1590 0.13)"/><circle class="u" cx="730.52" cy="246.81" r="4.38"/><circle class="e" cx="732.75" cy="245.05" r="1.2"/><path class="u" d="M2291.46,233.9l-1.16-.62c-0.71-.37-1.73-0.9-3-1.48s-2.78-1.23-4.43-1.85a43.12,43.12,0,0,0-5.19-1.65,11,11,0,0,0-1.25-.22h-0.22s-0.07,0,0,0h-0.09l-0.18,0a6.47,6.47,0,0,0-.66.1,12.26,12.26,0,0,0-2.43.74,15.93,15.93,0,0,0-4,2.43,14.69,14.69,0,0,0-2.31,2.39c-0.26.31-.42,0.58-0.55,0.76l-0.19.27,0,0a0.5,0.5,0,0,1-.85-0.53l0.18-.31c0.12-.2.27-0.5,0.52-0.86a15.93,15.93,0,0,1,2.28-2.78,17.49,17.49,0,0,1,4.14-3,14,14,0,0,1,2.78-1.08c0.27-.08.5-0.12,0.73-0.17l0.17,0,0.09,0,0.15,0,0.49,0a12.66,12.66,0,0,1,1.58.13,45.29,45.29,0,0,1,5.65,1.25c1.76,0.49,3.39,1,4.77,1.52s2.53,1,3.33,1.29l1.21,0.52a1.79,1.79,0,0,1-1.42,3.29Z" transform="translate(-1590 0.13)"/><path class="u" d="M2289.93,246.38l-0.77-.73a7,7,0,0,0-.9-0.77,11.1,11.1,0,0,0-1.21-.86,11.49,11.49,0,0,0-1.55-.87,12.77,12.77,0,0,0-1.83-.74,8.28,8.28,0,0,0-1-.26,6,6,0,0,0-1-.2c-0.35,0-.71-0.1-1.07-0.11h-1.08a9.63,9.63,0,0,0-2.09.35,9.46,9.46,0,0,0-1.89.74A9.09,9.09,0,0,0,2274,244a7.6,7.6,0,0,0-1.17,1.23,8,8,0,0,0-.81,1.2,5.41,5.41,0,0,0-.51,1l-0.4.9-0.05.12a1,1,0,0,1-1.82-.81v0l0.49-1a6.83,6.83,0,0,1,.63-1.15,9.83,9.83,0,0,1,1-1.4,9.43,9.43,0,0,1,1.44-1.45,10.94,10.94,0,0,1,1.89-1.29,11.25,11.25,0,0,1,2.29-.85,11.37,11.37,0,0,1,2.47-.36l1.25,0c0.41,0,.82.1,1.22,0.15a7.26,7.26,0,0,1,1.18.25,9.72,9.72,0,0,1,1.12.32,14.35,14.35,0,0,1,2,.87,13,13,0,0,1,1.69,1,12.59,12.59,0,0,1,1.34,1,8.13,8.13,0,0,1,.94.84l0.76,0.75A0.72,0.72,0,0,1,2289.93,246.38Z" transform="translate(-1590 0.13)"/><path class="u" d="M2268.89,241.74l3.28,2.34a1,1,0,0,1-1.17,1.64,1.06,1.06,0,0,1-.17-0.16l-2.65-3A0.53,0.53,0,0,1,2268.89,241.74Z" transform="translate(-1590 0.13)"/><path class="u" d="M2273.61,250.73l-3.9-1.67a1,1,0,0,1,.81-1.89,1.07,1.07,0,0,1,.22.13l3.38,2.56A0.5,0.5,0,0,1,2273.61,250.73Z" transform="translate(-1590 0.13)"/><circle class="u" cx="691.53" cy="246.81" r="4.38"/><circle class="e" cx="693.76" cy="245.05" r="1.2"/><path class="e" d="M2286,274.83h30s-1.81,9.65-15.75,9.65C2288.35,284.48,2286,274.83,2286,274.83Z" transform="translate(-1590 0.13)"/><path class="u" d="M2307,202.36a9.55,9.55,0,0,1,3.94-4.65c3.42,2.33,48,31.89,7.39,93.21,44.89-39.69,38.76-111.41-7.77-109.36-34.9-18.75-88.83,40.38-36.54,106.62-26-48.18,20-91.15,21.21-90.61S2303.2,200.58,2307,202.36Z" transform="translate(-1590 0.13)"/><path class="v" d="M2318.36,291.91a1,1,0,0,1-.83-1.55c16.68-25.16,21-47.84,12.89-67.42a56.55,56.55,0,0,0-19.45-24,8.48,8.48,0,0,0-3,3.73,1,1,0,0,1-.55.62,1,1,0,0,1-.82,0c-2.55-1.18-6.45-2.7-9-3.7l-2.31-.91c-2.81,1.83-17.73,16.77-24.63,37.68-5.9,17.88-4.46,35.16,4.29,51.37a1,1,0,0,1-1.67,1.09c-31.61-40-24.21-76.45-8.27-95.45,12.87-15.35,31.25-20.47,45.83-12.8,16.14-.62,29,7.8,35.14,23.1,9.27,22.93,3,61.57-26.94,88A1,1,0,0,1,2318.36,291.91ZM2311,196.71a1,1,0,0,1,.56.17l0.09,0.06c7.77,5.27,43.47,33.47,11.86,87.66,24.23-25.44,29-59.46,20.63-80.2-6-14.77-17.84-22.55-33.47-21.84a1,1,0,0,1-.52-0.12c-13.76-7.39-31.28-2.49-43.6,12.19-14.42,17.19-21.56,49.15,2.6,85.1-14.16-38.22,13.63-71.13,19.75-77.74,5.48-5.92,6.34-5.54,6.8-5.34s1.37,0.56,2.63,1c2.31,0.9,5.68,2.21,8.23,3.33a11.37,11.37,0,0,1,3.9-4.17A1,1,0,0,1,2311,196.71Z" transform="translate(-1590 0.13)"/><rect class="w" x="759.63" y="398.94" width="21.45" height="34.94" rx="9.8" ry="9.8"/><path class="x" d="M2361.29,435.25h-1.86a11.31,11.31,0,0,1-11.3-11.3V408.61a11.31,11.31,0,0,1,11.3-11.3h1.86a11.31,11.31,0,0,1,11.3,11.3V424A11.31,11.31,0,0,1,2361.29,435.25Zm-1.86-34.94a8.31,8.31,0,0,0-8.3,8.3V424a8.31,8.31,0,0,0,8.3,8.3h1.86a8.31,8.31,0,0,0,8.3-8.3V408.61a8.31,8.31,0,0,0-8.3-8.3h-1.86Z" transform="translate(-1590 0.13)"/><path class="y" d="M662.28,400.4H763.13a0,0,0,0,1,0,0v31.75a0,0,0,0,1,0,0H662.28a14.5,14.5,0,0,1-14.5-14.5V414.9A14.5,14.5,0,0,1,662.28,400.4Z"/><path class="z" d="M2354.13,433H2252.28a15.52,15.52,0,0,1-15.5-15.5v-2.75a15.52,15.52,0,0,1,15.5-15.5h101.84V433Zm-101.84-31.75a13.52,13.52,0,0,0-13.5,13.5v2.75a13.52,13.52,0,0,0,13.5,13.5h99.84V401.27h-99.84Z" transform="translate(-1590 0.13)"/><path class="y" d="M2296.81,431.66h103.84a0,0,0,0,1,0,0v31.75a0,0,0,0,1,0,0H2296.81a14.5,14.5,0,0,1-14.5-14.5v-2.75A14.5,14.5,0,0,1,2296.81,431.66Z" transform="translate(1199.02 -1893.82) rotate(90)"/><path class="z" d="M2358.36,507.71h-33.75V402.87a15.52,15.52,0,0,1,15.5-15.5h2.75a15.52,15.52,0,0,1,15.5,15.5V507.71Zm-31.75-2h29.75V402.87a13.51,13.51,0,0,0-13.5-13.5h-2.75a13.51,13.51,0,0,0-13.5,13.5V505.71Z" transform="translate(-1590 0.13)"/><path class="aa" d="M638.05,344.74h73.78a7.68,7.68,0,0,1,7.68,7.68v50.35a0,0,0,0,1,0,0H630.37a0,0,0,0,1,0,0V352.42A7.68,7.68,0,0,1,638.05,344.74Z"/><path class="ab" d="M2310.52,403.64h-91.15V352.29a8.69,8.69,0,0,1,8.68-8.68h73.78a8.69,8.69,0,0,1,8.68,8.68v51.35Zm-89.15-2h87.15V352.29a6.69,6.69,0,0,0-6.68-6.68h-73.78a6.69,6.69,0,0,0-6.68,6.68v49.35Z" transform="translate(-1590 0.13)"/><circle class="e" cx="674.95" cy="373.75" r="7.48"/><path class="e" d="M2257.43,362.53a1.84,1.84,0,0,1-.69.2,2.49,2.49,0,0,1-.88-0.08,5.8,5.8,0,0,1-2,1.7l-0.43.2a4.45,4.45,0,0,1-3.2.13,20.52,20.52,0,0,1-3.25,3.09l-0.09.07a5.07,5.07,0,0,1-.47.28,5.34,5.34,0,0,1-2.43.58l-0.34.47,0,0a3.91,3.91,0,0,1-1.2,1,2.33,2.33,0,0,1-2.07.24,2.18,2.18,0,0,1-.89,1.54h0s-0.12-.12-0.14-0.1a2.6,2.6,0,0,1-2.13.08,2,2,0,0,1-1.14,1.53,2.81,2.81,0,0,1-.51.18,2.14,2.14,0,0,1-1.21,0,7.91,7.91,0,0,1-2.16,1.74,3.64,3.64,0,0,1-2.31.42,4.62,4.62,0,0,1-2.09-.93,7.7,7.7,0,0,1-1.27.27,1.79,1.79,0,0,1-1.53-.56,2.44,2.44,0,0,1-.47-2,1.69,1.69,0,0,1,.9-1.25,1.74,1.74,0,0,1,.43-0.15,7.2,7.2,0,0,1-.11-1,4.43,4.43,0,0,1,2.1-4.32l0.1-.05a3.47,3.47,0,0,1,2.74-.29,2.1,2.1,0,0,1,1.25-1.81l0.09,0,0.13-.07a1.86,1.86,0,0,1,1.64-.06,3,3,0,0,1,1.29-1.34l0.12-.06a1.76,1.76,0,0,1,1.33-.06,2.56,2.56,0,0,1,1.13-1.27,2,2,0,0,1,.55-0.19,2.5,2.5,0,0,1,.88,0l-0.19-.51a13.13,13.13,0,0,1-.83-5.86,4.53,4.53,0,0,1,1.17-2.34l0,0a2.89,2.89,0,0,1,.77-0.59c0.55-.28,2-0.73,3.54,1.09a8,8,0,0,1,1.54,5.4,3.9,3.9,0,0,1,2,.8,6.51,6.51,0,0,1,.73-2.48l0-.05a4.21,4.21,0,0,1,1.7-1.59,2.88,2.88,0,0,1,2.69-.05,2.11,2.11,0,0,1,1.25-1.74,1.93,1.93,0,0,1,1.39-.2,2.58,2.58,0,0,1,1-1,2,2,0,0,1,.52-0.18c0.85-.16,1.59.31,2.21,1.4a8.42,8.42,0,0,1,.46,1l0,0,0.1,0.24a2.25,2.25,0,0,0,.17-0.3,1.35,1.35,0,0,1,.2-0.3,2.07,2.07,0,0,1,.61-0.48,1.78,1.78,0,0,1,2.35.69,2.44,2.44,0,0,1,.2,2.44,6.05,6.05,0,0,1-2.27,2.6h0a3.34,3.34,0,0,1-.9.2,2.67,2.67,0,0,1-1.08-.06l0.05,0.5C2258.62,360.07,2258.77,361.84,2257.43,362.53Z" transform="translate(-1590 0.13)"/><path class="ac" d="M2261.33,354.34a0.46,0.46,0,0,0-.8-0.07,3.21,3.21,0,0,1-1.34,1.44c-0.81.32-1.44-1.52-1.44-1.52s-0.64-1.65-1.16-1.55a1.5,1.5,0,0,0-.8.93,6.34,6.34,0,0,0-.13,2.27l-0.08.08a13.75,13.75,0,0,0-1.09-2.09,0.92,0.92,0,0,0-1,.71,23.44,23.44,0,0,0,1.08,4.18,7.1,7.1,0,0,1-1.77,2.52,1.3,1.3,0,0,1-1.67.19s2.64-2.43,1.28-4.82-3.27-.27-3.44.07a5.35,5.35,0,0,0-.35,4.38c0,0.09.18,0.44,0.18,0.44a12,12,0,0,1-1.34,2s0.26-4.05-2.72-4.31c-1.34-.09-1.49,1.62-1.49,1.62s1.32-5-.82-7.47c-1-1.2-1.78-1-2.3-.45a3.2,3.2,0,0,0-.84,1.6,11.73,11.73,0,0,0,.75,5.22c1.07,2.8,2.3,6.23,2.3,6.23a2.53,2.53,0,0,1-.82,1.18c-0.53.31-1.12-1.45-1.12-1.45s-0.85-2.71-1.1-3.11a0.77,0.77,0,0,0-1-.51,1.42,1.42,0,0,0-.79,1s-0.33,2.89-.28,3.29v0.17l-0.12-.05s-0.5-3.46-1.48-3a2.33,2.33,0,0,0-1.06,1.87s-0.16,2.39-.1,2.63l-0.12-.05a16.44,16.44,0,0,0-1-2.84,0.54,0.54,0,0,0-.8-0.12,0.91,0.91,0,0,0-.63.74,33.19,33.19,0,0,0,1.18,4.38,7.26,7.26,0,0,1-2,2.48c-1,.55-1.27-0.18-1.27-0.18s3.15-3.25.8-5.28a2.13,2.13,0,0,0-2.22.06,3,3,0,0,0-1.38,3.05,6.65,6.65,0,0,0,.45,2h0a1.65,1.65,0,0,1-1.13.37c-0.52-.11-0.55.28-0.55,0.28s-0.17,1.2.57,1.12a14.54,14.54,0,0,0,1.81-.36h0a3.69,3.69,0,0,0,1.92,1c1.57,0.28,3.24-1.82,3.24-1.82l0.62-1a1.09,1.09,0,0,0,1.15.57c0.71-.21.92-0.48,0.65-3.79a4.71,4.71,0,0,1,0-1.69l0.07-.06a16.22,16.22,0,0,0,1.42,3.55,1.13,1.13,0,0,0,1.39.1s0.67,0.16.37-1.35a12.16,12.16,0,0,1-.16-3l0.09,0s0.92,2.58,1.85,3.21,1.81-.75,1.81-0.75a13.32,13.32,0,0,0,.68-1.17,4.1,4.1,0,0,0,2.85-.6c2.94-2.32,3.66-3.8,3.66-3.8a3,3,0,0,0,3.09.36,4.3,4.3,0,0,0,2.51-2.67,1.35,1.35,0,0,0,1.24.74c0.84-.07.5-1.88,0.5-1.88l-0.45-3.75,0.11-.05s1.1,2,2.42,1.75,2.24-2.14,2.24-2.14A0.92,0.92,0,0,0,2261.33,354.34ZM2229,371.25c-0.87-1.81-.09-3.19.51-3s0.89,1.1.39,2A1.72,1.72,0,0,1,2229,371.25Zm11.76-14.75s-0.35-3.32.6-2.1,0.5,6.52.5,6.52A34.21,34.21,0,0,1,2240.81,356.49Zm5.24,7.07a2,2,0,0,1-1.87,2.34,5.78,5.78,0,0,1-.92-2.69c-0.39-2.13,1.29-2.08,1.29-2.08S2245.81,361.35,2246,363.56Zm4.33-3.24a2.84,2.84,0,0,1-.42-1.94c0-1.44.84-1.07,0.84-1.07a1.25,1.25,0,0,1,.65,1.46A2,2,0,0,1,2250.38,360.32Z" transform="translate(-1590 0.13)"/><path class="aa" d="M630.37,402.77h89.15a0,0,0,0,1,0,0v0.64a6.74,6.74,0,0,1-6.74,6.74H637.11a6.74,6.74,0,0,1-6.74-6.74v-0.64A0,0,0,0,1,630.37,402.77Z"/><path class="ab" d="M2302.78,411h-75.67a7.75,7.75,0,0,1-7.74-7.74v-1.64h91.15v1.64A7.75,7.75,0,0,1,2302.78,411Zm-81.4-7.38a5.75,5.75,0,0,0,5.73,5.38h75.67a5.75,5.75,0,0,0,5.73-5.38h-87.13Z" transform="translate(-1590 0.13)"/><rect class="g" x="504.09" y="633.61" width="413.98" height="25.46"/><path class="h" d="M2508.07,660h-414a1.34,1.34,0,0,1-1.5-1.06V633.48a1.34,1.34,0,0,1,1.5-1.06h414a1.34,1.34,0,0,1,1.5,1.06v25.46A1.34,1.34,0,0,1,2508.07,660Zm-412.48-2.12h411V634.54h-411v23.34Z" transform="translate(-1590 0.13)"/><rect class="ad" x="556.11" y="434.2" width="308.47" height="164.55" rx="6.24" ry="6.24"/><path class="ae" d="M2448.35,600.13h-296a7.75,7.75,0,0,1-7.74-7.74V440.32a7.75,7.75,0,0,1,7.74-7.74h296a7.75,7.75,0,0,1,7.74,7.74V592.39A7.75,7.75,0,0,1,2448.35,600.13Zm-296-164.55a4.74,4.74,0,0,0-4.74,4.74V592.39a4.74,4.74,0,0,0,4.74,4.74h296a4.74,4.74,0,0,0,4.74-4.74V440.32a4.74,4.74,0,0,0-4.74-4.74h-296Z" transform="translate(-1590 0.13)"/><rect class="ad" x="585.35" y="462.76" width="250" height="123.51" rx="6.24" ry="6.24"/><path class="ae" d="M2419.11,587.64H2181.59a7.75,7.75,0,0,1-7.74-7.74v-111a7.75,7.75,0,0,1,7.74-7.74h237.52a7.75,7.75,0,0,1,7.74,7.74v111A7.75,7.75,0,0,1,2419.11,587.64ZM2181.59,464.13a4.74,4.74,0,0,0-4.74,4.74v111a4.74,4.74,0,0,0,4.74,4.74h237.52a4.74,4.74,0,0,0,4.74-4.74v-111a4.74,4.74,0,0,0-4.74-4.74H2181.59Z" transform="translate(-1590 0.13)"/><g class="af"><circle class="ae" cx="613.5" cy="490.63" r="18.83"/></g><g class="af"><circle class="ae" cx="803.5" cy="490.63" r="18.83"/></g><path class="ad" d="M711.08,558.13h0a37.5,37.5,0,0,1,37.5,37.5v23.5a0,0,0,0,1,0,0h-75a0,0,0,0,1,0,0v-23.5A37.5,37.5,0,0,1,711.08,558.13Z"/><path class="ae" d="M2338.58,620.5h-75a1.5,1.5,0,0,1-1.5-1.5V595.5a39,39,0,0,1,78,0V619A1.5,1.5,0,0,1,2338.58,620.5Zm-73.5-3h72v-22a36,36,0,0,0-72,0v22Z" transform="translate(-1590 0.13)"/><rect class="ad" x="645.05" y="616.41" width="129.9" height="15.41"/><path class="ae" d="M2365,633.19H2235a1.5,1.5,0,0,1-1.5-1.5V616.28a1.5,1.5,0,0,1,1.5-1.5H2365a1.5,1.5,0,0,1,1.5,1.5v15.41A1.5,1.5,0,0,1,2365,633.19Zm-128.4-3h126.9V617.78h-126.9v12.41Z" transform="translate(-1590 0.13)"/><rect class="g" x="1207.05" y="453.76" width="15.17" height="75.36"/><path class="h" d="M2812.22,530.5h-15.17a1.5,1.5,0,0,1-1.5-1.5V453.64a1.5,1.5,0,0,1,1.5-1.5h15.17a1.5,1.5,0,0,1,1.5,1.5V529A1.5,1.5,0,0,1,2812.22,530.5Zm-13.67-3h12.17V455.14h-12.17V527.5Z" transform="translate(-1590 0.13)"/><rect class="g" x="1090.36" y="455.76" width="15.17" height="75.36"/><path class="h" d="M2695.53,532.5h-15.17a1.5,1.5,0,0,1-1.5-1.5V455.64a1.5,1.5,0,0,1,1.5-1.5h15.17a1.5,1.5,0,0,1,1.5,1.5V531A1.5,1.5,0,0,1,2695.53,532.5Zm-13.67-3H2694V457.14h-12.17V529.5Z" transform="translate(-1590 0.13)"/><rect class="g" x="1076.36" y="444.77" width="158.3" height="25.67"/><path class="h" d="M2824.66,471.81h-158.3a1.5,1.5,0,0,1-1.5-1.5V444.64a1.5,1.5,0,0,1,1.5-1.5h158.3a1.5,1.5,0,0,1,1.5,1.5v25.67A1.5,1.5,0,0,1,2824.66,471.81Zm-156.8-3h155.3V446.14h-155.3v22.67Z" transform="translate(-1590 0.13)"/><g class="af"><path class="ag" d="M2676.28,408.25h-9.92a15.19,15.19,0,0,1-15.17-15.17v-38.7a15.19,15.19,0,0,1,15.17-15.17h23.14a1.17,1.17,0,0,0,1.17-1.17V310.32a18,18,0,0,1,36,0v20.32h-14V310.32a4,4,0,0,0-8,0V338a15.19,15.19,0,0,1-15.17,15.17h-23.14a1.17,1.17,0,0,0-1.17,1.17v38.7a1.17,1.17,0,0,0,1.17,1.17h9.92v14Z" transform="translate(-1590 0.13)"/></g><path class="ah" d="M2677.28,409.25h-10.92a16.19,16.19,0,0,1-16.17-16.17v-38.7a16.19,16.19,0,0,1,16.17-16.17h23.14a0.17,0.17,0,0,0,.17-0.17V310.32a19,19,0,0,1,38,0v21.32h-16V310.32a3,3,0,0,0-6,0V338a16.19,16.19,0,0,1-16.17,16.17h-23.14a0.17,0.17,0,0,0-.17.17v38.7a0.17,0.17,0,0,0,.17.17h10.92v16Zm-10.92-69a14.19,14.19,0,0,0-14.17,14.17v38.7a14.19,14.19,0,0,0,14.17,14.17h8.92v-12h-8.92a2.17,2.17,0,0,1-2.17-2.17v-38.7a2.17,2.17,0,0,1,2.17-2.17h23.14A14.19,14.19,0,0,0,2703.67,338V310.32a5,5,0,0,1,10,0v19.32h12V310.32a17,17,0,0,0-34,0V338a2.17,2.17,0,0,1-2.17,2.17h-23.14Z" transform="translate(-1590 0.13)"/><rect class="ah" x="1122.65" y="325.03" width="13.57" height="2"/><rect class="ah" x="2698.21" y="298.83" width="2" height="13.29" transform="translate(-344.84 2600.11) rotate(-64.09)"/><rect class="ah" x="1117.66" y="292.46" width="2" height="13.4"/><rect class="ah" x="2711.72" y="304.48" width="13.29" height="2" transform="translate(-1450.57 1217.71) rotate(-25.89)"/><rect class="ah" x="1122.65" y="314.53" width="13.57" height="2"/><rect class="ah" x="1100.48" y="325.03" width="13.57" height="2"/><rect class="ah" x="1100.48" y="314.53" width="13.57" height="2"/><rect class="ah" x="1091.17" y="339.99" width="2" height="13.57"/><rect class="ah" x="2694.36" y="336.89" width="2" height="14.04" transform="translate(-1043.73 2006.76) rotate(-45)"/><rect class="ah" x="1080.09" y="339.14" width="2" height="13.57"/><rect class="ah" x="2659.24" y="341.52" width="2" height="14.04" transform="translate(-1057.25 1983.34) rotate(-45)"/><rect class="ah" x="1061.4" y="359.38" width="13.33" height="2"/><rect class="ah" x="1060.84" y="384.51" width="14.74" height="2"/><rect class="ah" x="1061.4" y="372.22" width="13.33" height="2"/><rect class="ah" x="2653.35" y="397.58" width="14.04" height="2" transform="translate(-1092.63 1998.03) rotate(-45)"/><rect class="ah" x="1080.08" y="394.64" width="2" height="13.57"/><g class="ai"><path class="aj" d="M2690.67,331.77V310.32a18,18,0,0,1,36,0v20.32h-14V310.32a4,4,0,0,0-8,0v21.15Z" transform="translate(-1590 0.13)"/></g><g class="ai"><path class="aj" d="M2689.67,332.79V310.32a19,19,0,0,1,38,0v21.32h-16V310.32a3,3,0,0,0-6,0v22.13Zm19-39.45a17,17,0,0,0-17,17v20.42l12-.25V310.32a5,5,0,0,1,10,0v19.32h12V310.32A17,17,0,0,0,2708.66,293.33Z" transform="translate(-1590 0.13)"/></g><g class="ai"><path class="ak" d="M2676.86,339.2h12.64a1.17,1.17,0,0,0,1.17-1.17v-6.27l14,0.15V338a15.19,15.19,0,0,1-15.17,15.17h-12.64v-14Z" transform="translate(-1590 0.13)"/><path class="ak" d="M2689.5,354.21h-13.64v-16h13.64a0.17,0.17,0,0,0,.17-0.17v-7.28l16,0.17V338A16.19,16.19,0,0,1,2689.5,354.21Zm-11.64-2h11.64A14.19,14.19,0,0,0,2703.67,338V332.9l-12-.12V338a2.17,2.17,0,0,1-2.17,2.17h-11.64v12Z" transform="translate(-1590 0.13)"/></g><g class="ai"><path class="al" d="M2651.19,377.27v-22.9a15.19,15.19,0,0,1,15.17-15.17h10.5v14h-10.5a1.17,1.17,0,0,0-1.17,1.17v23Z" transform="translate(-1590 0.13)"/></g><g class="ai"><path class="al" d="M2666.19,378.43l-16-.17V354.37a16.19,16.19,0,0,1,16.17-16.17h11.5v16h-11.5a0.17,0.17,0,0,0-.17.17v24.06Zm-14-2.15,12,0.13v-22a2.17,2.17,0,0,1,2.17-2.17h9.5v-12h-9.5a14.19,14.19,0,0,0-14.17,14.17v21.91Z" transform="translate(-1590 0.13)"/></g><g class="ai"><path class="am" d="M2675.11,408.25h-8.75a15.19,15.19,0,0,1-15.17-15.17v-15.8l14,0.15v15.66a1.17,1.17,0,0,0,1.17,1.17h8.75v14Z" transform="translate(-1590 0.13)"/><path class="am" d="M2676.11,409.25h-9.75a16.19,16.19,0,0,1-16.17-16.17V376.26l16,0.17v16.65a0.17,0.17,0,0,0,.17.17h9.75v16Zm-23.92-31v14.79a14.19,14.19,0,0,0,14.17,14.17h7.75v-12h-7.75a2.17,2.17,0,0,1-2.17-2.17V378.41Z" transform="translate(-1590 0.13)"/></g><rect class="an" x="2675.24" y="337.12" width="2.94" height="17.6" transform="translate(3763.43 691.96) rotate(180)"/><path class="ao" d="M2678.18,355.71h-2.94a1,1,0,0,1-1-1v-17.6a1,1,0,0,1,1-1h2.94a1,1,0,0,1,1,1v17.6A1,1,0,0,1,2678.18,355.71Zm-1.94-2h0.94v-15.6h-0.94v15.6Z" transform="translate(-1590 0.13)"/><rect class="an" x="2718.68" y="319.34" width="2.94" height="17.6" transform="translate(1458.29 -2391.89) rotate(90)"/><path class="ao" d="M2729,330.61h-17.6a1,1,0,0,1-1-1v-2.94a1,1,0,0,1,1-1H2729a1,1,0,0,1,1,1v2.94A1,1,0,0,1,2729,330.61Zm-16.6-2H2728v-0.94h-15.6v0.94Z" transform="translate(-1590 0.13)"/><rect class="an" x="2656.84" y="368.35" width="2.94" height="17.6" transform="translate(1445.45 -2281.04) rotate(90)"/><path class="ao" d="M2667.1,379.62h-17.6a1,1,0,0,1-1-1v-2.94a1,1,0,0,1,1-1h17.6a1,1,0,0,1,1,1v2.94A1,1,0,0,1,2667.1,379.62Zm-16.6-2h15.6v-0.94h-15.6v0.94Z" transform="translate(-1590 0.13)"/><g class="d"><rect class="ag" x="1086.28" y="353" width="141.78" height="3"/></g><g class="d"><rect class="ag" x="1086.28" y="376.34" width="141.78" height="3"/></g><g class="d"><rect class="ag" x="1086.28" y="399.68" width="141.78" height="3"/></g><path class="ap" d="M2718.87,412.39a34.53,34.53,0,1,1,34.53-34.53A34.57,34.57,0,0,1,2718.87,412.39Zm0-65.06a30.53,30.53,0,1,0,30.53,30.53A30.56,30.56,0,0,0,2718.87,347.33Z" transform="translate(-1590 0.13)"/><rect class="ap" x="2685.8" y="372.84" width="65.95" height="9.63" transform="translate(-1060.73 2033.2) rotate(-45)"/><circle class="ap" cx="2704.01" cy="348.17" r="4.18" transform="translate(-1462.95 1238.33) rotate(-26.39)"/><circle class="ap" cx="2689.7" cy="362.49" r="4.18" transform="translate(-468.02 2578.05) rotate(-62.39)"/><circle class="ap" cx="2686.55" cy="382.49" r="4.18" transform="translate(-1617.06 396.26) rotate(-8.39)"/><circle class="ap" cx="2695.75" cy="400.52" r="4.18" transform="translate(-1100.77 2000.25) rotate(-44.39)"/><circle class="ap" cx="2713.79" cy="409.69" r="4.18" transform="translate(266.85 3017.15) rotate(-80.39)"/><circle class="ap" cx="2733.78" cy="406.51" r="4.18" transform="translate(-1485.78 1257.64) rotate(-26.39)"/><circle class="ap" cx="2748.08" cy="392.19" r="4.18" transform="translate(-463.01 2645.72) rotate(-62.39)"/><circle class="ap" cx="2751.24" cy="372.2" r="4.18" transform="translate(-1614.86 405.59) rotate(-8.39)"/><circle class="ap" cx="2742.04" cy="354.17" r="4.18" transform="translate(-1055.13 2019.41) rotate(-44.39)"/><circle class="ap" cx="2724" cy="344.99" r="4.18" transform="translate(339.15 2973.31) rotate(-80.39)"/><circle class="e" cx="1128.87" cy="377.98" r="2.14"/><path class="ap" d="M2732.24,420.15h-56L2711.31,383a1.5,1.5,0,0,1,2.18,2.06l-30.29,32.09h49A1.5,1.5,0,0,1,2732.24,420.15Z" transform="translate(-1590 0.13)"/><path class="aq" d="M2800,398.82a2,2,0,0,1-1.21-3.59l2.09-1.58a4.91,4.91,0,0,0,1.93-3.89V378.88a2,2,0,0,1,4,0v10.88a8.93,8.93,0,0,1-3.52,7.08l-2.09,1.58A2,2,0,0,1,2800,398.82Z" transform="translate(-1590 0.13)"/><rect class="ar" x="1201.07" y="352.31" width="25.67" height="33.4" rx="7.33" ry="7.33"/><path class="as" d="M2809.41,386.54h-11a8.29,8.29,0,0,1-8.28-8.28V359.52a8.29,8.29,0,0,1,8.28-8.28h11a8.29,8.29,0,0,1,8.28,8.28v18.74A8.29,8.29,0,0,1,2809.41,386.54Zm-11-33.4a6.39,6.39,0,0,0-6.38,6.38v18.74a6.39,6.39,0,0,0,6.38,6.38h11a6.39,6.39,0,0,0,6.38-6.38V359.52a6.39,6.39,0,0,0-6.38-6.38h-11Z" transform="translate(-1590 0.13)"/><path class="at" d="M2820,417.43H2674.63V347.3a17.05,17.05,0,0,1,17-17H2803a17.05,17.05,0,0,1,17,17v70.13Zm-142.36-3H2817V347.3a14,14,0,0,0-14-14h-111.3a14,14,0,0,0-14,14v67.13Z" transform="translate(-1590 0.13)"/><path class="at" d="M2758.73,417.14h-75.49v-70h75.49v70Zm-72.49-3h69.49v-64h-69.49v64Z" transform="translate(-1590 0.13)"/><rect class="ak" x="1081.61" y="413.87" width="147.92" height="8.31"/><path class="au" d="M2820.9,423.43H2670.23V412.37H2820.9v11.06ZM2673,420.68h145.17v-5.56H2673v5.56Z" transform="translate(-1590 0.13)"/><polygon class="ak" points="1220.62 442.6 1090.51 442.6 1085.84 422.18 1225.29 422.18 1220.62 442.6"/><path class="au" d="M2811.82,444h-132.5L2674,420.55h143.21Zm-130.11-3h127.72l4-17.42H2677.72Z" transform="translate(-1590 0.13)"/><path class="av" d="M1924.39,454H1794.78c-17,39.69-.81,69.66,64.8,69.66S1941.4,493.74,1924.39,454Z" transform="translate(-1590 0.13)"/><path class="aw" d="M1859.58,525.21c-34,0-56.42-7.86-66.64-23.35-8-12.2-7.89-28.94.46-48.41l0.39-.91h131.59l0.39,0.91c8.34,19.47,8.5,36.21.46,48.41C1916,517.35,1893.59,525.21,1859.58,525.21Zm-63.81-69.67c-7.55,18.1-7.67,33.53-.33,44.66,9.49,14.39,31.67,22,64.14,22s54.65-7.61,64.14-22c7.34-11.13,7.22-26.56-.33-44.66H1795.77Z" transform="translate(-1590 0.13)"/><path class="av" d="M1885.88,522.09h-53.4a4.46,4.46,0,0,0-4.06,2.61h0a4.46,4.46,0,0,0,4.06,6.3h53.4a4.46,4.46,0,0,0,4.06-6.3h0A4.46,4.46,0,0,0,1885.88,522.09Z" transform="translate(-1590 0.13)"/><path class="aw" d="M1885.88,532.5h-53.4a6,6,0,1,1,0-11.91h53.4A6,6,0,1,1,1885.88,532.5Zm-53.4-8.91a3,3,0,0,0-2.69,1.73,3,3,0,0,0,2.69,4.18h53.4a3,3,0,0,0,2.69-4.18,3,3,0,0,0-2.69-1.73h-53.4Z" transform="translate(-1590 0.13)"/><rect class="av" x="197.49" y="445.26" width="145" height="9.45" rx="4.73" ry="4.73"/><path class="aw" d="M1927.76,456.08H1792.21a6.23,6.23,0,0,1,0-12.45h135.55A6.23,6.23,0,1,1,1927.76,456.08Zm-135.55-9.45a3.23,3.23,0,0,0,0,6.45h135.55a3.23,3.23,0,1,0,0-6.45H1792.21Z" transform="translate(-1590 0.13)"/><path class="ax" d="M1855.13,324c0.1,2.83-1.26,49.77-1,52.72a3,3,0,0,0,3.37,2.94c0.56-.14-0.28-52.72.42-55.24S1855,320.21,1855.13,324Z" transform="translate(-1590 0.13)"/><path class="ax" d="M1849.38,357.08c5,11.25,2.94,35.75-1.12,41.5-1.39,2-8.41,12.76-8.41,12.76l1.82,6.73,13.74,1.82s16.16-10.87,15.14-12.06c-10.1-11.78-12.22-29.5-6.87-46.69,1.25-4-4.77-8.27-4.91-7.85a118.94,118.94,0,0,0-2.1,12.34c-0.56-4.35-3.08-10.8-3.93-12.9S1848.7,355.54,1849.38,357.08Z" transform="translate(-1590 0.13)"/><path class="ay" d="M1869.72,389.07c-16.61,6.52-5.33,66.21,69,52.4-0.55-22.58-18.86-82.15-55.86-64.39-1.26.61,1.29,10.23-.52,11.58C1878.87,391.27,1872.53,388,1869.72,389.07Z" transform="translate(-1590 0.13)"/><path class="ax" d="M1917.74,445c-33,0-50.1-16.91-54.89-33.64-3.17-11.06-.51-21,6.32-23.71h0c1.54-.61,3.53-0.27,5.62.08,2.36,0.4,5,.84,6.6-0.23,0.36-.8.05-3.87-0.11-5.54-0.35-3.56-.54-5.52,1-6.25,10-4.78,19.35-4.54,27.93.71,20.19,12.36,29.69,49,30.08,65a1.5,1.5,0,0,1-1.23,1.51A116.82,116.82,0,0,1,1917.74,445Zm-47.48-54.56c-5.27,2.07-7.22,10.71-4.53,20.09,5.33,18.63,27.25,37.44,71.48,29.66-0.86-16.86-10.73-50.29-28.6-61.23-7.51-4.6-15.78-4.86-24.58-.79a31.17,31.17,0,0,0,.23,3.48c0.42,4.31.57,7-1,8.18-2.58,1.92-6.13,1.33-9,.85-1.6-.27-3.26-0.55-4-0.24h0Z" transform="translate(-1590 0.13)"/><path class="az" d="M1933.18,438.61a1.5,1.5,0,0,1-1-.4L1885.28,395a1.5,1.5,0,1,1,2-2.2L1934.2,436A1.5,1.5,0,0,1,1933.18,438.61Z" transform="translate(-1590 0.13)"/><path class="az" d="M1881.6,428.75h-0.18a1.5,1.5,0,0,1-1.31-1.67l3-24.94a1.5,1.5,0,1,1,3,.36l-3,24.94A1.5,1.5,0,0,1,1881.6,428.75Z" transform="translate(-1590 0.13)"/><path class="az" d="M1897.09,433.72h-0.18a1.5,1.5,0,0,1-1.31-1.67l2-16.85a1.5,1.5,0,1,1,3,.36l-2,16.85A1.5,1.5,0,0,1,1897.09,433.72Z" transform="translate(-1590 0.13)"/><path class="az" d="M1912.89,438.08h-0.2a1.5,1.5,0,0,1-1.29-1.69l1.45-10.71a1.5,1.5,0,1,1,3,.4l-1.45,10.71A1.5,1.5,0,0,1,1912.89,438.08Z" transform="translate(-1590 0.13)"/><path class="az" d="M1894.83,395.24a1.5,1.5,0,0,1-.51-2.91l19.62-7.12a1.5,1.5,0,0,1,1,2.82l-19.62,7.12A1.49,1.49,0,0,1,1894.83,395.24Z" transform="translate(-1590 0.13)"/><path class="az" d="M1907.21,408a1.5,1.5,0,0,1-.54-2.9l15.84-6.1a1.5,1.5,0,0,1,1.08,2.8l-15.84,6.1A1.51,1.51,0,0,1,1907.21,408Z" transform="translate(-1590 0.13)"/><path class="az" d="M1921.1,420.21a1.5,1.5,0,0,1-.56-2.89l10-4a1.5,1.5,0,1,1,1.12,2.79l-10,4A1.49,1.49,0,0,1,1921.1,420.21Z" transform="translate(-1590 0.13)"/><path class="ay" d="M1842.35,389.07c16.61,6.52,5.33,66.21-69,52.4,0.55-22.58,18.86-82.15,55.86-64.39,1.26,0.61-1.29,10.23.52,11.58C1833.2,391.27,1839.54,388,1842.35,389.07Z" transform="translate(-1590 0.13)"/><path class="ax" d="M1794.32,445a116.83,116.83,0,0,1-21.29-2.09,1.5,1.5,0,0,1-1.23-1.51c0.39-16,9.89-52.64,30.08-65,8.57-5.25,18-5.49,27.93-.71,1.52,0.73,1.33,2.69,1,6.25-0.16,1.67-.47,4.74-0.11,5.54,1.57,1.07,4.24.63,6.6,0.23,2.1-.35,4.08-0.68,5.62-0.08h0c6.83,2.68,9.48,12.65,6.32,23.71C1844.42,428.12,1827.3,445,1794.32,445Zm-19.47-4.81c44.23,7.78,66.15-11,71.48-29.66,2.69-9.39.74-18-4.53-20.09h0c-0.77-.3-2.43,0-4,0.24-2.85.48-6.4,1.07-9-.85-1.56-1.16-1.42-3.87-1-8.18a31.17,31.17,0,0,0,.23-3.48c-8.8-4.07-17.06-3.81-24.58.79C1785.58,389.93,1775.71,423.36,1774.85,440.22Z" transform="translate(-1590 0.13)"/><path class="az" d="M1778.89,438.61a1.5,1.5,0,0,1-1-2.6l46.88-43.26a1.5,1.5,0,1,1,2,2.2l-46.88,43.26A1.5,1.5,0,0,1,1778.89,438.61Z" transform="translate(-1590 0.13)"/><path class="az" d="M1830.47,428.75a1.5,1.5,0,0,1-1.49-1.32l-3-24.94a1.5,1.5,0,1,1,3-.36l3,24.94a1.5,1.5,0,0,1-1.31,1.67h-0.18Z" transform="translate(-1590 0.13)"/><path class="az" d="M1815,433.72a1.5,1.5,0,0,1-1.49-1.32l-2-16.85a1.5,1.5,0,1,1,3-.36l2,16.85a1.5,1.5,0,0,1-1.31,1.67H1815Z" transform="translate(-1590 0.13)"/><path class="az" d="M1799.17,438.08a1.5,1.5,0,0,1-1.48-1.3l-1.45-10.71a1.5,1.5,0,1,1,3-.4l1.45,10.71a1.5,1.5,0,0,1-1.29,1.69h-0.2Z" transform="translate(-1590 0.13)"/><path class="az" d="M1817.24,395.24a1.49,1.49,0,0,1-.51-0.09L1797.1,388a1.5,1.5,0,0,1,1-2.82l19.62,7.13A1.5,1.5,0,0,1,1817.24,395.24Z" transform="translate(-1590 0.13)"/><path class="az" d="M1804.86,408a1.51,1.51,0,0,1-.54-0.1l-15.84-6.1a1.5,1.5,0,0,1,1.08-2.8l15.84,6.1A1.5,1.5,0,0,1,1804.86,408Z" transform="translate(-1590 0.13)"/><path class="az" d="M1791,420.21a1.49,1.49,0,0,1-.56-0.11l-10-4a1.5,1.5,0,1,1,1.12-2.79l10,4A1.5,1.5,0,0,1,1791,420.21Z" transform="translate(-1590 0.13)"/><path class="ay" d="M1842.79,410.36c-17.67-2.52-37.3,55,34.21,79.64,10.66-19.91,24.12-80.76-16.83-83.56-1.4-.1-3.93,9.53-6.17,9.81C1849.66,416.79,1845.78,410.79,1842.79,410.36Z" transform="translate(-1590 0.13)"/><path class="ax" d="M1877,491.5a1.5,1.5,0,0,1-.49-0.08c-45.25-15.62-55.59-44.79-50.7-65,2.7-11.18,9.94-18.54,17.19-17.51,1.64,0.24,3.2,1.5,4.85,2.84,1.86,1.51,4,3.22,5.85,3.06,0.71-.52,2-3.34,2.64-4.88,1.45-3.27,2.25-5.08,3.93-5,11,0.75,19.08,5.6,23.94,14.39,11.46,20.71,1.64,57.29-5.9,71.38A1.5,1.5,0,0,1,1877,491.5Zm-35.36-79.72c-5.32,0-10.75,6.34-12.92,15.31-4.55,18.84,5.23,46,47.54,61.06,7.57-15.09,15.47-49,5.33-67.37-4.26-7.7-11.32-12-21-12.81a31.17,31.17,0,0,0-1.52,3.14c-1.76,4-3,6.38-4.9,6.63-3.19.4-6-1.87-8.23-3.69-1.26-1-2.57-2.08-3.39-2.2h0A6.51,6.51,0,0,0,1841.64,411.78Z" transform="translate(-1590 0.13)"/><path class="az" d="M1874.29,485a1.5,1.5,0,0,1-1.43-1l-19.44-60.76a1.5,1.5,0,0,1,2.86-.91L1875.72,483A1.5,1.5,0,0,1,1874.29,485Z" transform="translate(-1590 0.13)"/><path class="az" d="M1834.28,450.93a1.5,1.5,0,0,1-1.2-2.39l15-20.19a1.5,1.5,0,0,1,2.41,1.79l-15,20.19A1.5,1.5,0,0,1,1834.28,450.93Z" transform="translate(-1590 0.13)"/><path class="az" d="M1845.31,462.9a1.5,1.5,0,0,1-1.21-2.39l10.1-13.65a1.5,1.5,0,1,1,2.41,1.78l-10.1,13.65A1.5,1.5,0,0,1,1845.31,462.9Z" transform="translate(-1590 0.13)"/><path class="az" d="M1856.9,474.49a1.5,1.5,0,0,1-1.19-2.41l6.54-8.6a1.5,1.5,0,0,1,2.39,1.82l-6.54,8.6A1.5,1.5,0,0,1,1856.9,474.49Z" transform="translate(-1590 0.13)"/><path class="az" d="M1882.91,431.79l-0.25,0-20.58-3.48a1.5,1.5,0,1,1,.5-3l20.58,3.48A1.5,1.5,0,0,1,1882.91,431.79Z" transform="translate(-1590 0.13)"/><path class="az" d="M1883.57,448.05l-0.22,0-16.79-2.51a1.5,1.5,0,1,1,.44-3l16.79,2.51A1.5,1.5,0,0,1,1883.57,448.05Z" transform="translate(-1590 0.13)"/><path class="az" d="M1883.57,464.45h-0.2L1872.66,463a1.5,1.5,0,1,1,.4-3l10.71,1.45A1.5,1.5,0,0,1,1883.57,464.45Z" transform="translate(-1590 0.13)"/><path class="ay" d="M1858.94,338.19c-10.8,9.47,14,51.59,66.58,20.83-6.58-16.94-36.7-57.05-59.87-33.51-0.79.8,3.77,7.39,2.76,8.91C1866.47,337.37,1860.77,336.59,1858.94,338.19Z" transform="translate(-1590 0.13)"/><path class="ax" d="M1890.22,371.6c-14.39,0-24.83-6.43-30.62-14.47-5.51-7.64-6.2-16.08-1.64-20.07,1.07-.93,2.69-1.23,4.42-1.54s3.83-.7,4.69-1.78a18.72,18.72,0,0,0-1.57-3.95c-1.25-2.63-2-4.22-.91-5.33,6.31-6.41,13.58-8.82,21.61-7.17,18.77,3.87,36.06,29.15,40.73,41.19a1.5,1.5,0,0,1-.64,1.84C1912.47,368.41,1900.36,371.6,1890.22,371.6Zm-23.06-45.47c0.21,0.6.7,1.63,1.05,2.37,1.33,2.8,2.48,5.21,1.46,6.75-1.5,2.26-4.41,2.79-6.76,3.22a8.51,8.51,0,0,0-3,.85h0c-3.31,2.9-2.41,9.81,2.1,16.06,9,12.52,30.54,20.69,61.61,3-5.34-12.52-21.75-34.78-38.06-38.15C1878.8,318.83,1872.6,320.82,1867.16,326.13Z" transform="translate(-1590 0.13)"/><path class="az" d="M1920.11,358.75a1.49,1.49,0,0,1-.58-0.12l-47.31-20a1.5,1.5,0,1,1,1.17-2.76l47.31,20A1.5,1.5,0,0,1,1920.11,358.75Z" transform="translate(-1590 0.13)"/><path class="az" d="M1878.35,365.36a1.5,1.5,0,0,1-1.46-1.17l-4.5-19.72a1.5,1.5,0,0,1,2.92-.67l4.5,19.72A1.5,1.5,0,0,1,1878.35,365.36Z" transform="translate(-1590 0.13)"/><path class="az" d="M1891.44,364.9a1.5,1.5,0,0,1-1.46-1.17l-3-13.32a1.5,1.5,0,0,1,2.92-.67l3,13.32a1.5,1.5,0,0,1-1.13,1.8A1.52,1.52,0,0,1,1891.44,364.9Z" transform="translate(-1590 0.13)"/><path class="az" d="M1904.6,363.89a1.5,1.5,0,0,1-1.47-1.19l-1.83-8.5a1.5,1.5,0,0,1,2.93-.63l1.83,8.5a1.5,1.5,0,0,1-1.15,1.78A1.53,1.53,0,0,1,1904.6,363.89Z" transform="translate(-1590 0.13)"/><path class="az" d="M1879.23,336.38a1.5,1.5,0,0,1-1-2.65L1891.19,323a1.5,1.5,0,1,1,1.92,2.31L1880.19,336A1.49,1.49,0,0,1,1879.23,336.38Z" transform="translate(-1590 0.13)"/><path class="az" d="M1892.09,342.68a1.5,1.5,0,0,1-1-2.63l10.33-8.94a1.5,1.5,0,0,1,2,2.27l-10.33,8.94A1.49,1.49,0,0,1,1892.09,342.68Z" transform="translate(-1590 0.13)"/><path class="az" d="M1905.94,348.11a1.5,1.5,0,0,1-1-2.62l6.5-5.78a1.5,1.5,0,1,1,2,2.24l-6.5,5.78A1.49,1.49,0,0,1,1905.94,348.11Z" transform="translate(-1590 0.13)"/><path class="ay" d="M1852.38,338.19c10.8,9.47-14,51.59-66.58,20.83,6.58-16.94,36.7-57.05,59.87-33.51,0.79,0.8-3.77,7.39-2.76,8.91C1844.85,337.37,1850.55,336.59,1852.38,338.19Z" transform="translate(-1590 0.13)"/><path class="ax" d="M1821.1,371.6c-10.14,0-22.24-3.2-36.06-11.29a1.5,1.5,0,0,1-.64-1.84c4.68-12,22-37.32,40.73-41.19,8-1.66,15.3.76,21.61,7.17,1.09,1.11.34,2.7-.91,5.33a18.75,18.75,0,0,0-1.57,3.95c0.86,1.08,2.89,1.45,4.69,1.78s3.35,0.61,4.42,1.54h0c4.55,4,3.86,12.44-1.64,20.07C1845.93,365.17,1835.49,371.6,1821.1,371.6Zm-33.42-13.23c31.08,17.7,52.58,9.53,61.61-3,4.51-6.25,5.41-13.16,2.1-16.06h0a8.51,8.51,0,0,0-3-.85c-2.34-.43-5.26-1-6.76-3.22-1-1.54.13-4,1.46-6.75,0.35-.74.84-1.77,1.05-2.37-5.45-5.32-11.64-7.3-18.43-5.9C1809.42,323.59,1793,345.86,1787.68,358.38Z" transform="translate(-1590 0.13)"/><path class="az" d="M1791.21,358.75a1.5,1.5,0,0,1-.58-2.88l47.31-20a1.5,1.5,0,0,1,1.17,2.76l-47.31,20A1.49,1.49,0,0,1,1791.21,358.75Z" transform="translate(-1590 0.13)"/><path class="az" d="M1833,365.36a1.5,1.5,0,0,1-1.46-1.83l4.5-19.72a1.5,1.5,0,0,1,2.92.67l-4.5,19.72A1.5,1.5,0,0,1,1833,365.36Z" transform="translate(-1590 0.13)"/><path class="az" d="M1819.88,364.9a1.52,1.52,0,0,1-.34,0,1.5,1.5,0,0,1-1.13-1.8l3-13.32a1.5,1.5,0,0,1,2.92.67l-3,13.32A1.5,1.5,0,0,1,1819.88,364.9Z" transform="translate(-1590 0.13)"/><path class="az" d="M1806.72,363.89a1.53,1.53,0,0,1-.32,0,1.5,1.5,0,0,1-1.15-1.78l1.83-8.5a1.5,1.5,0,1,1,2.93.63l-1.83,8.5A1.5,1.5,0,0,1,1806.72,363.89Z" transform="translate(-1590 0.13)"/><path class="az" d="M1832.09,336.38a1.49,1.49,0,0,1-1-.35l-12.91-10.75a1.5,1.5,0,0,1,1.92-2.31L1833,333.72A1.5,1.5,0,0,1,1832.09,336.38Z" transform="translate(-1590 0.13)"/><path class="az" d="M1819.23,342.68a1.49,1.49,0,0,1-1-.37l-10.33-8.94a1.5,1.5,0,1,1,2-2.27l10.33,8.94A1.5,1.5,0,0,1,1819.23,342.68Z" transform="translate(-1590 0.13)"/><path class="az" d="M1805.38,348.11a1.49,1.49,0,0,1-1-.38l-6.5-5.78a1.5,1.5,0,1,1,2-2.24l6.5,5.78A1.5,1.5,0,0,1,1805.38,348.11Z" transform="translate(-1590 0.13)"/><path class="ay" d="M1854.12,320.77c23-23-21.34-31.55-23-35.51C1840.28,293.1,1852.6,301.79,1854.12,320.77Z" transform="translate(-1590 0.13)"/><path class="ax" d="M1854.12,322.27a1.5,1.5,0,0,1-1.49-1.38c-1.34-16.76-11.32-25.11-20.13-32.49l-0.87-.73a4.19,4.19,0,0,1-1.92-1.83,1.5,1.5,0,0,1,2.35-1.73l1.3,1.1c1.26,0.69,3.47,1.63,5.35,2.43,8.56,3.63,21.49,9.12,23.31,18.48,1,4.92-1.35,10.21-6.84,15.71A1.5,1.5,0,0,1,1854.12,322.27Zm-13-30.34c6.34,6,12.34,13.69,14.14,25.41,3.18-3.84,4.48-7.41,3.85-10.64C1857.77,300,1848.68,295.27,1841.09,291.93Z" transform="translate(-1590 0.13)"/><path class="ay" d="M1857.65,327.78c-38.29-38.29,35.47-52.44,38.28-59C1880.64,281.79,1860.17,296.23,1857.65,327.78Z" transform="translate(-1590 0.13)"/><path class="ax" d="M1857.65,329.28a1.5,1.5,0,0,1-1.06-.44c-8.89-8.89-12.62-17.37-11.1-25.21,2.92-15,24.13-24,38.15-30,3.31-1.41,6.93-2.94,9.07-4.12l2.24-1.9a1.5,1.5,0,0,1,2.35,1.73,6.29,6.29,0,0,1-2.85,2.62l-1.51,1.27c-14.78,12.38-31.54,26.4-33.8,54.68A1.5,1.5,0,0,1,1857.65,329.28Zm26.72-52.7c-13.44,5.71-33.35,14.29-35.94,27.62-1.19,6.15,1.51,12.93,8.05,20.18C1859.35,301.24,1872.08,287.36,1884.37,276.58Z" transform="translate(-1590 0.13)"/><path class="ax" d="M1829,386.67c7.57-11.92,21.85-17.13,25.07-16.85-1.06-.08,1.36,5.05-1.12,5.19-7.85.42-16,7.9-19.75,13.77C1832.13,390.51,1827.6,388.94,1829,386.67Z" transform="translate(-1590 0.13)"/><path class="ax" d="M1882.23,386.67c-7.57-11.92-19.91-16.26-23.13-16,1.06-.08-1.36,5.05,1.12,5.19,7.85,0.42,14,7,17.81,12.9C1879.14,390.51,1883.68,388.94,1882.23,386.67Z" transform="translate(-1590 0.13)"/><path class="az" d="M1856.67,316a1.5,1.5,0,0,1-1.33-.8l-4.07-7.71a1.5,1.5,0,1,1,2.65-1.4l4.07,7.71A1.5,1.5,0,0,1,1856.67,316Z" transform="translate(-1590 0.13)"/><path class="az" d="M1862.28,303.34a1.5,1.5,0,0,1-1.37-.89l-3.08-6.87a1.5,1.5,0,0,1,2.74-1.23l3.08,6.87A1.5,1.5,0,0,1,1862.28,303.34Z" transform="translate(-1590 0.13)"/></g></svg>