<svg id="Site_Design" data-name="Site Design" xmlns="http://www.w3.org/2000/svg" xmlns:xlink="http://www.w3.org/1999/xlink" width="3000.55" height="659" viewBox="0 0 3000.55 659"><defs><style>.cls-1{fill:#0a1d25;}.cls-2{opacity:0.5;fill:url(#radial-gradient);}.cls-3{fill:#ffa3a1;}.cls-3,.cls-5{fill-opacity:0.25;}.cls-4{fill:#0e252d;}.cls-5{fill:#dcf5ff;}.cls-6{fill:#1f3a44;}.cls-7{fill:#fff;}.cls-8{fill:url(#radial-gradient-2);}.cls-9{fill:url(#radial-gradient-3);}</style><radialGradient id="radial-gradient" cx="1500" cy="329" r="553.84" gradientUnits="userSpaceOnUse"><stop offset="0" stop-color="#0a1d25"/><stop offset="0.31" stop-color="#6d828b" stop-opacity="0.53"/><stop offset="0.68" stop-color="#bfd8e1" stop-opacity="0.14"/><stop offset="1" stop-color="#dcf5ff" stop-opacity="0"/></radialGradient><radialGradient id="radial-gradient-2" cx="2124.78" cy="273.5" r="18.5" gradientUnits="userSpaceOnUse"><stop offset="0" stop-color="#fff"/><stop offset="0.04" stop-color="#fff" stop-opacity="0.93"/><stop offset="0.2" stop-color="#fff" stop-opacity="0.69"/><stop offset="0.35" stop-color="#fff" stop-opacity="0.48"/><stop offset="0.5" stop-color="#fff" stop-opacity="0.31"/><stop offset="0.64" stop-color="#fff" stop-opacity="0.17"/><stop offset="0.77" stop-color="#fff" stop-opacity="0.08"/><stop offset="0.9" stop-color="#fff" stop-opacity="0.02"/><stop offset="1" stop-color="#fff" stop-opacity="0"/></radialGradient><radialGradient id="radial-gradient-3" cx="930.2" cy="395.1" r="18.5" xlink:href="#radial-gradient-2"/></defs><title>RARE-Background</title><g id="Header"><g id="BG"><rect id="_Rectangle_" data-name="&lt;Rectangle&gt;" class="cls-1" width="3000" height="658"/><g id="_Rectangle_2" data-name="&lt;Rectangle&gt;"><rect class="cls-1" x="789.19" width="1421.61" height="658"/><rect class="cls-2" x="789.19" width="1421.61" height="658"/></g><polygon class="cls-3" points="993.27 302 1271.28 656 1805.28 659 2199.28 447 1734.28 636 1978.28 43 1630.28 636 1484.28 645 1215.28 104 1353.28 642 993.27 302"/><polygon class="cls-4" points="837.27 330 1342.28 656 1274.28 449 1484.28 645 1766.28 292 1635.28 657 2096.28 207 1783.28 657 1189.28 657 837.27 330"/><polygon class="cls-5" points="1633.28 658 1793.28 659 709.27 0 0 0 1633.28 658"/><polygon class="cls-5" points="1367.28 658 1207.28 659 2291.28 0 3000.55 0 1367.28 658"/><polygon class="cls-6" points="2101.73 395.53 2048.64 449.38 2071.11 449.71 2036.44 512.54 2102.34 438.27 2078.36 438.13 2101.73 395.53"/><polygon class="cls-6" points="1136.69 107.28 1186.29 167.52 1163.17 165.79 1193.01 233.55 1132.13 151.15 1156.78 153.21 1136.69 107.28"/><polygon class="cls-6" points="877.82 454.49 931.98 509.43 909.06 509.76 944.43 573.86 877.2 498.09 901.66 497.94 877.82 454.49"/><polygon class="cls-6" points="1770.67 172.94 1745.19 198.78 1755.97 198.94 1739.34 229.08 1770.96 193.45 1759.46 193.38 1770.67 172.94"/><polygon class="cls-7" points="2132.68 262.22 2130.68 273.37 2140.64 278.76 2129.42 280.31 2127.36 291.45 2122.43 281.25 2111.2 282.74 2119.37 274.89 2114.49 264.67 2124.47 270.02 2132.68 262.22"/><polygon class="cls-7" points="2133.85 122.21 2136.76 127.23 2142.44 126.04 2138.57 130.36 2141.45 135.39 2136.15 133.04 2132.26 137.34 2132.85 131.57 2127.56 129.2 2133.23 127.98 2133.85 122.21"/><polygon class="cls-7" points="1962.28 428.75 1963.13 431.37 1965.88 431.37 1963.66 432.99 1964.5 435.61 1962.28 434 1960.05 435.61 1960.89 432.99 1958.67 431.37 1961.42 431.37 1962.28 428.75"/><polygon class="cls-7" points="922.27 379.85 924.27 391 914.32 396.4 925.54 397.94 927.6 409.08 932.53 398.88 943.76 400.37 935.59 392.53 940.47 382.3 930.49 387.65 922.27 379.85"/><polygon class="cls-7" points="873.11 207.84 870.19 212.86 864.52 211.67 868.39 215.99 865.5 221.02 870.81 218.67 874.7 222.97 874.11 217.2 879.4 214.83 873.73 213.61 873.11 207.84"/><polygon class="cls-7" points="1146.28 311.75 1145.42 314.37 1142.67 314.37 1144.89 315.99 1144.05 318.61 1146.28 317 1148.5 318.61 1147.66 315.99 1149.88 314.37 1147.13 314.37 1146.28 311.75"/><circle class="cls-8" cx="2124.78" cy="273.5" r="18.5"/><circle class="cls-9" cx="930.2" cy="395.1" r="18.5"/></g></g></svg>